<svg width="54" height="54" viewBox="0 0 54 54" fill="none" xmlns="http://www.w3.org/2000/svg">
<path d="M22.3741 19.7092C23.9267 19.6037 25.3327 20.2005 26.4941 21.4145C26.9122 21.8517 27.1787 21.9006 27.6555 21.4505C29.9514 19.2745 32.8097 19.1022 35.1913 20.9309C37.3332 22.5797 38.2158 26.196 37.0349 28.8324C36.4847 30.0593 35.4847 30.9698 34.6093 31.9395C32.5506 34.2184 30.438 36.4432 28.3279 38.6707C27.2521 39.8075 27.0051 39.787 25.9953 38.6372C23.8216 36.1603 21.5403 33.7914 19.1906 31.4997C17.4008 29.7558 16.3959 27.7393 16.6208 25.1312C16.88 22.1038 19.3618 19.7169 22.3765 19.7092H22.3741ZM17.7847 26.1111C17.7773 27.5232 18.2126 28.7398 19.1833 29.7404C21.6186 32.2584 24.0637 34.7637 26.4672 37.3152C27.0589 37.9428 27.4354 37.9608 28.0125 37.3075C30.2522 34.7688 32.4894 32.2276 34.8147 29.7764C36.0739 28.4466 36.4701 26.9239 36.3087 25.1466C36.1375 23.2535 34.8954 21.6794 33.3868 21.4428C31.5359 20.7252 29.8365 20.9052 28.3597 22.3867C28.01 22.7391 27.6604 23.0941 27.3107 23.4464C26.8853 23.4902 26.5748 23.2818 26.2789 22.9783C25.807 22.4948 25.4011 21.9315 24.8094 21.592C24.6114 21.4505 24.428 21.2653 24.2104 21.1753C21.088 19.9047 17.6233 22.5694 17.7871 26.1086L17.7847 26.1111Z" fill="#09090A"/>
<path d="M6.36619 29.3668C4.81111 29.3668 3.25604 29.3823 1.70096 29.3617C0.395282 29.3462 0.0211829 28.9527 0.0114025 27.5715C0.00406727 26.6764 -0.0350547 25.7813 0.09209 24.8862C0.287697 23.5076 0.881855 22.4042 2.00415 21.6583C2.45405 21.3599 2.58364 21.1078 2.4027 20.5085C1.69851 18.1679 2.77191 16.0511 4.98227 15.2435C6.89433 14.5464 9.02156 15.6756 9.84556 17.8284C10.1854 18.7132 10.0485 19.5954 9.79665 20.4622C9.69641 20.8043 9.65973 21.0307 10.0265 21.2416C11.8872 22.3244 12.4789 24.13 12.5792 26.2289C12.7234 29.2665 12.6452 29.3668 9.7502 29.3591C8.62057 29.3565 7.49338 29.3591 6.36375 29.3591V29.3668H6.36619ZM7.30266 21.6814C8.53743 21.1104 9.15604 19.6546 8.74527 18.2965C8.29292 16.8073 7.08505 16.0768 5.65712 16.4292C3.84041 16.8767 3.16068 18.0342 3.48343 20.1253C3.95778 21.4165 4.88202 22.0955 6.063 22.0184C6.17303 22.0184 6.28306 22.0184 6.39064 22.0184C6.486 22.0029 6.58136 21.9901 6.67672 21.9746C6.88455 21.8769 7.09483 21.7792 7.30266 21.6814ZM6.30751 28.0525C6.30751 28.0525 6.30751 28.0576 6.30751 28.0602C7.25376 28.0602 8.20001 28.0551 9.14626 28.0602C10.6883 28.0705 11.4153 27.25 11.3273 25.5987C11.2564 24.2098 10.672 23.1681 9.52036 22.4633C9.17805 22.2524 8.92376 22.2653 8.61079 22.4993C7.04837 23.6696 5.44928 23.6748 3.82819 22.6254C3.62525 22.4942 3.42964 22.2987 3.16557 22.4839C2.40026 23.0215 1.64472 23.5668 1.43689 24.6085C1.26573 25.4624 1.26818 26.3266 1.25106 27.1908C1.23639 27.8519 1.43689 28.0885 2.09462 28.0628C3.4981 28.0113 4.90403 28.0473 6.30751 28.0473V28.0525Z" fill="#09090A"/>
<path d="M40.1598 53.9928C38.573 53.9928 36.9836 54.0134 35.3968 53.9851C34.2965 53.9671 33.9688 53.6353 33.9053 52.501C33.8515 51.5416 33.8319 50.5796 33.849 49.6202C33.8808 47.9689 34.6926 46.7575 35.986 45.9344C36.4848 45.6155 36.5386 45.3634 36.3968 44.8155C35.9151 42.9636 36.5998 41.1014 38.0619 40.1138C39.4067 39.2058 41.2797 39.3421 42.5927 40.4456C43.7688 41.4358 44.3238 43.2543 43.847 44.7692C43.6685 45.3377 43.7614 45.5975 44.2553 45.9627C45.5023 46.8835 46.3019 48.1593 46.3777 49.8157C46.4192 50.7108 46.3924 51.6084 46.3703 52.5061C46.341 53.6481 46.0941 53.9413 45.0133 53.9645C43.3971 53.9979 41.7785 53.9748 40.1598 53.9748C40.1598 53.9825 40.1598 53.9876 40.1598 53.9953V53.9928ZM39.6928 40.8648C38.5192 41.0757 37.815 41.8088 37.5387 43.0151C37.101 44.8541 38.3358 46.6443 39.9667 46.5363C40.4117 46.5877 40.8175 46.4411 41.221 46.2714C42.5829 45.6103 43.1697 44.2831 42.7394 42.8453C42.2822 41.3201 41.1623 40.5922 39.6928 40.8674V40.8648ZM42.1697 47.2539C40.5633 48.2261 39.0473 48.0924 37.6194 46.8501C37.4482 46.7009 37.2844 46.5671 37.0594 46.7395C36.4066 47.2436 35.6657 47.6268 35.3088 48.4885C34.7855 49.7463 34.92 51.0452 34.9811 52.3466C35.0031 52.8199 35.3381 52.7813 35.6413 52.7762C36.4604 52.7685 37.2819 52.7582 38.1011 52.7479C38.1768 52.7479 38.2526 52.7479 38.3284 52.7505C40.2258 52.7299 42.1257 52.8816 44.0231 52.7042C44.4289 52.6476 45.0769 53.0437 45.1649 52.3441C45.3899 50.5539 45.4412 48.7817 44.0304 47.3593C43.3873 46.7138 42.8347 46.4334 42.1672 47.2539H42.1697Z" fill="#09090A"/>
<path d="M48.1062 29.3802C46.6709 29.3802 45.2332 29.3854 43.798 29.3802C42.2404 29.3725 41.8468 28.9636 41.8394 27.3277C41.837 26.6873 41.8835 26.0468 41.8908 25.4038C41.9128 23.6908 42.6952 22.4099 43.9716 21.4376C44.3848 21.1238 44.529 20.8846 44.4043 20.2879C43.908 17.9164 44.4337 16.4992 46.0572 15.4446C47.6245 14.4261 48.9547 14.5007 50.4608 15.689C51.7836 16.7333 52.4683 18.5389 51.9206 20.1181C51.5978 21.0441 51.8325 21.4942 52.5074 22.0061C53.417 22.6928 53.9402 23.6573 53.9622 24.8662C53.9818 25.9233 53.9695 26.9831 53.9989 28.0402C54.0258 29.0099 53.5148 29.3468 52.6883 29.3468C51.9254 29.3468 51.1601 29.3468 50.3973 29.3442C49.6344 29.3442 48.8691 29.3442 48.1062 29.3442C48.1062 29.3571 48.1062 29.3674 48.1062 29.3802ZM52.4242 24.1718L52.4511 24.1795C52.5416 23.7705 52.1724 23.5776 52.0281 23.2947C51.5489 22.3559 51.011 22.2555 50.1063 22.7365C49.6833 22.9603 49.209 23.0786 48.7591 23.2458C47.8226 23.2638 46.8348 23.3152 46.0964 22.6234C45.3628 21.9366 44.8591 22.1218 44.3481 22.8343C42.8297 24.0663 42.952 25.8308 42.9789 27.5541C42.9862 28.0608 43.3725 28.1328 43.7662 28.1276C46.4069 28.0942 49.05 28.0608 51.6907 28.0273C52.1235 28.0016 52.8057 28.4106 52.8766 27.6569C52.9817 26.5689 53.1235 25.4372 52.6639 24.3724C52.6247 24.2489 52.5563 24.1692 52.4242 24.1718ZM48.028 21.88C48.5683 21.988 49.0451 21.8131 49.4926 21.5122C50.9719 20.6917 51.3117 19.5214 50.5855 17.7544C50.0305 16.4015 48.649 15.7867 47.2847 16.2806C45.6318 16.9493 44.9398 18.2688 45.468 19.7478C45.8616 21.2319 46.6758 21.9083 48.0304 21.88H48.028Z" fill="#09090A"/>
<path d="M14.4717 53.9826C12.8531 53.9826 11.2344 54.0237 9.6182 53.9697C8.33453 53.926 8.08024 53.6173 8.01666 52.2876C7.98243 51.5828 7.98488 50.8781 7.97265 50.1733C7.94576 48.3626 8.66461 46.9453 10.0803 45.9396C10.5278 45.6207 10.6402 45.3558 10.4642 44.7745C9.95073 43.0821 10.6843 41.2996 12.2662 40.1319C13.2149 39.4323 15.5011 39.5634 16.6356 40.3865C17.8264 41.2482 18.5208 43.1129 18.11 44.633C17.9291 45.2992 18.0293 45.6053 18.6064 45.9834C20.0049 46.9016 20.5942 48.3651 20.6993 50.0473C20.758 50.9758 20.67 51.8992 20.5795 52.8277C20.4964 53.6894 20.0783 54.0006 19.3277 53.998C17.709 53.9954 16.0928 53.998 14.4741 53.998C14.4741 53.9929 14.4741 53.9877 14.4741 53.9826H14.4717ZM9.29056 52.5371C9.3199 52.6631 9.39814 52.7145 9.52039 52.7068C11.1757 52.7248 12.831 52.7454 14.4839 52.7634L14.5597 52.8046L14.638 52.7686C14.77 52.7737 14.902 52.7763 15.0341 52.7814C15.1465 52.7814 15.2566 52.7814 15.3691 52.784C16.1735 52.784 16.9779 52.784 17.7824 52.784C18.3276 52.7608 19.0391 53.1081 19.3619 52.4805C20.1321 50.9861 19.3741 48.2057 18.0415 47.0688C17.4474 46.5621 17.0048 46.4824 16.6209 47.2694C16.5134 47.3363 16.4058 47.4032 16.2982 47.47C16.1417 47.47 16.0121 47.5266 15.9314 47.6758H15.9339C14.5915 48.0616 13.2516 48.1028 12.1073 47.1768C11.3713 46.5801 10.8799 46.7061 10.3664 47.3877L10.3542 47.4057C10.1097 47.4675 9.97029 47.6347 9.91161 47.8841C9.83826 47.9999 9.76246 48.1156 9.68911 48.234C9.42993 48.4294 9.33457 48.7021 9.36391 49.0287C9.32479 49.0802 9.31256 49.1393 9.32479 49.2062C9.03138 50.3096 9.02649 51.4182 9.29545 52.5268L9.29056 52.5371ZM14.2785 46.683C15.0292 46.5287 15.7896 46.3692 16.3398 45.7545C17.1246 44.8774 17.2591 43.1052 16.6478 42.1612C15.973 41.1195 14.413 40.6591 13.2003 41.1427C12.0364 41.6057 11.3787 42.83 11.5474 44.2138C11.9092 45.8085 12.8726 46.6804 14.2785 46.683Z" fill="#09090A"/>
<path d="M27.3769 14.192C25.7876 14.192 24.2007 14.2023 22.6114 14.1895C21.4866 14.1792 21.2006 13.9631 21.0392 12.7799C20.6871 10.2156 20.8216 7.80809 23.2789 6.30598C23.7166 6.03849 23.4843 5.66039 23.3791 5.37746C22.4353 2.83623 24.2594 0.292431 26.8072 0.0172174C29.2351 -0.245136 31.5555 2.54044 30.844 4.98136C30.6362 5.69383 30.7438 6.01277 31.4015 6.38058C32.5605 7.02874 33.2475 8.16046 33.4823 9.51081C33.7097 10.8071 33.5947 12.1343 33.5703 13.4487C33.5581 14.1277 33.0715 14.1714 32.5971 14.1869C31.712 14.21 30.8269 14.2203 29.9418 14.228C29.086 14.2357 28.2302 14.228 27.3769 14.228C27.3769 14.2177 27.3769 14.2049 27.3769 14.1946V14.192ZM26.1568 1.41644C24.6775 2.08004 24.1665 3.04714 24.4061 4.72929C24.6824 6.26226 25.7362 7.09305 27.3035 7.01331C27.6067 6.88728 27.9099 6.76382 28.2131 6.63778C29.6239 5.87645 30.1741 4.46179 29.6117 3.05743C29.042 1.64278 27.5578 0.935455 26.1592 1.41901L26.1568 1.41644ZM28.2327 8.22991C27.1495 8.17847 25.9881 8.43825 25.0663 7.63833C24.4085 7.06732 23.922 7.10848 23.4256 7.79008C21.9781 8.96296 22.1126 10.622 22.1542 12.2681C22.1688 12.8417 22.3375 13.0372 22.9024 13.0294C25.5871 12.9986 28.2718 13.0114 30.9565 13.0089C31.2915 13.014 31.6289 13.0269 31.9639 13.0269C32.1839 13.0269 32.426 12.9986 32.4333 12.6976C32.4749 11.1004 32.6485 9.46451 31.6191 8.0833C30.8636 7.06732 29.9589 6.90014 29.306 7.60746C28.9491 7.8158 28.5896 8.02157 28.2327 8.22991Z" fill="#09090A"/>
<path d="M26.9026 46.1704C28.3623 46.1009 29.8221 45.9723 31.2818 46.1266C31.7414 46.1755 32.2549 46.1884 32.2598 46.8623C32.2647 47.5284 31.7341 47.6236 31.294 47.6287C28.4944 47.6622 25.6947 47.6673 22.8951 47.6519C22.3988 47.6493 21.8217 47.4693 21.8559 46.8314C21.8902 46.1729 22.4672 46.1627 22.9807 46.1678C24.2888 46.1781 25.5969 46.1704 26.9075 46.1704H26.9026Z" fill="#13110F"/>
<path d="M35.6145 12.5458C35.9935 12.5998 36.2404 12.7799 36.4947 12.9651C38.4214 14.3771 40.3506 15.7815 42.2822 17.1859C42.5928 17.4122 42.8348 17.6823 42.9277 18.0809C42.9987 18.3793 42.984 18.6571 42.7395 18.868C42.4925 19.0789 42.226 19.0609 41.9791 18.8809C39.7247 17.2373 37.4703 15.5912 35.2257 13.9322C34.8981 13.6904 34.7734 13.3071 34.9079 12.9059C35.0326 12.5355 35.37 12.5458 35.6145 12.5458Z" fill="#13110F"/>
<path d="M19.4084 13.3973C19.3937 13.7523 19.1957 13.9812 18.9365 14.1741C16.8997 15.6891 14.9265 17.3044 12.7626 18.6264C12.5303 18.7679 12.2712 18.9145 12.012 18.9531C11.4227 19.0405 11.0853 18.5364 11.3494 17.9808C11.452 17.7622 11.6281 17.5487 11.8188 17.4098C13.9558 15.8794 16.1026 14.3645 18.2518 12.8495C18.511 12.6669 18.7922 12.5563 19.1076 12.7492C19.3497 12.8984 19.4279 13.1196 19.4084 13.3948V13.3973Z" fill="#13110F"/>
<path d="M11.8212 38.5167C11.875 38.9256 11.7381 39.1674 11.3322 39.2935C10.9019 39.4272 10.6769 39.2189 10.5425 38.8639C10.1488 37.8248 9.76003 36.7805 9.4055 35.726C8.98005 34.4605 8.59617 33.1796 8.19029 31.9064C8.05092 31.4743 8.13894 31.1168 8.55705 30.9702C8.9067 30.8467 9.27835 30.8364 9.53509 31.2377C9.74292 31.5617 11.8115 38.0974 11.8237 38.5167H11.8212Z" fill="#13110F"/>
<path d="M42.8176 38.2645C43.1917 37.0865 43.5487 35.9007 43.9473 34.7304C44.336 33.5884 44.7615 32.4618 45.1771 31.3301C45.3385 30.8903 45.6344 30.6074 46.0916 30.7874C46.5439 30.9675 46.566 31.3404 46.429 31.8162C45.7615 34.144 44.9766 36.4203 44.0133 38.6297C43.8886 38.9152 43.7785 39.247 43.3531 39.1004C42.9668 38.9667 42.8372 38.6863 42.8176 38.2645Z" fill="#13110F"/>
<path d="M27.3083 23.4489C27.6579 23.094 28.0076 22.7416 28.3572 22.3892C29.8341 20.9051 31.5334 20.7277 33.3843 21.4453C32.7706 21.7899 32.7193 22.0934 33.421 22.3969C34.7829 22.9834 35.2964 24.0997 35.1937 25.5941C35.1692 25.9439 35.1619 26.3014 35.1937 26.6512C35.3086 27.9527 34.6851 28.8272 33.7609 29.5705C33.1838 30.0335 32.5921 30.5016 32.1178 31.07C30.6678 32.8062 29.0247 34.3392 27.5137 36.0085C27.2569 36.294 27.0271 36.3583 26.7532 36.0368C25.961 35.1108 25.0637 34.3032 24.1199 33.5573C23.0367 32.7033 22.2909 31.5099 21.352 30.5093C20.1857 29.2644 18.9778 28.0273 18.1979 26.4403C18.1074 26.2551 17.9876 26.1316 17.7846 26.1136C17.6208 22.577 21.0855 19.9097 24.2079 21.1803C24.4255 21.2704 24.6089 21.4556 24.8069 21.597C24.5673 21.8722 24.2617 22.0909 24.7849 22.4484C25.3106 22.8059 25.741 23.3126 26.2471 23.7036C26.653 24.0174 27.0833 24.1254 27.3083 23.4541V23.4489Z" fill="#F13C33"/>
<path d="M17.7848 26.1109C17.9877 26.1289 18.1051 26.2524 18.198 26.4376C18.978 28.0246 20.1858 29.2618 21.3521 30.5067C22.2911 31.5072 23.0344 32.7006 24.12 33.5546C25.0662 34.3005 25.9636 35.1081 26.7534 36.0341C27.0272 36.3556 27.257 36.2913 27.5138 36.0058C29.0248 34.3339 30.6679 32.8035 32.1179 31.0674C32.5922 30.4989 33.1839 30.0308 33.761 29.5678C34.6852 28.8245 35.3112 27.95 35.1938 26.6485C35.162 26.2987 35.1694 25.9438 35.1938 25.5914C35.2965 24.097 34.7855 22.9807 33.4211 22.3943C32.7194 22.0908 32.7707 21.7873 33.3844 21.4426C34.8955 21.6792 36.1352 23.2534 36.3063 25.1464C36.4677 26.9263 36.0716 28.449 34.8124 29.7762C32.4895 32.2274 30.2498 34.7686 28.0101 37.3073C27.4331 37.9606 27.0565 37.9426 26.4648 37.315C24.0638 34.7635 21.6162 32.2557 19.1809 29.7402C18.2127 28.7396 17.775 27.5205 17.7823 26.1109H17.7848Z" fill="#D22427"/>
<path d="M27.3085 23.4486C27.0811 24.1199 26.6532 24.0119 26.2473 23.6981C25.7412 23.3071 25.3084 22.8004 24.7851 22.4429C24.2619 22.0854 24.5675 21.8668 24.8071 21.5916C25.3988 21.9336 25.8047 22.4969 26.2766 22.9779C26.5725 23.2814 26.883 23.4872 27.3085 23.446V23.4486Z" fill="#D22427"/>
<path d="M6.30499 28.0533C4.90151 28.0533 3.49558 28.0173 2.0921 28.0687C1.43437 28.0944 1.23387 27.8578 1.24854 27.1968C1.2681 26.33 1.26321 25.4683 1.43437 24.6144C1.6422 23.5727 2.39774 23.0274 3.16305 22.4899C3.42712 22.3047 3.62273 22.5001 3.82567 22.6313C5.44676 23.6807 7.04585 23.673 8.60826 22.5053C8.92368 22.2712 9.17553 22.2584 9.51784 22.4693C10.6719 23.1766 11.2539 24.2157 11.3248 25.6047C11.4095 27.2559 10.6825 28.0764 9.14374 28.0662C8.19749 28.061 7.25124 28.0662 6.30499 28.0662C6.30499 28.0636 6.30499 28.061 6.30499 28.0584V28.0533Z" fill="#D4800B"/>
<path d="M6.3906 22.016C6.28057 22.016 6.17054 22.016 6.06052 22.016C5.45658 21.2084 4.55679 20.7531 3.88928 20.0175C3.84037 19.9635 3.62032 20.0818 3.48095 20.1204C3.15819 18.0293 3.83793 16.8719 5.65463 16.4243C5.76221 16.7381 6.00672 16.7947 6.28791 16.8822C7.99214 17.412 8.62053 19.3411 7.59359 20.8998C7.42977 21.1467 7.30018 21.3782 7.30262 21.6791C7.09479 21.7768 6.88451 21.8746 6.67668 21.9723C6.5691 21.9003 6.47618 21.9209 6.3906 22.016Z" fill="#FAC21D"/>
<path d="M7.30033 21.6797C7.30033 21.3788 7.42992 21.1473 7.5913 20.9004C8.61579 19.3442 7.98985 17.4126 6.28562 16.8827C6.00444 16.7953 5.75993 16.7387 5.65234 16.4249C7.08028 16.0751 8.28815 16.8056 8.74049 18.2923C9.15371 19.6503 8.53266 21.1061 7.29789 21.6771L7.30033 21.6797Z" fill="#D4800B"/>
<path d="M3.48096 20.1232C3.62033 20.0847 3.84283 19.9663 3.88929 20.0204C4.5568 20.756 5.45659 21.2112 6.06053 22.0189C4.87955 22.0935 3.9553 21.4144 3.48096 20.1258V20.1232Z" fill="#D4800B"/>
<path d="M6.39062 22.0164C6.47376 21.9212 6.56912 21.9007 6.6767 21.9727C6.58134 21.9881 6.48598 22.001 6.39062 22.0164Z" fill="#D4800B"/>
<path d="M44.0256 52.7037C42.1282 52.8812 40.2284 52.732 38.331 52.75C38.2552 52.75 38.1794 52.75 38.1036 52.7474C37.2845 52.7577 36.463 52.768 35.6438 52.7757C35.3382 52.7783 35.0057 52.8169 34.9837 52.3462C34.9225 51.0447 34.7881 49.7483 35.3113 48.488C35.6683 47.6264 36.4092 47.2431 37.062 46.739C37.2845 46.5667 37.4508 46.7004 37.6219 46.8496C39.0499 48.0919 40.5658 48.2231 42.1722 47.2534C43.4217 47.3975 44.2848 48.4057 44.3899 49.7149C44.4731 50.7489 44.2359 51.7186 44.0281 52.7011L44.0256 52.7037Z" fill="#879EA8"/>
<path d="M41.2209 46.2685C40.8174 46.4383 40.4116 46.5849 39.9665 46.5334C39.8516 45.8775 39.2257 45.7618 38.8491 45.3837C38.1865 44.7201 37.6119 44.0256 37.5386 43.0122C37.8149 41.8085 38.5166 41.0754 39.6927 40.8645C40.167 40.9494 40.4482 41.3738 40.8443 41.6027C42.084 42.3178 42.4288 43.5832 41.8444 44.913C41.6439 45.3683 41.2331 45.7206 41.2233 46.2685H41.2209Z" fill="#FAC21D"/>
<path d="M44.0255 52.7037C44.2333 51.7212 44.4705 50.7515 44.3874 49.7175C44.2822 48.4083 43.4191 47.4001 42.1697 47.256C42.8372 46.4355 43.3898 46.7133 44.0328 47.3615C45.4461 48.7839 45.3923 50.556 45.1674 52.3462C45.0793 53.0458 44.4314 52.6497 44.0255 52.7063V52.7037Z" fill="#1B8C8F"/>
<path d="M41.2211 46.2687C41.2308 45.7182 41.6416 45.3684 41.8421 44.9132C42.4265 43.5834 42.0817 42.3179 40.8421 41.6029C40.446 41.374 40.1672 40.9522 39.6904 40.8647C41.1599 40.5895 42.2798 41.3174 42.737 42.8426C43.1673 44.2804 42.5805 45.6076 41.2186 46.2687H41.2211Z" fill="#D4800B"/>
<path d="M37.5411 43.0146C37.6145 44.0281 38.1915 44.7251 38.8517 45.3861C39.2283 45.7616 39.8542 45.8774 39.9691 46.5358C38.3383 46.6464 37.1035 44.8537 37.5411 43.0146Z" fill="#D4800B"/>
<path d="M38.1035 52.7477C38.1793 52.7477 38.2551 52.7477 38.3309 52.7502C38.2551 52.7502 38.1793 52.7502 38.1035 52.7477Z" fill="#1B8C8F"/>
<path d="M48.7567 23.246C49.2066 23.0789 49.6809 22.9631 50.1039 22.7368C51.0086 22.2584 51.5465 22.3561 52.0257 23.2949C52.17 23.5778 52.5392 23.7708 52.4487 24.1797C52.2385 24.0923 52.0257 24.0022 51.6516 23.8453C52.3069 25.3166 52.1162 26.6746 51.6883 28.0276C49.0476 28.061 46.4045 28.0944 43.7638 28.1279C43.3701 28.133 42.9838 28.061 42.9765 27.5543C42.952 25.831 42.8273 24.0665 44.3457 22.8345C44.8225 22.7831 45.2333 22.9374 45.6025 23.2589C46.4338 23.9791 47.429 23.7836 48.385 23.7836C48.7224 23.7836 48.742 23.511 48.7567 23.246ZM51.324 23.4132C51.3484 23.4287 51.3753 23.4441 51.3998 23.457C51.3729 23.4441 51.346 23.4312 51.3191 23.4184C51.3118 23.1869 51.2555 22.9811 51.0086 22.9245C50.9034 22.9014 50.8276 22.9734 50.8521 23.0814C50.9059 23.3412 51.1113 23.3901 51.3264 23.4132H51.324Z" fill="#FAC21D"/>
<path d="M49.4927 21.5126C49.0453 21.8136 48.5685 21.9885 48.0281 21.8805C47.2335 21.0908 46.4657 20.2652 45.4681 19.7482C44.94 18.2692 45.632 16.9497 47.2848 16.281C47.7885 16.4868 48.28 16.744 48.7983 16.888C49.9573 17.207 50.5466 19.0177 49.9867 20.0105C49.7177 20.4864 49.615 20.9982 49.4927 21.5152V21.5126Z" fill="#FAC21D"/>
<path d="M49.4926 21.5121C49.6124 20.9952 49.7175 20.4859 49.9865 20.0075C50.5464 19.0146 49.9572 17.2065 48.7982 16.8849C48.2798 16.7409 47.7884 16.4837 47.2847 16.2779C48.649 15.7841 50.0305 16.4014 50.5855 17.7517C51.3117 19.5188 50.9719 20.6891 49.4926 21.5096V21.5121Z" fill="#D4800B"/>
<path d="M51.6885 28.0277C52.1164 26.6747 52.3071 25.3141 51.6519 23.8454C52.0284 24.0023 52.2387 24.0923 52.449 24.1798L52.4221 24.1721C52.5027 24.239 52.5834 24.3058 52.6617 24.3727C53.1214 25.4376 52.9771 26.5693 52.8744 27.6573C52.801 28.4109 52.1213 28.0045 51.6885 28.0277Z" fill="#D4800B"/>
<path d="M48.7566 23.246C48.7444 23.5084 48.7224 23.781 48.385 23.7836C47.429 23.7836 46.4338 23.979 45.6025 23.2589C45.2333 22.9399 44.8225 22.7856 44.3457 22.8345C44.8567 22.1194 45.3604 21.9342 46.0939 22.6236C46.8324 23.3154 47.8177 23.264 48.7566 23.246Z" fill="#D4800B"/>
<path d="M45.4656 19.7481C46.4656 20.2651 47.2334 21.0907 48.0256 21.8804C46.6735 21.9087 45.8592 21.2322 45.4656 19.7481Z" fill="#D4800B"/>
<path d="M52.6639 24.3697C52.5832 24.3028 52.5026 24.236 52.4243 24.1691C52.5564 24.1665 52.6273 24.2463 52.6639 24.3697Z" fill="#FAC21D"/>
<path d="M9.32475 49.206C9.31252 49.1417 9.32475 49.0825 9.36387 49.0311C9.67684 48.8587 9.72819 48.5681 9.68907 48.2363C9.76242 48.1205 9.83822 48.0048 9.91157 47.8865C10.1732 47.8428 10.3981 47.763 10.3541 47.4081C10.3541 47.4081 10.3664 47.3901 10.3664 47.3926C11.2148 47.2357 11.831 47.781 12.496 48.1746C13.4887 48.761 15.0952 48.5346 15.9363 47.6807H15.9338C16.0952 47.691 16.2297 47.6447 16.3006 47.4749C16.4082 47.4081 16.5158 47.3412 16.6233 47.2743C18.0611 47.7733 18.6552 48.6452 18.687 50.3557C18.7041 51.2894 18.6919 52.2256 17.7848 52.7889C16.9803 52.7889 16.1759 52.7889 15.3715 52.7889C15.2614 52.6731 15.149 52.6731 15.0365 52.7837C14.9044 52.7786 14.7724 52.776 14.6404 52.7709C14.5915 52.7092 14.5401 52.7092 14.4863 52.7657C12.831 52.7477 11.1757 52.7272 9.5228 52.7092C9.44701 52.6526 9.37121 52.596 9.29541 52.5394L9.3003 52.5291C9.31008 51.4231 9.31986 50.3145 9.32964 49.2085L9.32475 49.206Z" fill="#F13C33"/>
<path d="M11.5496 44.2133C11.3809 42.8295 12.0386 41.6077 13.2025 41.1422C14.4153 40.6586 15.9752 41.119 16.6501 42.1607C17.2614 43.1021 17.1269 44.8768 16.342 45.7539C15.7919 46.3687 15.0314 46.5281 14.2832 46.6825C13.5473 45.7334 12.5448 45.0929 11.7306 44.2338C11.6988 44.2004 11.6132 44.2184 11.5521 44.2133H11.5496Z" fill="#FAC21D"/>
<path d="M17.7823 52.7863C18.687 52.223 18.7016 51.2867 18.6845 50.3531C18.6527 48.6426 18.0586 47.7681 16.6208 47.2717C17.0047 46.4846 17.4473 46.5644 18.0414 47.0711C19.374 48.2105 20.132 50.9884 19.3618 52.4827C19.039 53.1078 18.33 52.7631 17.7823 52.7863Z" fill="#D22427"/>
<path d="M15.9339 47.6778C15.0928 48.5343 13.4888 48.7607 12.4937 48.1717C11.8286 47.7781 11.2125 47.2328 10.364 47.3897C10.8775 46.7081 11.3689 46.5821 12.1049 47.1788C13.2492 48.1048 14.5891 48.0636 15.9315 47.6778H15.9339Z" fill="#D22427"/>
<path d="M11.5498 44.2137C11.6109 44.2189 11.6941 44.1983 11.7283 44.2343C12.5425 45.0934 13.545 45.7364 14.281 46.683C12.875 46.683 11.9117 45.8084 11.5498 44.2137Z" fill="#D4800B"/>
<path d="M9.32488 49.2056C9.3151 50.3116 9.30532 51.4202 9.29554 52.5262C9.02658 51.4176 9.03146 50.3091 9.32488 49.2056Z" fill="#D22427"/>
<path d="M9.68896 48.2364C9.72808 48.5682 9.67673 48.8588 9.36376 49.0311C9.33442 48.7045 9.42978 48.4344 9.68896 48.2364Z" fill="#D22427"/>
<path d="M10.3542 47.4084C10.4006 47.7633 10.1732 47.8431 9.91162 47.8868C9.96786 47.6347 10.1097 47.4675 10.3542 47.4084Z" fill="#D22427"/>
<path d="M16.2982 47.4721C16.2273 47.6444 16.0928 47.6881 15.9314 47.6778C16.0121 47.5287 16.1417 47.4746 16.2982 47.4721Z" fill="#D22427"/>
<path d="M15.0339 52.7811C15.1464 52.6705 15.2589 52.668 15.3689 52.7863C15.2564 52.7863 15.144 52.7837 15.0339 52.7811Z" fill="#D22427"/>
<path d="M9.29053 52.5371C9.36633 52.5937 9.44212 52.6503 9.51792 52.7069C9.39811 52.7146 9.31742 52.6657 9.29053 52.5371Z" fill="#D22427"/>
<path d="M14.4839 52.7629C14.5377 52.7063 14.589 52.7089 14.6379 52.768L14.5597 52.804L14.4839 52.7629Z" fill="#D22427"/>
<path d="M30.9565 13.009C28.2718 13.0116 25.5871 12.9987 22.9024 13.0296C22.3376 13.0373 22.1664 12.8418 22.1542 12.2682C22.1151 10.6221 21.9781 8.9631 23.4256 7.79022C23.8755 7.75164 24.2276 7.97799 24.5871 8.22234C25.7949 9.04026 27.015 9.01968 28.2327 8.23005C28.5897 8.02171 28.9491 7.81594 29.3061 7.6076C29.6337 7.64361 29.9394 7.67448 30.2377 7.9034C31.8514 9.12257 32.1546 11.1957 30.9541 13.0116L30.9565 13.009Z" fill="#1B8C8F"/>
<path d="M28.2131 6.63541C27.9099 6.76144 27.6067 6.8849 27.3036 7.01094C26.3377 6.2496 25.3719 5.48826 24.4061 4.72692C24.1665 3.04477 24.6775 2.07766 26.1568 1.41406C26.3842 1.49123 26.6043 1.59411 26.8365 1.64041C28.24 1.91305 28.9662 2.85443 28.9711 4.3411C28.9736 5.21304 28.4796 5.87664 28.2107 6.63541H28.2131Z" fill="#FAC21D"/>
<path d="M30.9563 13.0088C32.1569 11.1929 31.8512 9.11983 30.2399 7.90066C29.9416 7.67431 29.636 7.64345 29.3083 7.60487C29.9612 6.89754 30.8659 7.06473 31.6214 8.0807C32.6508 9.46449 32.4772 11.0978 32.4356 12.695C32.4283 12.9934 32.1862 13.0217 31.9662 13.0243C31.6312 13.0243 31.2938 13.014 30.9588 13.0063L30.9563 13.0088Z" fill="#334549"/>
<path d="M28.2131 6.63522C28.482 5.87646 28.9759 5.21543 28.9735 4.34092C28.9686 2.85425 28.24 1.91286 26.8389 1.64022C26.6066 1.59392 26.3841 1.49104 26.1592 1.41388C27.5578 0.930323 29.0444 1.63508 29.6116 3.0523C30.1765 4.45666 29.6239 5.87131 28.2131 6.63265V6.63522Z" fill="#D4800B"/>
<path d="M28.2326 8.23008C27.0149 9.01971 25.7948 9.04029 24.587 8.22236C24.2251 7.97801 23.8754 7.75167 23.4255 7.79025C23.9194 7.10864 24.4085 7.07006 25.0662 7.6385C25.988 8.43842 27.1494 8.17863 28.2326 8.23008Z" fill="#334549"/>
<path d="M24.406 4.72913C25.3718 5.49047 26.3376 6.2518 27.3034 7.01314C25.7361 7.09288 24.6823 6.26467 24.406 4.72913Z" fill="#D4800B"/>
<path d="M51.3241 23.4127C51.1114 23.3896 50.906 23.3433 50.8498 23.0809C50.8278 22.9703 50.9036 22.8983 51.0063 22.924C51.2557 22.9832 51.3094 23.1864 51.3168 23.4179L51.3217 23.4127H51.3241Z" fill="#D4800B"/>
<path d="M51.3191 23.4207C51.346 23.4335 51.3729 23.4464 51.3998 23.4593C51.3753 23.4438 51.3484 23.4284 51.324 23.4155L51.3191 23.4207Z" fill="#D4800B"/>
</svg>
