<svg width="54" height="54" viewBox="0 0 54 54" fill="none" xmlns="http://www.w3.org/2000/svg">
<path d="M36.4047 21.4324C39.4367 17.4914 37.701 11.4202 33.2552 10.1367C31.9997 9.77496 31.9541 9.81012 31.9469 11.1464C31.9373 12.8972 30.929 13.5754 29.4142 12.8269C27.0809 11.6739 25.0836 10.0387 23.3624 8.04429C22.2797 6.78836 22.3013 6.15538 23.4368 4.91201C25.1916 2.98794 27.3954 1.6868 29.5127 0.275139C30.2232 -0.197089 30.9722 -0.0287974 31.594 0.531345C32.3214 1.18694 32.1173 1.97817 31.726 2.83722C33.2 3.00552 34.5899 3.29689 35.9342 3.81433C41.0787 5.79116 44.6411 11.9929 43.9186 17.6747C43.6881 19.4883 43.2992 21.2441 42.4854 22.8667C42.1781 23.4771 42.3894 23.5097 42.9007 23.5223C44.7251 23.5725 46.5544 23.3364 48.3764 23.6806C51.562 24.2809 53.6121 26.4612 53.8089 29.822C54.0034 33.1653 54.1522 36.5513 53.7201 39.8669C53.1944 43.911 50.633 46.8047 46.3047 47.2568C44.8428 47.41 44.8212 47.3874 45.1188 48.902C45.2941 49.7887 45.5821 50.6503 45.7406 51.5395C45.8846 52.3408 45.9951 53.1923 45.1645 53.7273C44.3507 54.2523 43.6377 53.9433 42.9199 53.441C41.458 52.4186 40.4137 50.9994 39.6071 49.4245C38.6829 47.621 37.4994 46.8373 35.4469 47.1412C33.32 47.4577 31.1355 47.2794 29.0014 46.8725C27.1001 46.5108 25.8182 45.3327 25.1844 43.4413C25.0308 42.9866 24.8459 42.8811 24.4282 42.8862C22.9591 42.9113 21.4875 42.9289 20.0208 42.8862C19.4639 42.8711 19.1422 43.0972 18.8469 43.5493C17.9899 44.868 17.0921 46.1591 16.1102 47.3849C15.2556 48.4524 14.2138 49.1783 12.9343 49.5601C11.4315 50.0073 10.4737 49.1457 10.793 47.5306C11.0114 46.4329 11.3547 45.3628 11.6404 44.2777C11.962 43.0519 11.6788 42.645 10.4545 42.6701C8.0731 42.7179 5.82136 42.2155 3.71125 41.045C1.53633 39.8393 0.573699 37.7695 0.32884 35.3908C-0.124869 30.9925 -0.103265 26.5642 0.357646 22.1659C0.772946 18.2173 3.26955 16.0244 6.63756 14.7308C8.23635 14.1179 9.92155 14.0476 11.5996 14.0225C13.5776 13.9923 15.5581 13.9974 17.5386 14.0401C18.2444 14.0551 18.626 13.9069 18.8469 13.0906C19.3102 11.3926 21.1202 10.3175 22.6134 10.6943C23.9817 11.0384 24.5171 12.0833 24.0297 13.4624C23.9601 13.6583 23.8737 13.8492 23.7441 14.1757C24.7187 14.1757 25.6093 14.2435 26.4879 14.1657C31.3755 13.7311 35.0076 16.3987 36.4071 21.4324H36.4047ZM1.47632 28.0713C1.49072 28.0713 1.50512 28.0713 1.51712 28.0713C1.51712 29.1991 1.54833 30.3269 1.50753 31.4522C1.46672 32.5851 1.55073 33.7079 1.66836 34.8281C1.88441 36.8904 2.43415 38.7768 4.37382 39.8066C6.19105 40.7737 8.11391 41.2761 10.1688 41.1053C12.3965 40.9194 13.6448 42.4767 13.0255 44.7022C12.7758 45.6015 12.447 46.4781 12.2189 47.3799C12.0173 48.1786 12.3101 48.4348 13.0783 48.1962C14.1562 47.8621 14.7947 46.9855 15.4093 46.0913C16.2807 44.8203 17.0945 43.5041 18.1123 42.3486C18.6669 41.7207 19.3462 41.3916 20.1816 41.3941C22.3421 41.4042 24.5027 41.3389 26.6608 41.4092C27.9787 41.4519 29.2222 41.2082 30.4417 40.7636C33.3464 39.7037 34.95 37.6012 35.0772 34.6498C35.1444 33.0849 35.1228 31.5175 35.1564 29.9526C35.166 29.4955 35.1348 29.2569 34.5707 29.4252C33.1207 29.8597 31.6276 30.023 30.1224 29.8974C29.4743 29.8446 28.9941 29.8823 28.6509 30.5756C28.454 30.975 28.0507 31.2488 27.609 31.4271C25.5133 32.2836 23.4248 30.7866 23.4392 28.4455C23.4416 28.0185 23.6721 27.5689 23.1944 27.162C19.9248 24.3914 18.2588 20.7944 18.2636 16.3861C18.2636 15.8838 18.1171 15.7758 17.6634 15.7481C14.7851 15.5748 11.9068 15.6753 9.02613 15.6527C5.43967 15.6225 1.32988 18.9784 1.46431 23.5575C1.50992 25.0596 1.47151 26.5642 1.47151 28.0688L1.47632 28.0713ZM26.3535 42.9113C27.417 44.7173 28.7925 45.5889 30.6217 45.7446C32.7174 45.923 34.8156 45.8602 36.9137 45.8803C37.4274 45.8853 37.9099 45.9682 38.3972 46.1717C39.5783 46.669 40.0776 47.8144 40.769 48.7765C41.4844 49.7737 42.0101 50.9366 43.0207 51.6776C43.2416 51.8409 43.4192 52.2403 43.7745 52.0243C44.1514 51.7957 44.2594 51.3938 44.1826 50.9592C44.0722 50.3438 43.9305 49.736 43.8105 49.1206C43.3784 46.9076 44.0962 46.0461 46.2711 45.8351C48.8109 45.5889 50.8538 44.441 51.9077 41.8463C52.3566 40.7436 52.6446 39.6007 52.6302 38.3899C52.5966 35.853 52.5774 33.316 52.5294 30.779C52.4646 27.265 50.2201 25.0143 46.8569 25.0395C45.2077 25.052 43.5561 25.0571 41.9069 25.0169C41.3787 25.0043 41.0042 25.1676 40.6394 25.5594C39.7151 26.5516 38.6853 27.4257 37.497 28.0436C36.7984 28.4053 36.628 28.8926 36.628 29.6738C36.6328 31.8767 36.8584 34.1022 36.2511 36.2649C35.651 38.4075 34.4771 40.0704 32.5998 41.2359C30.7154 42.4064 28.7301 43.0042 26.3535 42.9063V42.9113ZM30.2761 1.75461C29.3686 2.34741 28.6581 2.80708 27.9523 3.27177C26.8864 3.9776 25.895 4.78391 24.9636 5.67562C24.0105 6.58993 24.0129 6.57988 25.0068 7.35855C25.3189 7.6022 25.6069 7.87851 25.8902 8.15481C26.9008 9.13946 27.9331 10.0814 29.1766 10.7495C30.1416 11.2695 30.132 11.2896 30.1752 10.1869C30.2328 8.69486 30.7058 8.2377 32.1269 8.29799C33.2696 8.34571 34.2682 8.81291 35.2213 9.43334C38.5172 11.581 40.2649 16.258 39.0742 19.7646C37.9435 23.0953 34.4915 25.5268 30.9914 25.5845C26.8312 25.6549 23.6409 22.6055 22.419 19.3074C21.7252 17.4361 21.9629 15.5698 22.5054 13.701C22.6494 13.2061 22.9519 12.5531 22.2965 12.1989C21.5956 11.8196 21.0506 12.2416 20.7194 12.852C20.3233 13.5804 19.9632 14.3365 19.8239 15.188C19.1278 19.4707 21.113 24.0297 24.8051 26.4486C30.9746 30.4902 40.7042 28.0537 42.4926 18.4986C43.3688 13.8215 41.65 10.0588 38.1716 7.09481C36.2607 5.46713 34.0066 4.84419 31.6252 4.51765C29.9304 4.28656 29.5607 3.5958 30.2737 1.75461H30.2761ZM26.2671 15.6627C25.5781 15.6627 24.8868 15.7004 24.2026 15.6502C23.6865 15.6125 23.4008 15.7381 23.4008 16.3233C23.4008 16.6348 23.3432 16.9463 23.36 17.2552C23.6481 22.4548 30.2617 25.891 34.5155 23.0626C34.8756 22.824 34.9668 22.5301 34.9284 22.1182C34.6715 19.325 32.427 16.6524 29.8319 15.9692C28.6485 15.6577 27.4626 15.6728 26.2671 15.6652V15.6627ZM24.9348 28.5485C24.7955 29.282 25.1412 29.7015 25.6261 29.9878C26.1471 30.2968 26.7136 30.3244 27.2489 29.9979C27.3954 29.9099 27.5778 29.7517 27.597 29.606C27.6258 29.3774 27.3762 29.3699 27.2081 29.3146C26.4687 29.0685 25.7342 28.8173 24.9324 28.546L24.9348 28.5485Z" fill="#1D1917"/>
<path d="M1.47391 28.0713C1.47391 26.5667 1.51232 25.0621 1.46671 23.56C1.32987 18.9784 5.43966 15.6251 9.02853 15.6552C11.9068 15.6804 14.7875 15.5799 17.6658 15.7507C18.1195 15.7783 18.266 15.8863 18.266 16.3887C18.2588 20.797 19.9272 24.394 23.1967 27.1645C23.6769 27.5715 23.444 28.0211 23.4416 28.4481C23.4296 30.7917 25.5157 32.2887 27.6114 31.4297C28.0507 31.2488 28.454 30.975 28.6533 30.5781C28.9965 29.8874 29.4767 29.8472 30.1248 29.8999C31.6276 30.023 33.1231 29.8598 34.5731 29.4277C35.1372 29.2594 35.1684 29.498 35.1588 29.9552C35.1252 31.5201 35.1468 33.0875 35.0796 34.6524C34.9548 37.6063 33.3512 39.7062 30.4441 40.7662C29.2246 41.2108 27.9811 41.4545 26.6632 41.4117C24.5051 41.3414 22.3445 41.4042 20.184 41.3967C19.3486 41.3942 18.6693 41.7232 18.1147 42.3512C17.0969 43.5066 16.2831 44.8228 15.4117 46.0938C14.7971 46.9881 14.1586 47.8647 13.0807 48.1988C12.3125 48.4374 12.0196 48.1812 12.2213 47.3824C12.4494 46.4782 12.7782 45.6015 13.0279 44.7048C13.6472 42.4768 12.3989 40.9219 10.1712 41.1078C8.11871 41.2786 6.19344 40.7763 4.37621 39.8092C2.43654 38.7768 1.88681 36.8929 1.67076 34.8307C1.55313 33.7104 1.4691 32.5876 1.50991 31.4548C1.55072 30.3295 1.51952 29.2016 1.51952 28.0738C1.50512 28.0738 1.49071 28.0738 1.47871 28.0738L1.47391 28.0713ZM9.53985 31.6306C11.4555 31.6306 12.6846 30.3496 12.687 28.3552C12.6894 26.3482 11.6236 25.4088 9.34541 25.4113C7.54017 25.4113 6.59914 26.5893 6.56794 28.8801C6.54633 30.5179 7.75142 31.6331 9.53745 31.6331L9.53985 31.6306ZM18.0235 31.6407C19.7543 31.6407 21.1707 30.1135 21.1562 28.2647C21.1442 26.4537 19.9128 25.4138 17.7786 25.4088C16.1102 25.4037 15.09 26.5843 15.0828 28.5335C15.0756 30.4726 16.1823 31.6432 18.0235 31.6432V31.6407Z" fill="#FBB646"/>
<path d="M26.3535 42.9113C28.7301 43.0067 30.7178 42.4089 32.5998 41.2409C34.4771 40.0754 35.651 38.4101 36.2511 36.27C36.8584 34.1098 36.6328 31.8818 36.628 29.6789C36.628 28.8977 36.7984 28.4104 37.497 28.0487C38.6853 27.4308 39.7127 26.5566 40.6394 25.5645C41.0018 25.1751 41.3787 25.0093 41.9069 25.0219C43.5561 25.0621 45.2053 25.0571 46.8569 25.0445C50.2225 25.0194 52.4646 27.27 52.5294 30.7841C52.575 33.3211 52.5966 35.858 52.6302 38.395C52.6447 39.6057 52.3566 40.7486 51.9077 41.8513C50.8538 44.4485 48.8109 45.5965 46.2711 45.8401C44.0962 46.0511 43.3784 46.9102 43.8105 49.1256C43.9306 49.7385 44.0722 50.3489 44.1826 50.9643C44.2594 51.3988 44.1514 51.8007 43.7745 52.0293C43.4216 52.2453 43.2416 51.8434 43.0207 51.6827C42.0101 50.9417 41.4868 49.7787 40.769 48.7815C40.0776 47.8194 39.5807 46.674 38.3972 46.1767C37.9099 45.9707 37.4274 45.8903 36.9137 45.8853C34.8156 45.8652 32.7174 45.928 30.6217 45.7497C28.7925 45.594 27.417 44.7223 26.3535 42.9163V42.9113ZM40.1592 32.0099C38.5941 31.9546 37.5642 33.2105 37.5186 35.2275C37.4898 36.5086 38.8557 37.752 40.3897 37.8374C41.6404 37.9077 43.0591 36.3604 43.0975 34.8859C43.1432 33.1151 42.0845 32.0777 40.1616 32.0074L40.1592 32.0099ZM47.2025 32.0551C45.2773 31.942 44.7035 33.3236 44.5667 34.9965C44.4251 36.712 45.5005 37.7846 47.2073 37.8147C48.6093 37.8399 49.9224 36.3981 49.9488 34.8056C49.9752 33.1829 48.895 32.1003 47.2049 32.0551H47.2025Z" fill="#F68A27"/>
<path d="M30.2762 1.75464C29.5632 3.59582 29.9305 4.28658 31.6277 4.51767C34.0091 4.84421 36.2632 5.46715 38.1741 7.09483C41.6525 10.0588 43.3713 13.8216 42.4951 18.4986C40.7067 28.0537 30.9772 30.4927 24.8077 26.4486C21.1156 24.0297 19.1279 19.4707 19.8265 15.188C19.9657 14.3365 20.3258 13.5804 20.7219 12.852C21.0532 12.2441 21.5957 11.8221 22.2991 12.1989C22.9544 12.5531 22.652 13.2062 22.5079 13.701C21.9654 15.5698 21.7277 17.4386 22.4215 19.3074C23.6434 22.603 26.8314 25.6549 30.994 25.5846C34.494 25.5243 37.946 23.0953 39.0767 19.7646C40.2674 16.2581 38.5198 11.5785 35.2238 9.43336C34.2708 8.81294 33.2721 8.34574 32.1294 8.29801C30.7107 8.23773 30.2354 8.69739 30.1778 10.1869C30.1346 11.2921 30.1466 11.2695 29.1791 10.7496C27.938 10.0814 26.9034 9.13948 25.8927 8.15483C25.6095 7.87853 25.319 7.60222 25.0093 7.35857C24.0155 6.58241 24.0131 6.58995 24.9661 5.67564C25.8951 4.78393 26.8866 3.97763 27.9548 3.2718C28.6606 2.80459 29.3712 2.34744 30.2786 1.75464H30.2762Z" fill="#378BC1"/>
<path d="M26.2671 15.6627C27.4626 15.6702 28.6485 15.6551 29.832 15.9666C32.427 16.6523 34.6739 19.3224 34.9284 22.1156C34.9668 22.5276 34.8732 22.8215 34.5155 23.0601C30.2617 25.8884 23.6481 22.4547 23.36 17.2527C23.3432 16.9437 23.4008 16.6323 23.4008 16.3208C23.4008 15.7355 23.6865 15.6099 24.2026 15.6476C24.8868 15.7004 25.5781 15.6602 26.2671 15.6602V15.6627Z" fill="#FBB646"/>
<path d="M24.9349 28.5485C25.7343 28.8197 26.4713 29.0709 27.2106 29.3171C27.3787 29.3723 27.6284 29.3799 27.5995 29.6085C27.5803 29.7542 27.3979 29.9124 27.2515 30.0003C26.7161 30.3243 26.1472 30.2967 25.6287 29.9903C25.1413 29.7014 24.7957 29.2819 24.9373 28.551L24.9349 28.5485Z" fill="#BDD47F"/>
<path d="M9.54207 31.6305C7.75604 31.6305 6.55095 30.5153 6.57255 28.8776C6.60136 26.5867 7.54479 25.4087 9.35002 25.4087C11.6282 25.4087 12.694 26.3456 12.6916 28.3526C12.6892 30.347 11.4601 31.628 9.54447 31.628L9.54207 31.6305ZM11.0712 28.1717C11.0696 27.3897 10.4575 27.0046 9.2348 27.0163C8.4162 27.0238 7.96969 27.5488 7.9889 28.4832C8.0105 29.5633 8.53863 30.1259 9.52286 30.1184C10.5407 30.1084 11.076 29.4377 11.0712 28.1717Z" fill="#1E1811"/>
<path d="M18.0233 31.6407C16.182 31.6407 15.0754 30.4702 15.0826 28.531C15.0898 26.5818 16.1076 25.4012 17.7784 25.4063C19.9125 25.4138 21.144 26.4537 21.156 28.2622C21.1704 30.1135 19.7541 31.6382 18.0233 31.6382V31.6407ZM19.5452 28.2045C19.5188 27.157 19.298 26.931 18.3281 26.9536C17.1254 26.9812 16.5109 27.5037 16.5061 28.5009C16.5013 29.4177 17.099 30.0833 17.9176 30.0758C18.9979 30.0657 19.574 29.4026 19.5452 28.2045Z" fill="#1E1811"/>
<path d="M40.1591 32.0073C42.082 32.0751 43.1406 33.1125 43.095 34.8859C43.0566 36.3629 41.6379 37.9077 40.3872 37.8373C38.8532 37.7494 37.4873 36.5086 37.5161 35.2275C37.5641 33.208 38.5939 31.9546 40.1567 32.0098L40.1591 32.0073ZM40.2167 33.5119C39.4341 33.4893 38.9972 33.9188 38.9636 34.7402C38.9252 35.6671 39.4941 36.3352 40.3343 36.3553C41.0521 36.3704 41.6067 35.7249 41.6691 34.896C41.7243 34.1776 41.1217 33.537 40.2191 33.5119H40.2167Z" fill="#1E1811"/>
<path d="M47.2 32.0525C48.8924 32.0977 49.9703 33.1803 49.9439 34.803C49.9175 36.398 48.6044 37.8398 47.2024 37.8122C45.4956 37.782 44.4202 36.7095 44.5618 34.9939C44.6986 33.321 45.2724 31.9395 47.1976 32.0525H47.2ZM46.1126 35.5716C46.295 36.3729 46.8783 36.408 47.4977 36.3553C48.1555 36.3 48.4195 35.7977 48.4843 35.2275C48.5612 34.5468 48.5251 33.8485 47.6945 33.6149C47.164 33.3561 46.6143 33.3637 46.2422 33.8334C45.8437 34.3358 45.8101 34.9637 46.1102 35.5716H46.1126Z" fill="#1E1811"/>
<path d="M11.0716 28.1717C11.074 29.4377 10.541 30.1083 9.52319 30.1184C8.53656 30.1284 8.00843 29.5658 7.98923 28.4832C7.97242 27.5488 8.41893 27.0238 9.23513 27.0163C10.4578 27.0045 11.07 27.3897 11.0716 28.1717Z" fill="#BDD47F"/>
<path d="M19.5455 28.2044C19.5743 29.4001 18.9982 30.0657 17.9179 30.0757C17.0993 30.0833 16.5016 29.4176 16.5064 28.5008C16.5112 27.5036 17.1257 26.9811 18.3284 26.9535C19.2982 26.9309 19.5191 27.157 19.5455 28.2044Z" fill="#BDD47F"/>
<path d="M40.2166 33.512C41.1192 33.5371 41.7218 34.1751 41.6665 34.896C41.6041 35.7249 41.0496 36.373 40.3318 36.3554C39.494 36.3378 38.9251 35.6671 38.9611 34.7403C38.9947 33.9164 39.4316 33.4894 40.2142 33.512H40.2166Z" fill="#BDD47F"/>
<path d="M47.6972 33.615C48.5278 33.8486 48.5638 34.5469 48.487 35.2276C48.4222 35.8003 48.1581 36.3002 47.5004 36.3554C46.8786 36.4082 46.2977 36.373 46.1152 35.5717C46.8426 35.0945 47.0515 34.1601 47.6996 33.615H47.6972Z" fill="#BDD47F"/>
<path d="M47.6971 33.6149C47.049 34.1625 46.8401 35.0969 46.1127 35.5716C45.8126 34.9638 45.8463 34.3358 46.2448 33.8334C46.6169 33.3637 47.1666 33.3562 47.6971 33.6149Z" fill="#FBB646"/>
</svg>
