<svg width="142" height="133" viewBox="0 0 142 133" fill="none" xmlns="http://www.w3.org/2000/svg">
<mask id="mask0_32378_56465" style="mask-type:luminance" maskUnits="userSpaceOnUse" x="64" y="38" width="56" height="68">
<path d="M119.737 56.986L97.214 38.6025L64.165 87.5133L86.6882 105.897L119.737 56.986Z" fill="white"/>
</mask>
<g mask="url(#mask0_32378_56465)">
<path d="M118.263 56.9458C118.106 60.2098 115.642 63.4416 109.422 68.4427C102.637 73.9346 91.1919 81.0118 82.7951 84.8862C75.9607 88.0404 67.4524 90.0788 66.0426 88.9281C64.6914 87.8252 64.8247 86.387 66.4467 84.4675C67.9516 82.6541 72.022 80.2857 84.9636 73.6826C91.5591 70.3334 105.485 62.1347 110.89 58.4117C113.822 56.4145 116.258 55.358 117.506 55.5801C118.162 55.7157 118.298 55.9277 118.263 56.9458Z" fill="#F7670E"/>
</g>
<path d="M60.5974 41.6097C60.8437 42.0622 61.092 43.3181 61.1306 44.4071C61.2806 46.6898 57.9187 65.3695 56.5942 69.8218C55.4431 73.6131 53.8929 75.9698 52.3914 76.1564C50.836 76.3517 49.6338 75.2198 49.4058 73.3255C48.8446 69.1501 52.1179 50.3983 54.532 44.0657C55.9691 40.2583 59.1166 38.9976 60.5994 41.6113L60.5974 41.6097Z" fill="#F7670E"/>
<mask id="mask1_32378_56465" style="mask-type:luminance" maskUnits="userSpaceOnUse" x="5" y="36" width="33" height="36">
<path d="M37.3312 52.8221L17.8312 36.8992L5.49976 55.157L24.9997 71.08L37.3312 52.8221Z" fill="white"/>
</mask>
<g mask="url(#mask1_32378_56465)">
<path d="M23.1037 42.6997C24.0254 44.6935 24.7672 47.7813 26.643 57.8971C27.7847 64.091 27.8866 66.7532 27.0001 68.0656C26.1363 69.3446 24.1191 69.5851 22.8654 68.5613C21.4638 67.4168 19.4434 63.1363 17.3164 56.6839C14.0871 46.998 13.6926 43.0563 15.7243 40.0482C16.5671 38.8004 16.9949 38.5067 18.0428 38.467C19.8082 38.3217 21.8469 40.0348 23.1037 42.6997Z" fill="#F7670E"/>
</g>
<path d="M106.726 115.474C107.362 118.454 104.431 120.546 98.2782 121.575C91.3757 122.696 84.1491 121.998 81.0057 119.942C78.0305 117.977 78.6659 114.47 82.2613 113.224C84.6011 112.409 86.7935 112.284 92.3326 112.566C94.9334 112.72 98.6514 112.777 100.595 112.75C104.904 112.687 106.276 113.298 106.726 115.474Z" fill="#F7670E"/>
</svg>
