<svg width="54" height="54" viewBox="0 0 54 54" fill="none" xmlns="http://www.w3.org/2000/svg">
<path d="M32.7522 3.37761C35.4031 1.00158 38.4922 -0.0758895 41.9469 0.203643C46.3989 0.564494 49.839 2.84396 51.9888 6.90227C54.0054 10.7065 54.4557 14.8283 53.5624 19.1432C52.2164 25.6513 49.2508 31.341 45.6412 36.6903C41.0463 43.4982 35.161 48.9058 28.5519 53.4953C27.6126 54.1484 26.8113 54.1407 25.8647 53.6274C21.6354 51.3378 17.9241 48.3341 14.5735 44.8094C9.96896 39.9659 6.15843 34.5252 3.40343 28.3195C1.67731 24.429 0.394236 20.3732 0.055308 16.0582C-0.240044 12.2922 0.650844 8.82341 2.6481 5.69773C4.60662 2.63303 7.64972 1.30907 10.8841 0.422191C14.1935 -0.48502 17.3116 0.0486298 20.0787 2.22898C22.4875 4.12727 24.4799 6.4728 26.3707 8.91235C26.5982 9.20459 26.8161 9.507 27.1091 9.90343C28.213 7.7307 29.6946 5.9671 31.4667 4.46779C31.5151 4.61518 31.7015 4.82356 31.7064 4.81085C31.9364 4.234 32.9967 4.31532 32.7522 3.37507V3.37761ZM2.04287 14.2692C2.08887 15.0926 2.08645 15.888 2.18571 16.6707C2.76431 21.2906 4.36211 25.5725 6.44894 29.6257C9.52835 35.6077 13.4914 40.9239 18.3381 45.4447C20.7517 47.6962 23.5213 49.4903 26.1334 51.4852C26.8839 52.0595 27.477 51.9502 28.1549 51.4039C31.5999 48.6314 35.1804 46.0622 38.209 42.7256C42.0873 38.4564 45.5032 33.9026 47.9846 28.5762C49.5316 25.2574 50.8946 21.9055 51.5966 18.2767C52.306 14.6047 51.8871 11.052 50.3063 7.73069C48.5995 4.14251 45.5371 2.49835 41.8863 1.90371C38.4607 1.34719 35.5024 2.39416 32.9604 4.81847C30.7235 6.95309 28.9877 9.49175 27.4843 12.2235C26.9832 13.1358 26.913 13.1485 26.4264 12.2591C24.7777 9.25542 22.611 6.74217 20.115 4.48303C15.4838 0.290043 9.59371 1.26333 5.68877 4.78036C3.02334 7.1818 2.1494 10.6531 2.03804 14.2718L2.04287 14.2692Z" fill="#090606"/>
<path d="M32.7523 3.37769C32.9968 4.31793 31.9365 4.23662 31.7065 4.81347C31.7016 4.82618 31.5152 4.6178 31.4668 4.47041C31.8662 4.07144 32.2536 3.65214 32.7523 3.38023V3.37769Z" fill="#1D1917"/>
<path d="M2.04297 14.2717C2.15433 10.653 3.02587 7.18176 5.69372 4.78032C9.59623 1.26329 15.4888 0.290004 20.12 4.48299C22.6159 6.74213 24.7851 9.25538 26.4313 12.2591C26.9179 13.1485 26.9881 13.1333 27.4892 12.2235C28.9926 9.49171 30.7284 6.95305 32.9654 4.81843C35.5097 2.39158 38.4681 1.34715 41.8913 1.90367C45.5444 2.49577 48.6045 4.14247 50.3112 7.73065C51.8921 11.052 52.3133 14.6046 51.6016 18.2767C50.8995 21.9055 49.5365 25.2599 47.9896 28.5762C45.5057 33.9025 42.0922 38.4564 38.2139 42.7256C35.1829 46.0622 31.6048 48.6314 28.1598 51.4038C27.4795 51.9502 26.8888 52.0594 26.1384 51.4851C23.5262 49.4903 20.7542 47.6962 18.343 45.4447C13.4939 40.9213 9.53329 35.6051 6.45389 29.6257C4.36706 25.5725 2.76926 21.2905 2.19066 16.6706C2.0914 15.8879 2.09381 15.0925 2.04782 14.2692L2.04297 14.2717ZM37.1051 41.1907C34.7302 42.7027 33.3043 45.2871 31.0601 46.9465C33.8708 45.9478 35.2216 43.2567 37.1051 41.1907ZM48.0961 24.6093C46.8348 26.7033 45.4791 28.7413 44.8642 31.1809C46.5709 29.336 47.3504 26.9778 48.0961 24.6093ZM41.5475 35.6763C41.6056 35.7398 41.6661 35.8034 41.7242 35.8694C42.7216 35.3053 43.4697 34.4616 44.0168 33.3968C44.0604 33.313 44.0338 33.1173 43.9708 33.0589C43.8232 32.9242 43.7021 33.069 43.6053 33.1859C42.9177 34.0144 42.235 34.8479 41.5499 35.6788L41.5475 35.6763Z" fill="#E32719"/>
<path d="M37.1026 41.1882C35.2192 43.2542 33.8707 45.9479 31.0576 46.9441C33.2994 45.2821 34.7253 42.6977 37.1026 41.1882Z" fill="#1E1811"/>
<path d="M48.0937 24.6094C47.3481 26.9778 46.571 29.336 44.8618 31.1809C45.4767 28.7439 46.83 26.7033 48.0937 24.6094Z" fill="#1E1811"/>
<path d="M41.5449 35.6763C42.23 34.8454 42.9127 34.0144 43.6003 33.1834C43.6971 33.0665 43.8181 32.9217 43.9658 33.0564C44.0312 33.1148 44.0554 33.3105 44.0118 33.3943C43.4671 34.4566 42.719 35.3028 41.7192 35.8669C41.6611 35.8034 41.6006 35.7399 41.5425 35.6738L41.5449 35.6763Z" fill="#1E1811"/>
</svg>
