<svg width="158" height="35" viewBox="0 0 158 35" fill="none" xmlns="http://www.w3.org/2000/svg">
<path d="M4.64022 1.20312H30.9135C32.8118 1.20312 34.3506 2.76583 34.3506 4.6935V29.7128C34.3506 31.6404 32.8118 33.2031 30.9135 33.2031H4.64022C2.74198 33.2031 1.20312 31.6404 1.20312 29.7128V4.6935C1.20312 2.76583 2.74198 1.20312 4.64022 1.20312Z" stroke="black" stroke-width="2.40609" stroke-miterlimit="10"/>
<path d="M27.9129 23.7241C27.9129 25.874 26.2167 27.6167 24.1241 27.6167C22.0351 27.6167 20.3411 25.88 20.3352 23.7352V19.8315H24.1241C26.2167 19.8315 27.9129 21.5742 27.9129 23.7241Z" stroke="black" stroke-width="2.40609" stroke-miterlimit="10"/>
<path d="M15.2191 19.8315V23.7352C15.2132 25.88 13.5192 27.6166 11.4302 27.6166C9.3376 27.6166 7.64136 25.874 7.64136 23.7241C7.64136 21.578 9.33179 19.8375 11.4194 19.8315H15.2191Z" stroke="black" stroke-width="2.40609" stroke-miterlimit="10"/>
<path d="M27.9129 10.6821C27.9129 12.832 26.2167 14.5747 24.1241 14.5747H20.3352V10.6821C20.3352 8.53222 22.0314 6.78955 24.1241 6.78955C26.2167 6.78955 27.9129 8.53222 27.9129 10.6821Z" stroke="black" stroke-width="2.40609" stroke-miterlimit="10"/>
<path d="M15.2191 10.6821V14.5747H11.4194C9.33178 14.5687 7.64136 12.8282 7.64136 10.6821C7.64136 8.53222 9.3376 6.78955 11.4302 6.78955C13.5228 6.78955 15.2191 8.53222 15.2191 10.6821Z" stroke="black" stroke-width="2.40609" stroke-miterlimit="10"/>
<path d="M20.3352 14.5752H15.2188V19.8317H20.3352V14.5752Z" stroke="black" stroke-width="2.40609" stroke-miterlimit="10"/>
<path fill-rule="evenodd" clip-rule="evenodd" d="M155.549 20.2949L157.927 20.5936C157.552 22.0048 156.857 23.1 155.843 23.8792C154.828 24.6584 153.532 25.048 151.955 25.048C149.968 25.048 148.393 24.4268 147.229 23.1844C146.066 21.942 145.484 20.1996 145.484 17.9573C145.484 15.637 146.072 13.8362 147.249 12.5548C148.425 11.2735 149.951 10.6328 151.827 10.6328C153.643 10.6328 155.126 11.2605 156.277 12.5159C157.428 13.7712 158.004 15.5374 158.004 17.8144C158.004 17.9529 158 18.1607 157.991 18.4378H147.862C147.948 19.9529 148.37 21.113 149.128 21.9182C149.887 22.7234 150.834 23.126 151.968 23.126C152.812 23.126 153.532 22.9009 154.129 22.4507C154.726 22.0005 155.199 21.2819 155.549 20.2949ZM147.99 16.5158H155.574C155.472 15.3556 155.182 14.4855 154.704 13.9054C153.971 13.005 153.021 12.5548 151.853 12.5548C150.795 12.5548 149.906 12.9141 149.186 13.6327C148.466 14.3513 148.067 15.3123 147.99 16.5158Z" fill="black"/>
<path fill-rule="evenodd" clip-rule="evenodd" d="M131.806 25.8791L134.044 26.2168C134.137 26.918 134.397 27.4289 134.824 27.7492C135.395 28.1821 136.175 28.3985 137.164 28.3985C138.23 28.3985 139.053 28.1821 139.632 27.7492C140.212 27.3163 140.604 26.7103 140.809 25.9311C140.928 25.4549 140.984 24.4549 140.975 22.9311C139.969 24.1346 138.716 24.7363 137.215 24.7363C135.348 24.7363 133.903 24.0523 132.88 22.6844C131.857 21.3165 131.345 19.6758 131.345 17.7625C131.345 16.4465 131.58 15.2322 132.049 14.1197C132.518 13.0072 133.197 12.1479 134.088 11.5419C134.979 10.9358 136.026 10.6328 137.228 10.6328C138.831 10.6328 140.153 11.2908 141.193 12.6068V10.9445H143.316V22.8662C143.316 25.0133 143.1 26.5349 142.67 27.431C142.239 28.3271 141.557 29.0349 140.624 29.5543C139.69 30.0738 138.541 30.3335 137.177 30.3335C135.557 30.3335 134.248 29.9634 133.251 29.2232C132.253 28.4829 131.772 27.3683 131.806 25.8791L131.806 25.8791ZM133.711 17.5936C133.711 19.4031 134.065 20.7234 134.773 21.5546C135.48 22.3857 136.367 22.8013 137.433 22.8013C138.49 22.8013 139.377 22.3879 140.093 21.561C140.809 20.7342 141.167 19.4377 141.167 17.6716C141.167 15.9833 140.798 14.7106 140.061 13.8535C139.323 12.9964 138.435 12.5678 137.394 12.5678C136.371 12.5678 135.502 12.9899 134.785 13.834C134.069 14.6781 133.711 15.9313 133.711 17.5936Z" fill="black"/>
<path fill-rule="evenodd" clip-rule="evenodd" d="M127.503 20.2949L129.882 20.5936C129.507 22.0048 128.812 23.1 127.797 23.8792C126.783 24.6584 125.487 25.048 123.909 25.048C121.923 25.048 120.348 24.4268 119.184 23.1844C118.02 21.942 117.438 20.1996 117.438 17.9573C117.438 15.637 118.027 13.8362 119.203 12.5548C120.38 11.2735 121.906 10.6328 123.782 10.6328C125.598 10.6328 127.081 11.2605 128.232 12.5159C129.383 13.7712 129.959 15.5374 129.959 17.8144C129.959 17.9529 129.954 18.1607 129.946 18.4378H119.817C119.902 19.9529 120.324 21.113 121.083 21.9182C121.842 22.7234 122.788 23.126 123.922 23.126C124.766 23.126 125.487 22.9009 126.084 22.4507C126.68 22.0005 127.154 21.2819 127.503 20.2949ZM119.945 16.5158H127.529C127.426 15.3556 127.137 14.4855 126.659 13.9054C125.926 13.005 124.975 12.5548 123.807 12.5548C122.75 12.5548 121.861 12.9141 121.141 13.6327C120.42 14.3513 120.022 15.3123 119.945 16.5158Z" fill="black"/>
<path d="M115.181 5.69775H112.879V24.7362H115.181V5.69775Z" fill="black"/>
<path d="M109.907 5.69775H107.605V24.7362H109.907V5.69775Z" fill="black"/>
<path fill-rule="evenodd" clip-rule="evenodd" d="M92.7759 17.8404C92.7759 15.2864 93.475 13.3946 94.8733 12.1652C96.0413 11.1436 97.4651 10.6328 99.1448 10.6328C101.012 10.6328 102.538 11.254 103.723 12.4964C104.908 13.7388 105.501 15.4552 105.501 17.6456C105.501 19.4204 105.239 20.8165 104.714 21.8338C104.19 22.8511 103.427 23.6411 102.425 24.2038C101.423 24.7666 100.33 25.048 99.1448 25.048C97.2435 25.048 95.7067 24.4289 94.5344 23.1909C93.362 21.9528 92.7759 20.1693 92.7759 17.8404L92.7759 17.8404ZM95.1418 17.8404C95.1418 19.6066 95.5212 20.929 96.28 21.8078C97.0389 22.6866 97.9938 23.126 99.1448 23.126C100.287 23.126 101.238 22.6844 101.997 21.8013C102.756 20.9182 103.135 19.5719 103.135 17.7625C103.135 16.0569 102.753 14.7647 101.99 13.886C101.227 13.0072 100.279 12.5678 99.1448 12.5678C97.9938 12.5678 97.0389 13.005 96.28 13.8795C95.5212 14.7539 95.1418 16.0742 95.1418 17.8404Z" fill="black"/>
<path fill-rule="evenodd" clip-rule="evenodd" d="M88.934 18.061L91.415 18.6973C90.8949 20.7665 89.9592 22.3444 88.6078 23.431C87.2565 24.5175 85.6046 25.0608 83.6521 25.0608C81.6315 25.0608 79.9881 24.643 78.722 23.8076C77.4559 22.9721 76.4925 21.7622 75.8317 20.1778C75.171 18.5934 74.8406 16.8922 74.8406 15.0741C74.8406 13.0914 75.2136 11.3621 75.9596 9.8859C76.7056 8.40975 77.7671 7.28857 79.144 6.52236C80.521 5.75616 82.0365 5.37305 83.6905 5.37305C85.5662 5.37305 87.1435 5.85788 88.4224 6.82755C89.7013 7.79722 90.5923 9.16082 91.0953 10.9183L88.6526 11.5027C88.2178 10.1175 87.5869 9.10886 86.7598 8.47685C85.9328 7.84483 84.8927 7.52883 83.6394 7.52883C82.1985 7.52883 80.9942 7.87947 80.0265 8.58075C79.0588 9.28203 78.3788 10.2236 77.9866 11.4053C77.5945 12.5871 77.3984 13.8057 77.3984 15.0611C77.3984 16.6801 77.6307 18.0935 78.0954 19.3012C78.56 20.509 79.2826 21.4115 80.2631 22.0089C81.2436 22.6063 82.305 22.905 83.4475 22.905C84.8372 22.905 86.0138 22.4981 86.9773 21.6843C87.9407 20.8704 88.5929 19.6627 88.934 18.061Z" fill="black"/>
<path fill-rule="evenodd" clip-rule="evenodd" d="M70.5375 20.2949L72.9163 20.5936C72.5411 22.0048 71.8463 23.1 70.8317 23.8792C69.8171 24.6584 68.5212 25.048 66.9438 25.048C64.9573 25.048 63.3821 24.4268 62.2183 23.1844C61.0545 21.942 60.4727 20.1996 60.4727 17.9573C60.4727 15.637 61.0609 13.8362 62.2375 12.5548C63.4141 11.2735 64.9403 10.6328 66.816 10.6328C68.632 10.6328 70.1155 11.2605 71.2665 12.5159C72.4175 13.7712 72.993 15.5374 72.993 17.8144C72.993 17.9529 72.9887 18.1607 72.9802 18.4378H62.8514C62.9367 19.9529 63.3587 21.113 64.1175 21.9182C64.8763 22.7234 65.8227 23.126 66.9566 23.126C67.8007 23.126 68.5212 22.9009 69.118 22.4507C69.7148 22.0005 70.188 21.2819 70.5375 20.2949ZM62.9793 16.5158H70.5631C70.4608 15.3556 70.1709 14.4855 69.6935 13.9054C68.9602 13.005 68.0096 12.5548 66.8415 12.5548C65.7843 12.5548 64.8955 12.9141 64.1751 13.6327C63.4546 14.3513 63.056 15.3123 62.9793 16.5158Z" fill="black"/>
<path fill-rule="evenodd" clip-rule="evenodd" d="M47.218 24.7362V5.69775H49.52V12.5287C50.5943 11.2647 51.9499 10.6327 53.5869 10.6327C54.593 10.6327 55.4669 10.834 56.2086 11.2366C56.9504 11.6391 57.4811 12.1954 57.8008 12.9053C58.1206 13.6153 58.2804 14.6455 58.2804 15.9962V24.7362H55.9784V15.9962C55.9784 14.8274 55.729 13.9767 55.2303 13.4443C54.7315 12.9118 54.026 12.6456 53.1137 12.6456C52.4316 12.6456 51.7901 12.8253 51.189 13.1845C50.5879 13.5438 50.1595 14.0308 49.9037 14.6455C49.6479 15.2602 49.52 16.1087 49.52 17.1909V24.7362H47.218Z" fill="black"/>
<path fill-rule="evenodd" clip-rule="evenodd" d="M45.5109 22.6455L45.8434 24.7103C45.1954 24.8489 44.6157 24.9181 44.1041 24.9181C43.2686 24.9181 42.6206 24.7839 42.1602 24.5155C41.6998 24.2472 41.3758 23.8943 41.1882 23.4571C41.0007 23.0199 40.9069 22.1 40.9069 20.6975V12.7626H39.2188V10.9445H40.9069V7.52902L43.1961 6.12646V10.9445H45.5109V12.7626H43.1961V20.8273C43.1961 21.494 43.2366 21.9225 43.3176 22.113C43.3986 22.3035 43.5307 22.455 43.7141 22.5675C43.8974 22.6801 44.1595 22.7364 44.5006 22.7364C44.7564 22.7364 45.0931 22.7061 45.5109 22.6455Z" fill="black"/>
</svg>
