<svg width="54" height="54" viewBox="0 0 54 54" fill="none" xmlns="http://www.w3.org/2000/svg">
<path d="M53.926 31.7077C54.0269 32.5411 54.0016 33.372 53.8906 34.2028C53.7519 34.2259 53.5602 34.2131 53.5955 34.4259C53.6056 34.49 53.7796 34.5285 53.878 34.5798C53.8326 39.0187 54.1782 43.4832 53.4542 47.8837C52.8765 51.402 51.0349 53.1381 47.4273 53.5817C44.077 53.992 40.6864 53.7971 37.321 53.6997C31.897 53.5433 26.4882 54.0382 21.0717 53.8869C17.1665 53.7766 13.2688 53.9715 9.36855 53.9997C8.01381 54.01 6.66917 53.8715 5.3548 53.4715C2.53685 52.6175 0.927313 50.6609 0.347073 47.8042C0.0796576 46.4912 0.0367698 45.145 0.0746115 43.8012C0.533758 43.4063 0.995429 43.4217 1.45962 43.7961C1.47728 44.5244 1.49746 45.2552 1.51512 45.9835C1.53531 46.081 1.55801 46.181 1.57819 46.2784C1.66901 46.7426 1.76488 47.2041 1.84813 47.6709C1.97174 48.3658 2.22655 48.4709 2.80679 48.0119C4.05556 47.0246 5.35227 46.1015 6.6288 45.1501C6.68178 45.1347 6.72467 45.1014 6.75494 45.0552C6.93406 44.8552 7.11318 44.6552 7.38564 44.5782C7.53953 44.5603 7.66315 44.5039 7.70603 44.3372C8.61423 43.5166 9.55776 42.7421 10.5845 42.0754C10.635 42.0369 10.6854 41.9985 10.7359 41.96C10.8974 41.8113 11.0487 41.6497 11.2228 41.5189C13.7481 39.5931 16.2482 37.6314 18.8214 35.7773C19.5984 35.2183 19.4925 34.9106 18.8567 34.4464C18.9072 34.1131 18.7634 34.0669 18.501 34.1977C17.9965 33.8182 17.4944 33.4386 16.9899 33.0617C16.9899 33.0617 16.6594 33.02 16.6594 32.8514C16.4576 32.7052 16.2482 32.5668 16.0539 32.4103C14.1644 30.882 12.126 29.5459 10.3726 27.8458C10.582 27.2431 10.7359 26.702 11.2859 27.6893C11.7324 28.4894 12.353 28.5202 12.7011 27.9047C12.9332 28.0073 13.1048 28.174 13.2234 28.3997C13.1805 28.5689 13.0064 28.7535 13.2435 28.8971C13.4807 29.0407 13.569 28.8587 13.6421 28.6715C15.7083 30.2306 17.8148 31.7359 19.8179 33.3771C20.5521 33.9797 21.0717 34.0182 21.7251 33.4309C22.2221 33.5335 22.6636 33.6387 22.1818 34.3028C22.0582 34.4746 22.1137 34.7798 22.0884 35.0234C21.8916 35.1927 21.6949 35.3645 21.4956 35.5337C21.4325 35.5517 21.3871 35.5901 21.3543 35.6466C21.2483 35.744 21.1424 35.844 21.0364 35.9415L20.9809 35.9979C20.5546 36.3851 20.1762 36.839 19.6312 37.0749C19.437 37.0749 19.2957 37.1493 19.2579 37.3621C18.5263 37.9186 17.7972 38.4725 17.0656 39.0289C16.7956 38.9956 16.6291 39.0956 16.6165 39.3905C16.4424 39.6829 16.1346 39.7931 15.8698 39.9649C15.673 39.9572 15.5216 40.0188 15.4737 40.2342C15.3425 40.506 15.1003 40.6214 14.8379 40.706C14.737 40.7753 14.6361 40.8445 14.5327 40.9163C14.4494 40.9779 14.3637 41.0394 14.2804 41.101C14.23 41.124 14.1921 41.1599 14.1669 41.2087C13.9726 41.3676 13.7784 41.5266 13.5841 41.6856C13.4176 41.6882 13.2789 41.7344 13.2259 41.919L13.2461 41.9036C13.1679 41.9523 13.0922 42.001 13.014 42.0498L12.9938 42.0626C12.9433 42.1036 12.8929 42.1446 12.8399 42.1857C11.2001 43.514 9.56028 44.8449 7.92047 46.1733C7.73126 46.1938 7.51681 46.3451 7.51681 46.3451C7.3932 46.3631 7.23932 46.4887 7.15607 46.5579C5.84422 47.6273 4.56517 48.7453 3.218 49.7711C2.77399 50.107 2.88499 50.2583 3.19025 50.5199C3.35676 50.6609 3.52578 50.7994 3.69481 50.9379C5.09748 51.8482 6.59853 52.3944 8.28879 52.4714C10.5013 52.5688 12.6885 52.1611 14.8909 52.2226C21.1449 52.3995 27.3964 52.2226 33.6478 52.2277C37.5077 52.2303 41.3675 52.097 45.2274 52.2149C46.8344 52.2636 48.4339 52.1867 49.9223 51.4584C50.2856 51.2815 50.7725 51.1379 50.8507 50.7148C50.9289 50.2814 50.4269 50.1455 50.1443 49.9224C47.735 48.0222 45.3586 46.081 43.0956 44.0038L42.8585 43.8217C42.808 43.7833 42.7601 43.7448 42.7097 43.7063C42.6819 43.6551 42.6415 43.6217 42.586 43.6012C41.8015 42.9986 41.0169 42.396 40.2323 41.7933C40.2171 41.5754 40.0733 41.5113 39.8867 41.4984C39.763 41.4266 39.6394 41.3548 39.5158 41.283C40.0027 40.965 40.4619 40.3752 41.0724 41.1112C41.085 41.1266 41.2969 40.9753 41.418 40.9009L41.4079 40.8958C41.4634 41.0266 41.5668 41.083 41.7031 41.0804C41.8393 41.0676 41.9326 41.124 41.9831 41.2523C42.0209 41.4292 42.1471 41.4907 42.3085 41.5087C42.576 41.7215 42.8408 41.9344 43.1083 42.1472C43.1587 42.1882 43.2092 42.2318 43.2596 42.2729C44.8767 43.2242 46.1154 44.6577 47.5786 45.8066C49.0318 46.9477 50.4193 48.1735 51.9481 49.2402C52.5309 47.9427 52.1953 46.5861 52.4703 45.3116C52.6242 44.9475 52.6166 44.5808 52.4779 44.2141C52.3795 43.8756 52.4047 43.5371 52.4829 43.1986C52.599 43.0191 52.6065 42.8422 52.4678 42.6678C52.2761 41.8241 52.4829 40.9804 52.4653 40.1368C52.5813 40.0367 52.5914 39.9239 52.5006 39.7983C52.4955 39.6547 52.4905 39.5085 52.4854 39.3649C52.4981 39.3469 52.5233 39.3264 52.5182 39.311C52.5082 39.2726 52.4854 39.2367 52.4678 39.2008C52.3669 38.7956 52.4198 38.3955 52.5056 37.9955C52.6267 37.6673 52.5637 37.3313 52.5409 36.998C52.5258 36.9723 52.493 36.9467 52.4955 36.921C52.5006 36.8646 52.5233 36.8082 52.5384 36.7544C52.5384 36.6492 52.5384 36.5441 52.5384 36.4389C52.5384 36.3517 52.5384 36.2671 52.5384 36.1799C52.5384 36.0671 52.5384 35.9517 52.5359 35.8389C52.551 35.2286 52.5662 34.6182 52.5813 34.0079C53.2826 33.6823 52.7655 33.3668 52.5737 33.0488C52.5611 30.0716 52.5485 27.0944 52.5334 24.1172C52.5334 23.9915 52.5334 23.8633 52.5334 23.7376C52.5359 23.335 52.5384 22.9324 52.5409 22.5298C52.5309 22.4632 52.5182 22.3965 52.5082 22.3298C52.3341 22.1195 52.5384 21.7708 52.2962 21.5913C50.2175 23.0607 48.1791 24.5018 46.1381 25.943L45.9388 26.102C45.9287 26.1558 45.8985 26.1764 45.8455 26.1661C45.7547 26.2328 45.6638 26.302 45.5705 26.3687C42.4498 28.8228 39.3821 31.3461 36.1479 33.6438C35.8956 33.6181 35.7392 33.7156 35.719 33.9874C35.2548 34.3823 34.7906 34.7772 34.3239 35.1696C33.8597 35.4876 33.4763 35.962 32.8431 35.944C31.236 34.8695 29.8914 33.3591 27.9186 32.8899C27.8706 32.8617 27.8202 32.8514 27.7647 32.8591C27.6411 32.8488 27.5175 32.8386 27.3938 32.8258C27.3409 32.7334 27.2803 32.7155 27.2097 32.8078C26.9524 32.8027 26.6976 32.7975 26.4402 32.7924C26.304 32.4949 26.0391 32.177 26.5437 31.9641C27.0079 31.7692 27.0079 31.7718 26.6824 31.2461C27.0179 31.0999 27.3585 31.1589 27.6991 31.2153C29.4121 31.4974 30.9005 32.2565 32.1796 33.4309C32.7497 33.9541 33.2341 34.2362 33.8976 33.5156C34.2886 33.0899 34.8562 32.8283 35.3457 32.4924C35.7215 32.7514 35.6761 32.4462 35.6963 32.2231C37.4471 30.6896 39.2888 29.269 41.1304 27.8509C41.4609 27.8663 41.7813 27.8714 41.7384 27.3867C42.6819 26.6097 43.9332 26.0199 43.4942 24.4069C44.1981 23.6838 44.2208 22.8324 43.5472 22.4811C43.5725 22.2298 43.5952 21.9785 43.6204 21.7246C43.9383 21.8631 44.2637 21.9477 44.6144 21.9067V24.9557C45.8278 24.5352 46.4383 23.5222 47.4096 23.0427L48.3985 22.2862C49.4228 21.8272 50.1443 20.9425 51.0676 20.3476C51.5217 20.0552 51.4158 19.8244 51.0903 19.5782C49.1352 18.0883 47.2885 16.4472 45.1971 15.1445C44.7304 14.7906 44.8389 15.2778 44.8288 15.4394C44.7733 16.3189 44.7506 17.2011 44.7178 18.0832L44.6522 18.373C44.6345 19.4218 44.632 20.8553 44.6144 21.9067C44.3495 22.2401 43.6204 21.7246 43.6204 21.7246C43.5851 18.2704 43.3176 14.411 43.8298 10.9697C44.2713 10.9209 44.3949 11.1364 44.4378 11.5672C44.4832 12.0313 44.4176 12.5724 44.907 12.8878C44.8717 13.3699 45.1568 13.5751 45.5402 13.8007C47.6013 15.0239 49.5943 16.3497 51.4662 17.8601C52.8639 18.9884 53.5375 20.4706 53.7191 22.2144C53.8881 23.8351 53.936 25.4609 53.8705 27.0893C53.5147 27.1175 53.3205 27.3072 53.3255 27.6765C53.3306 28.0483 53.54 28.2227 53.8932 28.2381C53.9764 28.3689 53.9941 28.5022 53.9058 28.6381C53.815 28.6612 53.651 28.674 53.6459 28.7074C53.5274 29.6382 53.3861 30.5691 53.3331 31.5051C53.3003 32.059 53.6989 31.7308 53.9335 31.7077H53.926Z" fill="#09090A"/>
<path d="M1.45695 43.7984C0.995284 43.424 0.533617 43.4086 0.0719478 43.8036C-0.10717 42.8137 0.0971747 41.829 0.157722 40.8468C0.457933 35.8643 0.455411 30.8663 0.281339 25.8915C0.135018 21.7039 1.73698 18.7574 5.08472 16.5956C6.80526 15.4853 8.31388 14.0441 10.1908 13.1799C10.5592 13.0107 10.4355 12.7004 10.4456 12.4388C10.5465 10.0437 10.6147 7.64602 10.7358 5.25347C10.7812 4.36364 10.9224 3.47637 11.0536 2.59423C11.1999 1.60951 11.7827 1.03253 12.7288 0.747881C14.0406 0.352969 15.3852 0.26578 16.7349 0.163206C19.9136 -0.0804087 23.0823 0.0862778 26.2635 0.15808C30.9433 0.263219 35.6306 0.0683232 40.3154 0.00164968C41.486 -0.0137365 42.6464 0.0760141 43.7817 0.376045C44.864 0.663253 45.3685 1.27101 45.3307 2.35573C45.2096 5.86635 45.0481 9.37696 44.9018 12.885C44.4099 12.5696 44.4755 12.026 44.4326 11.5644C44.3897 11.1336 44.2661 10.9182 43.8246 10.9669C43.8095 8.26916 43.7615 5.57145 43.7968 2.8763C43.8069 2.08648 43.5698 1.79158 42.8054 1.75824C39.7528 1.63259 36.7028 1.65054 33.6552 1.848C30.918 2.02494 28.1808 1.98134 25.4562 1.83517C21.8082 1.64028 18.1704 1.42487 14.5401 1.94288C12.5295 2.22752 12.4992 2.26086 12.3377 4.3303C12.2065 6.02021 11.7045 7.65627 11.6919 9.35901C11.6742 11.6849 11.6566 14.0133 11.6389 16.3392C11.0713 16.1571 10.6626 16.0674 10.8215 16.9726C10.9325 17.606 10.4557 18.3394 11.1646 18.8805C11.2075 18.9138 11.1646 19.1318 11.1041 19.2241C10.6929 19.8473 10.7231 20.5448 10.7383 21.2448C10.7433 21.5269 10.7837 21.8398 10.3851 21.9065V14.4724C7.91276 16.3187 5.7028 18.0394 3.5988 19.9037C3.30363 20.1653 3.3112 20.3832 3.65177 20.6679C4.5953 21.4577 5.42782 22.3501 6.52775 22.9886C7.82446 23.74 8.95215 24.7914 10.1555 25.712C10.1984 26.6685 10.7585 26.7377 11.4875 26.5146C11.5052 27.3198 12.4008 27.3403 12.696 27.8994C12.3478 28.5148 11.7272 28.484 11.2807 27.684C10.7282 26.6967 10.5768 27.2378 10.3674 27.8404C7.85726 25.9992 5.39502 24.0964 2.97315 22.1347C2.75114 21.9552 2.57455 21.5372 2.2264 21.7064C1.95647 21.8347 2.02458 22.2193 1.99935 22.4963C1.70419 25.7043 1.75212 28.9251 1.73194 32.1408C1.70923 36.0284 1.71175 39.9134 1.45695 43.7959V43.7984Z" fill="#13110F"/>
<path d="M53.9258 31.7077C53.6912 31.7308 53.2951 32.059 53.3254 31.5051C53.3783 30.5691 53.5196 29.6383 53.6382 28.7074C53.6432 28.6741 53.8072 28.6613 53.898 28.6382C54.0116 29.6614 54.0444 30.6845 53.9233 31.7077H53.9258Z" fill="#13110F"/>
<path d="M53.888 28.2406C53.5323 28.2252 53.3255 28.0534 53.3204 27.679C53.3154 27.3098 53.5096 27.1226 53.8653 27.0918C53.8729 27.4739 53.8805 27.856 53.888 28.2381V28.2406Z" fill="#13110F"/>
<path d="M53.8779 34.5796C53.7795 34.5283 53.6054 34.4924 53.5953 34.4257C53.56 34.2129 53.7517 34.2257 53.8905 34.2026C53.8855 34.3283 53.8804 34.4539 53.8779 34.5796Z" fill="#13110F"/>
<path d="M11.6389 16.3415C11.6566 14.0156 11.6768 11.6872 11.6919 9.36133C11.7045 7.65859 12.2065 6.02253 12.3377 4.33261C12.4967 2.26317 12.5269 2.23239 14.5401 1.94518C18.1729 1.42974 21.8083 1.64259 25.4562 1.83748C28.1808 1.98365 30.9205 2.02724 33.6552 1.8503C36.7002 1.65285 39.7528 1.63234 42.8054 1.76055C43.5698 1.79133 43.8069 2.08879 43.7968 2.87861C43.7615 5.57376 43.8095 8.27147 43.8246 10.9692C43.3125 14.4131 43.5824 17.8699 43.6177 21.3241C43.5319 21.4574 43.6177 21.3241 43.6177 21.7241C43.5925 21.9754 43.5698 22.2267 43.5446 22.4806C43.5269 23.1217 43.5092 23.7628 43.4916 24.4065C43.9305 26.022 42.6793 26.6118 41.7357 27.3862C41.5011 27.4991 41.2715 27.617 41.1277 27.8504C39.2836 29.2685 37.4445 30.6866 35.6937 32.2226C35.5776 32.3124 35.459 32.4021 35.343 32.4919C34.8536 32.8278 34.2885 33.0894 33.8949 33.5151C33.2314 34.2357 32.747 33.9536 32.1769 33.4305C30.8978 32.256 29.4094 31.4969 27.6964 31.2148C27.3559 31.1584 27.0153 31.102 26.6823 31.2482C24.7423 31.3046 23.1201 32.1098 21.7174 33.4305C21.064 34.0177 20.5443 33.9792 19.8102 33.3766C17.8096 31.7354 15.7006 30.2301 13.6344 28.671C13.5436 28.5069 13.4023 28.4145 13.2182 28.3992C13.0996 28.1735 12.9281 28.0068 12.696 27.9042C12.4033 27.3452 11.5077 27.3247 11.4875 26.5195C11.4875 26.1989 11.4926 25.881 11.4926 25.5604C11.5128 24.9219 11.7247 24.2936 11.5632 23.6474C11.8105 21.2164 11.6364 18.7777 11.6364 16.3441L11.6389 16.3415ZM30.3252 22.1062C30.638 22.496 30.9306 22.9294 31.4201 23.1243C34.1447 24.2116 37.9415 23.8295 39.0515 19.7573C39.9521 16.4467 39.5611 13.1822 38.3274 10.0896C36.6725 5.9379 33.0977 4.36338 29.0411 4.17875C24.8457 3.98899 21.3037 5.77891 18.4984 9.01513C14.3105 13.8438 14.5376 21.442 18.9928 26.0092C21.7477 28.8325 25.1207 29.5762 28.8594 29.2864C29.6188 29.2275 30.3655 29.1633 31.0416 28.7633C31.8136 28.3068 32.2803 27.6991 32.1037 26.7221C31.9271 25.7425 31.3192 25.2399 30.4059 25.045C29.7071 24.8937 29.0335 25.0245 28.3524 25.1783C26.6974 25.5502 25.1081 25.4373 23.6221 24.5013C20.9329 22.8037 19.6538 20.2932 19.5933 17.1493C19.5024 12.5232 23.0419 7.78937 28.8948 8.20993C34.8334 8.63818 36.9071 12.9591 35.2244 18.7161C35.1538 18.9597 35.0075 19.1623 34.7905 19.3213C34.3768 19.6239 33.9529 20.0086 33.4257 19.7419C32.8707 19.4598 32.9968 18.8751 33.0473 18.3725C33.1381 17.4827 33.2743 16.6005 33.35 15.7107C33.4736 14.2695 33.4635 12.836 32.9136 11.4641C32.5553 10.5717 32.0886 10.3794 31.3141 10.9179C30.9332 11.182 30.7313 11.123 30.3403 10.9307C28.698 10.1255 26.9648 9.8742 25.2241 10.5743C22.386 11.718 20.224 16.3877 21.0615 19.4188C21.6947 21.7087 23.1428 23.0576 25.4512 23.4781C27.2928 23.8115 28.8241 23.0448 30.3277 22.1062H30.3252Z" fill="#F1EEDD"/>
<path d="M14.8277 40.7032C15.0926 40.6186 15.3322 40.5006 15.4634 40.2313C15.6173 40.1749 15.7964 40.1544 15.8595 39.9621C16.1244 39.7928 16.4347 39.6826 16.6062 39.3877C16.7551 39.2671 16.9065 39.1466 17.0553 39.0261C17.7869 38.4696 18.516 37.9157 19.2476 37.3592C19.3712 37.2644 19.4974 37.1695 19.621 37.072C20.1659 36.8335 20.5443 36.3822 20.9707 35.995H21.0262V35.9386C21.1321 35.8411 21.2381 35.7411 21.344 35.6437C21.392 35.6078 21.4374 35.5693 21.4853 35.5308C21.6821 35.3616 21.8789 35.1898 22.0782 35.0205C23.5262 34.2692 24.7977 33.1639 26.435 32.7896C26.6923 32.7947 26.9471 32.7998 27.2045 32.8049C27.265 32.8101 27.3256 32.8178 27.3886 32.8229C27.5122 32.8331 27.6359 32.8434 27.7595 32.8562C27.8099 32.8665 27.8604 32.8767 27.9134 32.887C29.8837 33.3588 31.2308 34.8667 32.8378 35.9411C34.9267 37.8952 37.2502 39.5441 39.5106 41.275C39.6342 41.3468 39.7578 41.4186 39.8815 41.4904C39.9975 41.5879 40.111 41.6879 40.2271 41.7853C41.0117 42.388 41.7962 42.9906 42.5808 43.5932C42.6212 43.6291 42.6641 43.6624 42.7045 43.6983C42.7549 43.7368 42.8028 43.7753 42.8533 43.8137C42.9315 43.8753 43.0122 43.9368 43.0904 43.9958C45.3534 46.0755 47.7298 48.0167 50.1391 49.9144C50.4216 50.1375 50.9262 50.2734 50.8455 50.7068C50.7673 51.1299 50.2804 51.2735 49.9171 51.4504C48.4286 52.1787 46.8292 52.2556 45.2222 52.2069C41.3623 52.0889 37.5025 52.2249 33.6426 52.2197C27.3911 52.2146 21.2104 52.8044 14.9589 52.6274C12.7565 52.5659 10.3599 52.8531 8.14737 52.7557C6.45459 52.6813 4.12353 51.2324 2.72339 50.3195C2.86971 49.4912 3.33389 49.3707 3.98476 48.9091C4.56753 48.4962 5.10237 48.1142 5.62458 47.6269C5.99291 47.2807 7.26439 46.3447 7.26439 46.3447L7.8951 45.9601C9.5349 44.6317 11.1974 43.506 12.8372 42.1777C12.8877 42.1367 12.9381 42.0956 12.9911 42.0546L13.0113 42.0418C13.0895 41.993 13.1652 41.9443 13.2434 41.8956L13.2232 41.911C13.3897 41.911 13.5133 41.8392 13.5814 41.6776C13.7757 41.5186 13.9699 41.3597 14.1642 41.2007C14.2374 41.2007 14.2752 41.1673 14.2777 41.093C14.361 41.0314 14.4467 40.9699 14.53 40.9083C14.6763 40.9083 14.7798 40.8391 14.8353 40.698L14.8277 40.7032ZM12.8624 48.1962C12.8624 48.1962 12.8624 48.1911 12.8624 48.1886C12.0779 48.1886 11.2958 48.1886 10.5112 48.1886C9.99908 48.1886 9.49957 48.304 9.47938 48.904C9.4592 49.4964 9.95871 49.7041 10.4557 49.7144C12.0854 49.7451 13.7151 49.7503 15.3449 49.7349C15.8242 49.7297 16.0815 49.4066 16.0866 48.922C16.0916 48.4014 15.7939 48.1911 15.3045 48.1937C14.4896 48.1988 13.6773 48.1937 12.8624 48.1937V48.1962ZM18.738 49.722C19.24 49.6323 20.1281 49.8246 20.1255 48.8758C20.1255 48.1116 19.3334 48.0706 18.7607 48.0475C18.1502 48.0244 17.6204 48.3245 17.6229 49.0245C17.6255 49.6272 18.0997 49.7733 18.7355 49.722H18.738Z" fill="#FAC211"/>
<path d="M46.1329 25.9377C48.1738 24.4965 50.2122 23.0553 52.291 21.5859C52.5332 21.7654 52.3263 22.1142 52.5029 22.3245C52.4903 22.3475 52.46 22.3758 52.4651 22.3911C52.4802 22.4373 52.5105 22.4809 52.5357 22.5245C52.5332 22.9271 52.5307 23.3297 52.5281 23.7323C52.4348 23.858 52.4348 23.9862 52.5281 24.1118C52.5408 27.0891 52.5534 30.0663 52.5685 33.0435C52.571 33.3641 52.5735 33.6846 52.5761 34.0026C52.5609 34.6129 52.5458 35.2232 52.5281 35.8335C52.4474 35.9489 52.455 36.0618 52.5307 36.1746C52.5307 36.2618 52.5307 36.3464 52.5307 36.4336C52.455 36.5387 52.455 36.6439 52.5307 36.749C52.5155 36.8054 52.4928 36.8593 52.4878 36.9157C52.4853 36.9388 52.5155 36.967 52.5332 36.9926C52.4499 37.3234 52.407 37.6542 52.4979 37.9902C52.4121 38.3902 52.3566 38.7903 52.46 39.1954C52.4222 39.2544 52.4272 39.3083 52.4752 39.357C52.4802 39.5006 52.4852 39.6468 52.4903 39.7904C52.4777 39.9032 52.4676 40.016 52.455 40.1289C52.4726 40.9725 52.2683 41.8162 52.4575 42.6599C52.3894 42.8394 52.3843 43.0163 52.4726 43.1907C52.3944 43.5292 52.3717 43.8677 52.4676 44.2062C52.3768 44.5703 52.3667 44.937 52.46 45.3037C52.185 46.5782 52.5206 47.9348 51.9378 49.2323C50.409 48.1656 49.0215 46.9398 47.5683 45.7987C46.1051 44.6498 44.869 43.2163 43.2493 42.265C43.1989 42.2239 43.1484 42.1803 43.098 42.1393C42.8306 41.9265 42.5657 41.7136 42.2982 41.5008C42.2579 41.3264 42.1292 41.2674 41.9728 41.2443C41.9223 41.1161 41.8265 41.0597 41.6928 41.0725C41.5944 41.011 41.496 40.9494 41.3976 40.8879L41.4077 40.893C40.3532 39.8442 39.0212 39.1493 37.9742 38.0748C36.8844 36.9567 35.3732 36.3515 34.3162 35.1642C34.7804 34.7693 35.2445 34.3744 35.7113 33.9821C35.9181 33.9513 36.0518 33.8256 36.1401 33.6384C39.3743 31.3382 42.442 28.8149 45.5627 26.3633C45.6535 26.2967 45.7444 26.2274 45.8377 26.1608C45.8907 26.171 45.921 26.1505 45.9311 26.0967C45.9966 26.0428 46.0648 25.989 46.1304 25.9377H46.1329Z" fill="#FAC211"/>
<path d="M1.45687 43.7985C1.71167 39.9186 1.70915 36.031 1.73185 32.1435C1.75204 28.9278 1.7041 25.7069 1.99927 22.4989C2.0245 22.2219 1.9589 21.8398 2.22632 21.7091C2.57446 21.5424 2.75106 21.9578 2.97306 22.1373C5.39493 24.0965 7.85717 26.0018 10.3673 27.843C12.1232 29.5432 14.1616 30.8792 16.0486 32.4076C16.2429 32.564 16.4523 32.7025 16.6541 32.8487C16.6541 32.8487 16.8257 33.0692 16.9846 33.0589C17.4892 33.4385 17.9912 33.818 18.4957 34.195C18.6143 34.277 18.7329 34.3616 18.8515 34.4437C19.4872 34.9078 19.5906 35.2156 18.8161 35.7746C16.2429 37.6312 13.7428 39.5929 11.2175 41.5162C11.0434 41.6496 10.8921 41.8111 10.7306 41.9573C10.6802 41.9958 10.6297 42.0342 10.5793 42.0727C9.555 42.7394 8.61148 43.5164 7.70076 44.3345C7.5948 44.4139 7.48632 44.496 7.38037 44.5755C7.11043 44.6524 6.93131 44.8525 6.74967 45.0525C6.67651 45.0396 6.63362 45.0704 6.62353 45.1474C5.347 46.0987 4.05029 47.0219 2.80151 48.0092C2.22127 48.4682 1.96647 48.3631 1.84285 47.6681C1.7596 47.204 1.66374 46.7398 1.57292 46.2757C1.55273 46.1782 1.53003 46.0782 1.50985 45.9808C1.49219 45.2525 1.47201 44.5216 1.45435 43.7934L1.45687 43.7985Z" fill="#FAC211"/>
<path d="M44.8537 14.9316C46.9477 16.2318 49.1298 18.091 51.0849 19.5809C51.4104 19.8296 51.5163 20.0578 51.0622 20.3502C50.1389 20.9451 45.6231 24.6019 44.6014 25.0609C44.7426 24.3685 44.4753 18.7782 44.4753 18.7782L44.6014 17.3678L44.7276 16.7267V16.0856C44.7276 16.0856 44.6923 15.4548 44.8537 14.9316Z" fill="#FAC211"/>
<path d="M34.3188 35.167C35.3759 36.3517 36.887 36.9569 37.9769 38.0775C39.0238 39.1546 40.3559 39.847 41.4104 40.8958C41.2918 40.9701 41.0799 41.1214 41.0648 41.1061C40.4543 40.3701 39.9976 40.9573 39.5082 41.2779C37.2478 39.5469 34.9243 37.898 32.8354 35.944C33.4687 35.9619 33.8547 35.4875 34.3163 35.1696L34.3188 35.167Z" fill="#13110F"/>
<path d="M26.435 32.7898C24.8002 33.1642 23.5287 34.272 22.0781 35.0208C22.1034 34.7772 22.0479 34.4721 22.1715 34.3003C22.6533 33.6335 22.2144 33.5309 21.7148 33.4284C23.1175 32.1077 24.7397 31.3025 26.6797 31.2461C27.0026 31.7692 27.0001 31.7667 26.5384 31.9616C26.0338 32.1744 26.2987 32.4924 26.435 32.7898Z" fill="#13110F"/>
<path d="M43.489 24.4039L43.542 22.478C44.2156 22.8293 44.1929 23.6807 43.489 24.4039Z" fill="#13110F"/>
<path d="M52.5737 34.005C52.5712 33.6844 52.5687 33.3639 52.5662 33.0459C52.7579 33.3639 53.2751 33.6793 52.5737 34.005Z" fill="#13110F"/>
<path d="M13.2181 28.397C13.4048 28.4124 13.5436 28.5047 13.6344 28.6688C13.5612 28.856 13.4755 29.0381 13.2358 28.8945C12.9987 28.7509 13.1753 28.5662 13.2156 28.397H13.2181Z" fill="#13110F"/>
<path d="M52.46 45.309C52.3641 44.9423 52.3767 44.5756 52.4675 44.2114C52.6088 44.5781 52.6139 44.9448 52.46 45.309Z" fill="#13110F"/>
<path d="M52.4928 37.9951C52.4045 37.6592 52.4449 37.3284 52.5281 36.9976C52.5508 37.3309 52.6114 37.6669 52.4928 37.9951Z" fill="#13110F"/>
<path d="M41.1252 27.8509C41.269 27.6175 41.4986 27.497 41.7332 27.3867C41.7761 27.8714 41.4532 27.8663 41.1252 27.8509Z" fill="#13110F"/>
<path d="M35.3406 32.4895C35.4566 32.3997 35.5752 32.31 35.6912 32.2202C35.6736 32.4408 35.719 32.7485 35.3406 32.4895Z" fill="#13110F"/>
<path d="M36.1427 33.641C36.0544 33.8257 35.9207 33.9513 35.7139 33.9847C35.7366 33.7128 35.893 33.6179 36.1427 33.641Z" fill="#13110F"/>
<path d="M15.8595 39.9621C15.7964 40.1544 15.6198 40.1775 15.4634 40.2313C15.5113 40.0134 15.6627 39.9544 15.8595 39.9621Z" fill="#13110F"/>
<path d="M52.4703 43.1959C52.3795 43.0215 52.3845 42.8445 52.4551 42.665C52.5939 42.8369 52.5888 43.0138 52.4703 43.1959Z" fill="#13110F"/>
<path d="M17.0579 39.0262C16.9091 39.1467 16.7577 39.2672 16.6089 39.3877C16.6215 39.0928 16.788 38.9928 17.0579 39.0262Z" fill="#13110F"/>
<path d="M18.854 34.4461C18.7354 34.3641 18.6169 34.2794 18.4983 34.1974C18.7607 34.0692 18.9953 34.0358 18.854 34.4461Z" fill="#13110F"/>
<path d="M19.6236 37.0747C19.5 37.1696 19.3739 37.2645 19.2502 37.3619C19.2881 37.1491 19.4294 37.0773 19.6236 37.0747Z" fill="#13110F"/>
<path d="M14.8277 40.7031C14.7722 40.8416 14.6713 40.9108 14.5225 40.9134C14.6234 40.8442 14.7243 40.7749 14.8277 40.7031Z" fill="#13110F"/>
<path d="M7.38306 44.5804C7.48901 44.5009 7.59749 44.4189 7.70345 44.3394C7.66056 44.506 7.53695 44.5625 7.38306 44.5804Z" fill="#13110F"/>
<path d="M41.9753 41.2471C42.1318 41.2701 42.2604 41.3291 42.3008 41.5035C42.1418 41.4856 42.0132 41.424 41.9753 41.2471Z" fill="#13110F"/>
<path d="M40.2245 41.7856C40.1085 41.6882 39.995 41.5882 39.8789 41.4907C40.0656 41.501 40.2094 41.5677 40.2245 41.7856Z" fill="#13110F"/>
<path d="M13.5765 41.6831C13.5084 41.8421 13.3848 41.9139 13.2183 41.9165C13.2712 41.7318 13.41 41.6882 13.5765 41.6831Z" fill="#13110F"/>
<path d="M52.45 40.1339C52.4626 40.0211 52.4727 39.9082 52.4853 39.7954C52.5761 39.9185 52.566 40.0313 52.45 40.1339Z" fill="#13110F"/>
<path d="M52.5291 36.7568C52.4522 36.6517 52.4522 36.5465 52.5291 36.4414C52.5291 36.5465 52.5291 36.6517 52.5291 36.7568Z" fill="#13110F"/>
<path d="M52.4701 39.3647C52.4222 39.3134 52.4171 39.2595 52.455 39.2031C52.4726 39.239 52.4953 39.2749 52.5054 39.3134C52.5079 39.3262 52.4827 39.3493 52.4726 39.3672L52.4701 39.3647Z" fill="#13110F"/>
<path d="M52.5332 22.5272C52.5079 22.4836 52.4777 22.44 52.4625 22.3938C52.4575 22.3784 52.4852 22.3502 52.5004 22.3271C52.5105 22.3938 52.5231 22.4605 52.5332 22.5272Z" fill="#13110F"/>
<path d="M14.2703 41.0981C14.2677 41.1725 14.2299 41.2084 14.1567 41.2058C14.182 41.1571 14.2198 41.1212 14.2703 41.0981Z" fill="#13110F"/>
<path d="M52.5256 24.1144C52.4322 23.9887 52.4322 23.8605 52.5256 23.7349C52.5256 23.8605 52.5256 23.9887 52.5256 24.1144Z" fill="#13110F"/>
<path d="M46.1329 25.9375C46.0673 25.9914 45.9992 26.0452 45.9336 26.0965C45.9992 26.0426 46.0673 25.9888 46.1329 25.9375Z" fill="#13110F"/>
<path d="M12.9835 42.0601C12.933 42.1011 12.8826 42.1421 12.8296 42.1831C12.88 42.1421 12.9305 42.1011 12.9835 42.0601Z" fill="#13110F"/>
<path d="M45.8377 26.1606C45.7469 26.2273 45.6561 26.2966 45.5627 26.3632C45.6536 26.2966 45.7444 26.2273 45.8377 26.1606Z" fill="#13110F"/>
<path d="M43.088 43.9985C43.0098 43.9369 42.929 43.8754 42.8508 43.8164C42.929 43.878 43.0098 43.9395 43.088 43.9985Z" fill="#13110F"/>
<path d="M41.3977 40.8906C41.4961 40.9522 41.5945 41.0137 41.6929 41.0753C41.5566 41.0753 41.4532 41.0214 41.3977 40.8906Z" fill="#13110F"/>
<path d="M6.62622 45.1524C6.63631 45.0755 6.6792 45.0447 6.75236 45.0575C6.72209 45.1037 6.6792 45.137 6.62622 45.1524Z" fill="#13110F"/>
<path d="M27.3887 32.8229C27.3282 32.8178 27.2677 32.8101 27.2046 32.805C27.2752 32.7152 27.3358 32.7306 27.3887 32.8229Z" fill="#13110F"/>
<path d="M42.702 43.7008C42.6616 43.6649 42.6187 43.6316 42.5784 43.5957C42.6313 43.6162 42.6742 43.6496 42.702 43.7008Z" fill="#13110F"/>
<path d="M21.488 35.5308C21.44 35.5692 21.3946 35.6051 21.3467 35.6436C21.3795 35.5872 21.4249 35.5487 21.488 35.5308Z" fill="#13110F"/>
<path d="M21.0296 35.9385V35.9975L20.9731 35.9949L21.0296 35.9385Z" fill="#13110F"/>
<path d="M52.5292 36.1799C52.4523 36.0671 52.4446 35.9543 52.5267 35.8389C52.5267 35.9517 52.5267 36.0671 52.5292 36.1799Z" fill="#13110F"/>
<path d="M27.9134 32.8872C27.863 32.877 27.8125 32.8667 27.7595 32.8565C27.815 32.8488 27.8655 32.859 27.9134 32.8872Z" fill="#13110F"/>
<path d="M10.1554 25.7147C8.95456 24.7941 7.82435 23.7453 6.52764 22.9913C5.4277 22.3528 4.59518 21.463 3.65166 20.6706C3.31109 20.386 3.30352 20.168 3.59869 19.9064C5.70269 18.0447 7.91517 16.3214 10.385 14.4751V21.9092C10.2286 22.5451 10.2916 23.1939 10.2942 23.8376C10.2134 24.0299 10.2185 24.2222 10.2992 24.4146C10.2513 24.848 10.2033 25.2788 10.1554 25.7121V25.7147Z" fill="#D4800B"/>
<path d="M10.2943 23.8376C10.2943 23.1939 10.2312 22.5451 10.3851 21.9092C10.7812 21.8425 10.7433 21.5296 10.7383 21.2476C10.7232 20.5475 10.6929 19.85 11.1041 19.2268C11.1647 19.1345 11.2075 18.914 11.1647 18.8832C10.4558 18.3421 10.9326 17.6087 10.8216 16.9753C10.6626 16.0701 11.0713 16.1573 11.6389 16.3419C11.6389 18.7755 11.813 21.2142 11.5658 23.6452C11.1419 23.7094 10.7181 23.7735 10.2943 23.8401V23.8376Z" fill="#09090A"/>
<path d="M10.1555 25.7145C10.2035 25.2812 10.2514 24.8503 10.2993 24.417C10.6096 24.3811 10.6954 24.5708 10.7837 24.8324C10.8972 25.1734 11.0259 25.5504 11.4926 25.5555C11.4926 25.8761 11.4875 26.1941 11.4875 26.5146C10.7559 26.7377 10.1959 26.6685 10.1555 25.712V25.7145Z" fill="#09090A"/>
<path d="M30.3277 22.1067C28.8242 23.0453 27.2903 23.812 25.4512 23.4786C23.1428 23.0606 21.6948 21.7118 21.0616 19.4192C20.224 16.3882 22.386 11.7185 25.2241 10.5748C26.9649 9.87212 28.6955 10.1234 30.3404 10.9312C30.7314 11.1235 30.9332 11.1825 31.3141 10.9184C32.0912 10.3824 32.5554 10.5722 32.9136 11.4646C33.4636 12.8365 33.4736 14.27 33.35 15.7112C33.2743 16.601 33.1381 17.4857 33.0473 18.373C32.9968 18.8756 32.8707 19.4603 33.4257 19.7424C33.953 20.0091 34.3768 19.627 34.7905 19.3218C35.0075 19.1628 35.1538 18.9602 35.2245 18.7166C36.9072 12.957 34.8309 8.63609 28.8948 8.21041C23.0419 7.78985 19.4999 12.5211 19.5933 17.1498C19.6564 20.2963 20.9329 22.8068 23.6222 24.5018C25.1081 25.4378 26.6975 25.5506 28.3524 25.1788C29.0361 25.0249 29.7097 24.8967 30.4059 25.0455C31.3217 25.2429 31.9297 25.7455 32.1038 26.7226C32.2778 27.697 31.8111 28.3073 31.0417 28.7638C30.3656 29.1638 29.6188 29.2279 28.8595 29.2869C25.1207 29.5793 21.7477 28.8356 18.9929 26.0097C14.5402 21.4425 14.3131 13.8469 18.4984 9.01562C21.3063 5.77939 24.8457 3.98947 29.0411 4.17923C33.0978 4.3613 36.6725 5.93582 38.3275 10.0901C39.5611 13.1827 39.9522 16.4471 39.0515 19.7577C37.944 23.8274 34.1447 24.2095 31.4201 23.1248C30.9307 22.9299 30.6406 22.4965 30.3252 22.1067H30.3277ZM30.0376 27.6739H30.0427C30.5548 27.6175 30.8827 27.3585 30.8096 26.8046C30.7339 26.2353 30.2621 26.2789 29.8585 26.284C29.5457 26.2866 29.2354 26.3302 28.9251 26.3584C28.6753 26.3661 28.423 26.3533 28.1758 26.3892C24.9769 26.8328 22.3532 25.8122 20.4006 23.1812C17.1361 18.7833 17.7643 12.5621 21.8108 9.28231C23.6096 7.82319 25.6631 7.13081 27.9992 7.01028C31.3671 6.8359 34.0261 8.15912 35.8526 10.8568C37.5782 13.4058 37.2048 16.3394 36.3496 19.1525C36.0923 19.9988 35.338 20.5065 34.4828 20.7963C33.2617 21.2066 32.1265 20.4681 32.0912 19.1602C32.071 18.3653 32.1416 17.5626 32.2173 16.7703C32.3611 15.2983 32.4191 13.8341 32.0003 12.3954C31.9423 12.1954 31.9398 11.721 31.579 11.9903C30.7717 12.6006 30.1612 12.0749 29.5003 11.7467C27.8251 10.9107 25.8927 11.1979 24.4698 12.4211C22.883 13.7828 22.3002 15.6291 22.1413 17.5985C21.937 20.1629 23.2311 21.781 25.7035 22.3478C27.5022 22.7606 28.8797 21.9451 30.1259 20.763C30.3303 20.5681 30.5018 20.286 30.8323 20.3809C31.1905 20.4835 31.3041 20.7963 31.299 21.1322C31.2914 21.7861 31.6497 22.1708 32.2097 22.317C34.7577 22.9734 37.172 22.1503 37.891 19.368C38.5243 16.9267 38.4486 14.4444 37.7573 11.98C36.9677 9.16178 35.4969 6.99233 32.626 6.08198C28.2818 4.70235 24.2604 5.34089 20.726 8.30786C17.8097 10.7568 16.5584 14.052 16.6795 17.8242C16.788 21.1425 18.067 23.9992 20.7512 26.0122C23.4153 28.0099 26.3922 28.7407 29.6642 27.838C29.8131 27.8432 29.9443 27.815 30.03 27.6739H30.0376Z" fill="#13110F"/>
<path d="M11.4952 25.5558C11.0285 25.5481 10.9023 25.1737 10.7863 24.8327C10.698 24.5711 10.6097 24.3788 10.3019 24.4173C10.2212 24.2249 10.2161 24.0326 10.2969 23.8403C10.7207 23.7762 11.1445 23.7121 11.5683 23.6479C11.7298 24.2916 11.5179 24.9224 11.4977 25.561L11.4952 25.5558Z" fill="#13110F"/>
<path d="M12.8649 48.1966C13.6797 48.1966 14.492 48.1991 15.3069 48.1966C15.7963 48.194 16.094 48.4043 16.089 48.9249C16.0864 49.4121 15.8266 49.7352 15.3473 49.7378C13.7176 49.7531 12.0878 49.748 10.4581 49.7172C9.96112 49.707 9.46161 49.4993 9.48179 48.9069C9.50198 48.3068 10.0015 48.1889 10.5136 48.1914C11.2982 48.194 12.0803 48.1914 12.8649 48.1914C12.8649 48.1914 12.8649 48.1966 12.8649 48.1991V48.1966Z" fill="#13110F"/>
<path d="M18.7405 49.7221C18.1047 49.7734 17.6305 49.6273 17.6279 49.0246C17.6254 48.3246 18.1527 48.0245 18.7657 48.0476C19.3384 48.0707 20.128 48.1117 20.1305 48.8759C20.1331 49.8247 19.245 49.6324 18.743 49.7221H18.7405Z" fill="#13110F"/>
<path d="M29.6718 27.8353C26.3997 28.7379 23.4228 28.0071 20.7588 26.0094C18.0771 23.9964 16.7955 21.1397 16.687 17.8214C16.5634 14.0492 17.8172 10.754 20.7336 8.30507C24.2655 5.3381 28.2893 4.69958 32.6335 6.07921C35.5044 6.98956 36.9752 9.15901 37.7649 11.9772C38.4561 14.4416 38.5318 16.9239 37.8986 19.3652C37.1771 22.1449 34.7653 22.9681 32.2173 22.3142C31.6572 22.1706 31.2964 21.7834 31.3065 21.1295C31.3116 20.7935 31.1981 20.4781 30.8398 20.3781C30.5068 20.2832 30.3378 20.5653 30.1334 20.7602C28.8872 21.9424 27.5072 22.7578 25.711 22.345C23.2361 21.7757 21.942 20.1576 22.1488 17.5958C22.3052 15.6289 22.8905 13.7826 24.4774 12.4183C25.9027 11.1951 27.8327 10.9079 29.5078 11.7439C30.1688 12.0747 30.7793 12.5978 31.5866 11.9875C31.9448 11.7157 31.9498 12.1927 32.0079 12.3927C32.4266 13.8313 32.3661 15.2955 32.2248 16.7675C32.1466 17.5624 32.0785 18.3625 32.0987 19.1575C32.1315 20.4653 33.2693 21.2064 34.4903 20.7935C35.3455 20.5063 36.0998 19.996 36.3572 19.1498C37.2124 16.3367 37.5857 13.403 35.8602 10.8541C34.0337 8.15634 31.3747 6.83569 28.0067 7.00751C25.6706 7.12803 23.6196 7.82041 21.8183 9.27953C17.7718 12.5594 17.1436 18.7805 20.4081 23.1784C22.3607 25.8094 24.9844 26.8326 28.1833 26.3864C28.4306 26.3531 28.6828 26.3659 28.9326 26.3556C29.3009 26.7993 30.3756 26.6198 30.0527 27.6686H30.0477C29.9266 27.7224 29.803 27.7763 29.6819 27.8327L29.6718 27.8353ZM23.5313 17.0188C23.501 18.6728 24.1696 19.9063 25.3654 20.4037C26.6596 20.9423 28.2615 20.5243 29.2807 19.2857C30.194 18.1753 30.7238 16.8957 30.5976 15.4032C30.4967 14.2082 29.7298 13.2338 28.5996 12.8927C25.9179 12.0849 23.5868 13.9826 23.5313 17.0213V17.0188Z" fill="#D22427"/>
<path d="M30.0425 27.6684C30.3629 26.6196 29.2882 26.7991 28.9224 26.3554C29.2327 26.3298 29.5455 26.2862 29.8558 26.2811C30.262 26.2759 30.7312 26.2324 30.8069 26.8016C30.88 27.3555 30.5546 27.612 30.04 27.6684H30.0425Z" fill="#F13C33"/>
<path d="M29.6719 27.835C29.793 27.7812 29.9166 27.7273 30.0377 27.6709C29.9519 27.8094 29.8207 27.8402 29.6719 27.835Z" fill="#F13C33"/>
<path d="M23.5314 17.019C23.5869 13.9828 25.9179 12.0826 28.5996 12.8904C29.7298 13.2315 30.4968 14.2034 30.5977 15.4009C30.7238 16.8959 30.194 18.1756 29.2808 19.2834C28.2616 20.5245 26.6596 20.9425 25.3654 20.4014C24.1696 19.9039 23.5036 18.6705 23.5314 17.0165V17.019ZM27.6637 13.8469C25.8775 13.8187 24.3134 15.7984 24.6489 17.6678C25.0198 19.7373 26.5612 20.3655 28.1253 19.0038C29.1471 18.1166 29.6188 16.8857 29.5003 15.5061C29.4094 14.4572 28.698 13.8649 27.6637 13.8469Z" fill="#13110F"/>
<path d="M27.6662 13.844C28.7005 13.8594 29.4145 14.4544 29.5028 15.5032C29.6213 16.8828 29.147 18.1137 28.1278 19.001C26.5637 20.3601 25.0223 19.7318 24.6514 17.6649C24.3159 15.7955 25.8775 13.8158 27.6662 13.844Z" fill="#F1EEDD"/>
</svg>
