<svg width="54" height="54" viewBox="0 0 54 54" fill="none" xmlns="http://www.w3.org/2000/svg">
<path d="M0 32.9286C0.301318 30.0952 1.71675 27.6829 4.60333 26.2344C7.42661 24.8165 10.4119 23.7638 13.2555 22.394C17.7449 20.2327 21.6316 17.3384 24.2346 12.9653C25.4272 10.9613 26.3008 8.91933 25.4652 6.50699C25.1689 5.6496 26.0425 4.16059 26.9541 3.6761C27.7238 3.2677 29.2507 3.57209 29.9191 4.32294C30.8307 5.34267 31.4814 6.53489 32.0891 7.75248C33.3299 10.2358 34.6212 12.6964 35.8442 15.1874C36.0949 15.6972 36.4443 15.5831 36.7862 15.5197C38.2953 15.2432 39.574 15.611 40.6957 16.6891C42.0706 18.0107 42.5568 20.5016 41.3414 21.9729C40.0677 23.5152 40.0855 24.7454 41.0806 26.4526C42.4428 28.7888 43.4557 31.3306 44.5723 33.8038C45.142 35.067 44.8129 36.5002 43.9292 37.0659C42.7948 37.7914 41.3642 37.5301 40.3412 36.4723C39.2018 35.2928 37.7154 34.7068 36.1709 34.3593C31.5068 33.3117 26.8908 33.4233 22.3659 35.1203C21.9532 35.275 21.7633 35.412 21.9988 35.8432C22.0418 35.9219 22.0368 36.0284 22.0595 36.1197C22.4824 37.9791 22.3457 38.3545 20.6517 39.217C20.0212 39.5391 19.9275 39.7623 20.32 40.3864C21.9962 43.0397 23.1407 45.9594 24.4144 48.8105C25.0018 50.1245 24.8929 51.4918 24.0498 52.6967C22.8597 54.3962 20.5428 54.4495 19.3679 52.7626C16.7092 48.9526 14.0987 45.1121 11.5033 41.259C11.1007 40.6603 10.7791 40.5386 10.06 40.7618C5.82886 42.0732 1.89653 40.1555 0.476026 36.1476C0.146855 35.2167 0.0683636 34.235 0.00506139 32.9337L0 32.9286ZM30.6636 8.09746C30.4256 7.20203 29.8963 6.46133 29.3671 5.7257C28.9924 5.20569 28.5341 4.69583 27.8048 5.03066C27.0427 5.37818 26.7793 5.99966 27.0883 6.81392C27.1237 7.00163 27.1592 7.18934 27.1921 7.37705C27.1946 7.50135 27.1971 7.62565 27.1997 7.74994C27.2022 7.81589 27.2047 7.87931 27.2098 7.94526C27.1921 8.51601 27.1744 9.08675 27.1541 9.66003C26.9313 10.0202 26.873 10.4134 26.8984 10.8269C26.8249 10.9207 26.754 11.0146 26.6806 11.1085C26.6502 11.1846 26.6173 11.2581 26.5869 11.3342C25.293 14.9033 22.8774 17.5946 19.9402 19.8928C17.8917 21.4985 15.6913 22.8404 13.3289 23.9286C13.0453 24.0605 12.5288 24.0758 12.8174 24.6947C14.4304 28.1547 16.023 31.6223 17.6081 35.0949C17.793 35.5008 17.9727 35.5693 18.3981 35.379C19.4895 34.8895 20.6061 34.4455 21.7253 34.0194C26.5742 32.1727 31.5194 31.6603 36.5912 32.9692C38.3029 33.4106 39.8399 34.1843 41.0679 35.478C41.6503 36.0918 42.3036 36.4622 43.0733 36.0259C43.8583 35.582 43.5139 34.8159 43.3569 34.1538C43.324 34.0118 43.2075 33.8875 43.1316 33.7556L43.1392 33.7632C43.0278 33.4715 42.9341 33.1696 42.7999 32.8881C40.8729 28.9207 38.9131 24.9712 37.0166 20.9912C35.4163 17.6352 33.8768 14.2539 32.1069 10.9816C31.7498 9.95936 31.3295 8.96753 30.6661 8.1L30.6636 8.09746ZM7.61398 39.8892C9.0041 39.7065 10.498 39.4985 11.8755 38.7857C13.1922 38.1059 14.5089 37.4134 15.8686 36.8249C16.6637 36.4799 16.808 36.14 16.4105 35.3486C14.7469 32.0535 13.1339 28.7305 11.9438 25.2223C11.7691 24.7074 11.5109 24.6719 11.0298 24.8875C9.67764 25.4963 8.28752 26.0214 6.93538 26.6251C5.8162 27.1248 4.54763 27.3911 3.66899 28.3018C1.88387 30.151 1.16729 32.2615 1.58762 34.9402C2.07378 38.0552 4.96036 39.6203 7.61145 39.8866L7.61398 39.8892ZM12.3844 40.2164C13.6327 42.0352 14.7646 43.7474 15.9648 45.4114C17.4638 47.489 18.5855 49.8074 20.1427 51.8494C20.9631 52.925 22.452 52.9275 23.0192 51.7987C23.3788 51.0834 23.5155 50.3275 23.2496 49.5056C22.8673 48.3184 22.1583 47.2987 21.6417 46.1826C20.3858 43.4557 18.983 40.8024 17.56 38.1592C17.4486 37.9537 17.4208 37.4185 17.0637 37.6417C16.1598 38.2049 15.0001 38.3139 14.2734 39.1536C13.7796 39.7243 13.2631 40.186 12.387 40.2139L12.3844 40.2164ZM36.8241 16.7956C37.8117 18.6829 38.5308 20.6158 39.374 22.5309C40.5286 21.3717 41.1413 19.8776 40.6957 18.9517C39.9563 17.4196 38.7663 16.514 36.8241 16.7956ZM20.8796 36.9822C20.8517 35.8153 20.6745 35.6987 19.6844 36.2136C19.4338 36.343 19.1831 36.4723 18.9299 36.5915C18.7197 36.6879 18.3298 36.6879 18.4994 37.0405C18.7349 37.5301 18.7653 38.2251 19.3274 38.4306C19.8338 38.6158 20.8948 37.5428 20.8821 36.9822H20.8796Z" fill="#090B0C"/>
<path d="M36.9607 5.37572C36.4973 5.29708 36.3378 4.9039 36.5556 4.4955C37.3456 3.02425 38.2419 1.61134 39.3156 0.33034C39.6219 -0.0374725 40.103 -0.128791 40.5006 0.213655C40.888 0.548492 40.7335 0.936598 40.4778 1.30948C39.7131 2.42814 38.956 3.55187 38.2141 4.68322C37.9305 5.11698 37.5482 5.33767 36.9582 5.37572H36.9607Z" fill="#090B0C"/>
<path d="M51.0317 12.458C51.0089 12.8157 50.7658 13.0338 50.5025 13.2038C49.3858 13.9191 48.2616 14.6243 47.1297 15.3143C46.8436 15.4893 46.522 15.7075 46.203 15.327C45.9295 14.9997 46.0131 14.675 46.203 14.3656C46.3169 14.1804 46.4537 13.9851 46.6309 13.8684C47.6893 13.1784 48.7503 12.4935 49.834 11.8442C50.3075 11.56 51.0089 11.9482 51.0317 12.4555V12.458Z" fill="#090B0C"/>
<path d="M50.1707 28.7661C51.2493 29.139 52.4723 29.5499 53.6877 29.9837C54.0219 30.1029 54.0397 30.4022 53.9612 30.699C53.8726 31.0415 53.6472 31.3129 53.2902 31.2216C51.9152 30.8766 50.5505 30.4961 49.1882 30.1004C48.9401 30.0294 48.7729 29.7706 48.8793 29.4891C49.0717 28.9843 49.4971 28.8067 50.1681 28.7661H50.1707Z" fill="#090B0C"/>
<path d="M26.6804 11.1087C26.7538 11.0148 26.8247 10.921 26.8982 10.8271C26.7893 9.97478 27.1539 9.66024 27.1539 9.66024C27.1716 9.0895 27.1894 8.51875 27.2096 7.94801C27.1919 7.88898 27.2046 7.76537 27.1995 7.75269C27.197 7.62839 26.9184 6.42088 26.9159 6.29659C27.0425 4.52089 28.9415 3.37939 30.714 8.07229C30.9672 8.5365 31.8534 9.97477 32.1041 10.9793C33.8741 14.249 35.4161 17.6329 37.0139 20.9889C38.9104 24.9689 40.8702 28.921 42.7971 32.8857C42.9339 33.1673 43.0098 33.4005 43.1212 33.6922C43.1997 33.8242 43.3213 34.0095 43.3542 34.1515C43.5087 34.8136 43.853 35.5796 43.0706 36.0236C42.3009 36.4599 41.6476 36.087 41.0652 35.4756C39.8371 34.1845 38.3002 33.4108 36.5885 32.9669C31.5167 31.658 26.5715 32.1704 21.7226 34.0171C20.6034 34.4432 19.4868 34.8871 18.3954 35.3767C17.97 35.567 17.7903 35.4985 17.6054 35.0926C16.0203 31.6199 14.4302 28.1498 12.8147 24.6924C12.5261 24.0734 13.0401 24.0582 13.3262 23.9263C15.6886 22.8381 17.889 21.4937 19.9375 19.8905C22.8722 17.5923 25.2903 14.9009 26.5842 11.3319C26.6804 11.2837 26.7311 11.2177 26.6779 11.1061L26.6804 11.1087Z" fill="#65C8E9"/>
<path d="M7.614 39.8893C4.9629 39.6229 2.07633 38.0578 1.59017 34.9428C1.17238 32.2667 1.88643 30.1562 3.67155 28.3045C4.55018 27.3938 5.81875 27.1275 6.93794 26.6277C8.2926 26.0215 9.68018 25.4989 11.0323 24.8901C11.5134 24.6745 11.7717 24.71 11.9464 25.225C13.1365 28.7306 14.7494 32.0536 16.413 35.3512C16.8131 36.1427 16.6687 36.4851 15.8711 36.8276C14.5114 37.4161 13.1947 38.106 11.878 38.7884C10.5006 39.5012 9.00412 39.7092 7.61653 39.8918L7.614 39.8893Z" fill="#307DAE"/>
<path d="M12.3844 40.2165C13.263 40.1886 13.777 39.7244 14.2708 39.1562C14.9975 38.3166 16.1572 38.2075 17.0611 37.6444C17.4182 37.4212 17.4485 37.9564 17.5574 38.1619C18.9779 40.805 20.3807 43.4584 21.6391 46.1853C22.1532 47.3014 22.8621 48.3211 23.247 49.5083C23.5129 50.3301 23.3762 51.086 23.0166 51.8014C22.4519 52.9302 20.9631 52.9276 20.1401 51.8521C18.5829 49.8127 17.4612 47.4942 15.9622 45.4141C14.762 43.7501 13.6327 42.0378 12.3818 40.2191L12.3844 40.2165Z" fill="#378BC1"/>
<path d="M36.8242 16.7957C38.7663 16.5141 39.9564 17.4197 40.6958 18.9518C41.1414 19.8752 40.5287 21.3718 39.374 22.531C38.5308 20.6184 37.8117 18.683 36.8242 16.7957Z" fill="#307DAE"/>
<path d="M20.8797 36.9823C20.8924 37.5428 19.8314 38.6158 19.325 38.4307C18.7629 38.2252 18.7325 37.5302 18.497 37.0406C18.3274 36.688 18.7198 36.688 18.9275 36.5916C19.1832 36.4724 19.4339 36.343 19.682 36.2136C20.6721 35.7012 20.8493 35.8154 20.8772 36.9823H20.8797Z" fill="#307DAE"/>
<path d="M26.6806 11.1085C26.7338 11.2199 26.6806 11.2858 26.5869 11.3339C26.6198 11.2579 26.6502 11.1845 26.6806 11.1085Z" fill="#307DAE"/>
</svg>
