<svg width="54" height="54" viewBox="0 0 54 54" fill="none" xmlns="http://www.w3.org/2000/svg">
<path d="M48.618 53.8888C43.8401 53.6145 39.1808 53.1111 34.5141 52.6883C29.6029 52.2428 24.7139 51.5885 19.8299 50.9014C16.0471 50.3679 12.2742 49.7764 8.49884 49.2026C7.605 49.0667 7.33092 48.7018 7.51364 47.7756C7.80006 46.3335 7.99513 44.8687 8.45686 43.4669C8.74576 42.5936 8.58773 41.977 7.85439 41.2698C5.63707 39.1406 3.44197 36.9787 1.45675 34.6104C1.15798 34.2556 0.829581 33.9233 0.481427 33.6163C-0.145743 33.0626 -0.160559 32.5693 0.439451 31.9754C4.57038 27.8881 8.81736 23.9167 12.7927 19.681C18.1533 13.9654 23.3978 8.13912 28.8177 2.48144C29.3733 1.90007 29.835 1.22306 30.3313 0.583799C30.8745 -0.115861 31.3758 -0.196397 32.0177 0.395042C34.9585 3.10811 37.8993 5.82118 40.8204 8.55942C41.887 9.55857 42.7809 10.7238 43.6624 11.8916C43.9982 12.3346 44.2747 12.6441 44.8698 12.2993C45.3266 12.0351 45.6772 12.1911 45.8476 12.7523C47.3093 17.5719 49.6773 22.0367 51.186 26.8387C51.3637 27.4049 51.539 27.9813 51.6255 28.5652C51.7588 29.4586 52.2921 29.7984 53.0946 29.7682C53.9391 29.738 54.0922 30.1633 53.9564 30.8982C53.4206 33.8252 52.8526 36.7471 52.386 39.6867C51.8576 42.9988 51.4181 46.3259 50.9489 49.6455C50.8032 50.6724 50.5045 51.6615 50.2501 52.6631C50.0156 53.5843 49.6477 54.2764 48.6254 53.8913L48.618 53.8888ZM40.0129 10.4067H40.0154C40.0006 10.3211 39.9833 10.2331 39.9685 10.145C39.924 10.1777 39.8796 10.2129 39.8351 10.2456C38.6178 9.0829 37.4005 7.92016 36.1808 6.75741C36.4499 6.34215 36.1339 6.12571 35.8894 5.89668C34.4721 4.56028 33.0449 3.23647 31.6375 1.89251C31.2967 1.56785 31.0795 1.50242 30.7832 1.95795C30.4301 2.50409 30.0844 3.11314 29.514 3.43026C28.6695 3.90089 28.4572 4.85726 27.83 5.48645C27.6498 5.66514 27.6275 5.87655 27.9066 6.10809C29.393 7.3413 32.0918 7.35892 33.4647 6.06027C33.877 5.67017 34.2425 5.60977 34.6993 5.88158C33.5116 8.53173 29.5757 9.24397 27.5633 7.17268C27.2819 6.88325 27.1214 6.43275 26.5979 7.03174C24.5682 9.34968 22.504 11.6349 20.3929 13.8748C16.4027 18.108 12.3557 22.2833 8.37291 26.5215C7.55562 27.3923 6.55066 28.0593 5.77287 28.9829C8.40501 31.0643 8.55069 33.8403 6.1951 35.8411C5.71114 35.5869 5.76546 35.2975 6.04201 34.8696C6.5877 34.0165 6.7877 33.0878 6.55066 32.0483C6.36794 31.248 5.86176 30.7019 5.43953 30.0601C5.05681 29.4762 4.83458 29.4158 4.45927 29.9846C3.38024 30.2816 2.81233 31.1474 2.25923 32.0307C2.20244 32.4359 1.31107 32.6675 1.90367 33.1633C3.56296 34.55 4.76298 36.357 6.24942 37.8998C6.48399 38.1439 6.66918 38.5668 7.14326 38.373L7.16795 38.3981C7.03956 38.8537 7.2445 39.0198 7.66673 38.9971C7.61735 39.279 7.73587 39.4124 8.01488 39.4023L8.00994 39.3973C7.9976 39.6666 8.13834 39.7849 8.3902 39.7874L8.54823 39.9711C8.54576 40.2278 8.65934 40.3713 8.92354 40.3587C8.93095 40.7261 9.09391 40.9401 9.48157 40.925C9.48157 41.3075 9.6717 41.4887 10.0445 41.4837H10.0421C10.0371 41.8688 10.2026 42.0802 10.6075 42.0424H10.605C10.5976 42.664 11.1952 42.8201 11.4989 43.1976C11.61 43.336 11.8643 43.7186 12.1063 43.2555C12.1606 43.2253 12.2248 43.2052 12.2643 43.1624C13.9212 41.3352 15.2496 41.0533 17.4965 42.1406C17.941 42.3545 18.0397 42.0651 18.2323 41.8587C20.4398 39.508 22.6225 37.1297 24.8571 34.8017C27.8448 31.691 31.0078 28.7589 33.9412 25.5903C35.798 23.5845 37.7857 21.7045 39.7537 19.8068C40.2524 19.3236 40.2722 18.9989 39.7882 18.5283C39.0722 17.8312 38.6499 17.0057 38.7018 15.9411C38.7808 14.2976 39.4475 12.999 40.729 12.0149C41.2401 12.3446 41.2129 12.7347 40.9018 13.2079C39.7487 14.952 39.687 16.6961 40.9241 18.4402C41.3092 18.9813 41.2228 19.4645 40.7364 19.9377C38.2524 22.3639 35.9487 24.9762 33.5931 27.5232C30.6745 30.6767 27.4893 33.5383 24.4719 36.5735C22.3114 38.748 19.9064 40.6657 18.1459 43.2328C17.9187 43.565 17.6521 43.6355 17.2866 43.3662C16.1558 42.5307 14.4545 42.5634 13.331 43.3763C12.7755 43.779 12.6668 44.1439 13.2273 44.6347C13.9039 45.2261 14.5854 45.8201 15.2002 46.4744C15.7113 47.018 15.9755 46.9274 16.3879 46.336C17.1335 45.2664 17.9212 44.2119 18.8027 43.2555C21.8793 39.9157 25.309 36.9334 28.3584 33.5584C29.2868 32.5316 30.3807 31.6432 31.3609 30.649C32.7338 29.2573 34.0523 27.7975 35.5067 26.4989C37.1981 24.9863 38.766 23.3605 40.2524 21.6491C41.6549 20.0333 42.9908 18.3496 44.6599 17.0006C45.1142 16.6332 45.2056 16.2381 44.8772 15.7926C44.3809 15.1181 43.9019 14.4008 43.2945 13.8421C42.4846 13.0971 42.0253 11.9923 40.9636 11.5191H40.966C40.9808 11.3379 40.9438 11.197 40.7216 11.197L40.7784 11.1743L40.7216 11.1945C40.7364 11.0586 40.6697 10.9881 40.5413 10.9705C40.4253 10.8446 40.3068 10.7163 40.1907 10.5904C40.2203 10.5426 40.2475 10.4973 40.2771 10.4495C40.1907 10.4344 40.1043 10.4218 40.0179 10.4067H40.0129ZM29.0992 43.9451C28.6202 44.6624 28.1955 44.0483 27.8275 43.8343C27.3782 43.5726 26.9115 43.5525 26.6744 43.9199C26.4473 44.2697 26.8893 44.5718 27.1658 44.8033C27.3535 44.9619 27.5683 45.0978 27.7905 45.2009C30.3807 46.4165 33.9783 44.6724 34.6672 41.8511C34.7363 41.5718 35.0894 41.0558 34.6079 40.9803C34.1536 40.9073 33.3585 41.0735 33.3437 41.6196C33.3215 42.4275 32.9511 42.2337 32.5264 42.1607C31.5782 41.9996 31.4128 42.1607 31.5807 43.0944C31.6943 43.7186 31.1733 44.5265 30.477 44.7177C29.7955 44.9065 29.4621 44.4912 29.2844 43.8872C29.8375 43.2127 30.2301 44.1313 30.7239 44.0558C30.7881 43.081 30.4095 42.7102 29.5881 42.9434C29.5288 42.961 29.4671 42.9661 29.4078 42.9736C28.6523 43.0818 28.6448 43.4367 29.0967 43.9451H29.0992ZM49.0921 27.347C49.6995 27.9058 49.3464 28.1876 48.8279 28.5324C47.4945 29.4183 46.655 31.2933 47.2081 32.3831C47.6007 33.1557 47.2229 33.3193 46.6921 33.5257C45.0229 34.17 43.3414 34.7816 41.6846 35.4586C37.8894 37.0064 34.0894 38.5466 30.3264 40.1699C28.6004 40.9149 26.8127 41.4787 25.104 42.2941C23.8423 42.8956 22.5139 43.4468 21.1657 43.8721C20.378 44.1187 20.0669 44.3503 19.7706 45.2387C21.6842 44.6045 23.5732 44.0281 25.3164 43.1221C26.4818 42.5156 27.635 41.9241 28.8646 41.4585C29.9338 41.0533 31.0844 40.9678 32.1264 40.5324C33.8202 39.8251 35.4647 38.9896 37.1388 38.2345C38.8895 37.4468 40.7833 37.0718 42.5488 36.3545C45.2377 35.2648 47.9563 34.2782 50.7069 33.3722C51.2255 33.201 51.4699 32.9619 51.139 32.4284C50.7736 31.8395 50.7538 31.1901 50.7563 30.5232C50.7563 30.0576 50.7859 29.597 50.6205 29.1314C50.1958 27.9284 49.8872 26.6801 49.4156 25.4972C49.097 24.6969 48.9365 23.7657 48.1266 23.2397C47.9513 22.7892 47.776 22.3387 47.6007 21.8882C48.1439 20.582 47.9019 19.9553 46.7266 19.608L46.1661 18.4729C46.1291 18.1734 46.2081 17.7859 45.8575 17.6575C45.5464 17.5417 45.4081 17.9092 45.1883 18.0552C43.6179 19.0921 42.8278 20.8865 41.4055 22.0769C40.9636 22.4469 41.487 22.4066 41.6969 22.4494C42.2056 22.5149 42.6179 22.7741 43.0031 23.1013C44.2278 24.1432 44.2229 25.4419 43.8377 26.8714C43.3587 28.6457 41.9586 29.1037 40.4623 29.3151C39.1388 29.5039 37.9907 28.9678 37.3413 27.7548C36.8647 26.8638 36.5709 27.1432 36.1215 27.7145C35.082 29.0333 34.003 30.3244 32.8079 31.5022C32.4992 31.8067 32.5264 32.0685 32.6153 32.4183C32.7758 33.05 33.0005 33.6691 32.9042 34.3512C32.5042 37.1674 29.9609 38.7404 27.1806 37.8596C26.8572 37.7564 26.6152 37.6154 26.2646 37.9074C25.3041 38.7001 24.3954 39.5433 23.6275 40.5223C23.3336 40.8973 22.8843 41.2119 22.7707 41.836C27.6399 39.9283 32.3955 38.0533 37.1586 36.2035C40.0277 35.0886 42.8451 33.8327 45.8031 32.9569C45.9587 32.9116 46.4106 33.0525 46.1612 32.4787C45.1661 30.1859 46.6254 27.6793 49.0921 27.3445V27.347ZM17.3138 47.1665C17.2101 47.2244 17.0743 47.2546 17.0076 47.3402C15.9237 48.7496 15.7162 48.742 14.4273 47.5214C13.0767 46.2429 11.7162 44.9694 10.2495 43.8218C9.93837 43.5776 9.75565 43.4568 9.65935 44.0055C9.47663 45.0474 9.26675 46.0894 9.01243 47.1162C8.84946 47.7756 9.02724 47.9996 9.69392 48.0852C12.0668 48.3972 14.4298 48.7924 16.8002 49.1246C18.8052 49.4065 20.7879 49.94 22.8201 49.9249C25.1979 49.9098 27.4893 50.7101 29.8696 50.6195C30.2967 50.6019 30.7362 50.6472 31.1535 50.7429C33.9783 51.4022 36.882 51.3871 39.7388 51.8024C42.534 52.2076 45.3809 52.0717 48.176 52.5398C48.6402 52.6178 48.9958 52.4492 49.0847 51.966C49.2872 50.8611 49.4526 49.7513 49.6205 48.6388C49.6699 48.3142 49.497 48.3217 49.2254 48.357C47.5587 48.5659 46.813 49.2479 46.5365 50.8989C46.4896 51.1833 46.3711 51.4501 46.0994 51.3972C45.2673 51.2311 44.455 51.5809 43.6303 51.4274C41.7512 51.0751 39.8351 51.1254 37.9438 50.8913C36.082 50.6623 34.1881 50.6774 32.3437 50.4308C28.5461 49.9224 24.7756 49.2001 20.9608 48.7722C20.2151 48.6892 19.141 48.966 18.7583 47.8259C20.3657 47.8108 21.941 48.1732 23.5386 48.2789C28.0597 48.5759 32.5486 49.2152 37.0524 49.6858C39.5339 49.945 42.0105 50.2571 44.4895 50.5239C44.8155 50.5591 45.1784 50.7001 45.3661 50.1388C45.9711 48.3242 47.2254 47.3981 49.0526 47.3553C49.539 47.3427 49.8106 47.1791 49.8625 46.6758C50.1588 43.8394 50.8057 41.0533 51.0477 38.2094C51.0798 37.8319 51.0329 37.7337 50.6452 37.7186C49.2254 37.6658 48.1266 36.8025 47.7069 35.4334C46.3637 36.0223 44.9858 36.5206 43.6303 37.0517C41.292 37.9678 39.0351 39.1028 36.6326 39.8528C35.9561 40.0642 35.724 40.4015 35.7659 41.1414C35.8746 43.0516 34.9857 44.6951 33.5881 45.7068C31.2992 47.3628 28.193 47.3201 26.0695 44.8662C25.8794 44.6473 25.7831 44.2395 25.3732 44.4912C24.6448 44.9367 23.7954 44.9971 23.0127 45.2714C21.1237 45.9358 19.2669 46.706 17.3113 47.159L17.3138 47.1665ZM42.8352 25.6835C42.7241 25.2757 42.6549 24.8378 42.4846 24.4452C42.1883 23.7607 40.4994 23.1113 40.0203 23.5417C39.124 24.3471 38.3092 25.243 37.4672 26.1088C37.366 26.212 37.2573 26.3202 37.3684 26.509C37.924 27.4502 39.5018 28.1348 40.5759 27.8781C40.8426 27.8152 41.087 27.6868 41.3734 27.8252C41.7784 28.019 42.0278 27.7145 42.2179 27.4477C42.5784 26.9343 42.7142 26.3227 42.8352 25.686V25.6835ZM27.7658 36.9435C27.9782 37.0366 28.4424 36.9585 28.8893 36.9661C30.4622 36.9862 31.7733 35.7883 31.8918 34.2002C31.919 33.8176 32.114 33.2992 31.7239 33.0676C31.3017 32.8185 30.9733 33.2992 30.7338 33.5559C29.7041 34.6633 28.7362 35.826 27.7658 36.9435ZM51.8625 34.6054C51.9168 34.0668 51.7884 33.8126 51.2008 34.0945C50.544 34.4091 49.9489 34.8847 49.1785 34.9275C48.9909 34.9376 48.9489 35.1012 48.9686 35.2723C49.0328 35.831 50.0279 36.5911 50.7761 36.6691C51.6082 36.7547 51.4576 36.045 51.6131 35.5995C51.7242 35.2799 51.7785 34.9376 51.8625 34.6079V34.6054ZM52.2452 32.5869C52.5539 31.9024 52.4279 31.3185 52.4082 30.7497C52.4033 30.5987 52.2872 30.4603 52.1119 30.4552C51.9662 30.4552 51.8995 30.576 51.9069 30.7044C51.9366 31.3009 51.7193 31.9401 52.2477 32.5869H52.2452ZM19.3657 45.3595C19.3607 45.3394 19.3632 45.3066 19.3509 45.2991C19.3311 45.2865 19.3015 45.289 19.2743 45.284C19.2817 45.3192 19.2867 45.3519 19.2941 45.3872C19.3188 45.3771 19.341 45.3696 19.3657 45.3595Z" fill="#060B07"/>
<path d="M40.7264 12.0124C39.4449 12.9965 38.7782 14.2951 38.6992 15.9386C38.6474 17.0032 39.0696 17.8287 39.7857 18.5258C40.2696 18.9964 40.2499 19.3211 39.7511 19.8043C37.7856 21.702 35.7955 23.582 33.9387 25.5878C31.0028 28.7564 27.8398 31.686 24.8546 34.7992C22.62 37.1247 20.4397 39.503 18.2298 41.8562C18.0372 42.0626 17.9359 42.352 17.4939 42.1381C15.2495 41.0508 13.9186 41.3327 12.2618 43.1599C12.2223 43.2027 12.1556 43.2228 12.1037 43.253C11.6099 42.8377 11.2617 42.2362 10.6025 42.0374L10.6049 42.0399C10.5012 41.7656 10.3235 41.5668 10.0395 41.4787L10.042 41.4812C9.95802 41.1867 9.76296 41.008 9.479 40.9199C9.39999 40.623 9.19258 40.4543 8.92097 40.3537C8.89381 40.1272 8.74319 40.0215 8.54565 39.9661C8.4938 39.9057 8.43948 39.8453 8.38763 39.7824C8.34071 39.571 8.20244 39.4527 8.00737 39.3923L8.01231 39.3973C7.97774 39.1909 7.8691 39.0475 7.66416 38.9921C7.58761 38.7153 7.42218 38.5139 7.16538 38.3931L7.14069 38.368C6.81723 38.0005 6.5308 37.5903 6.16043 37.2782C5.54067 36.7547 5.55301 36.3042 6.19253 35.8386C8.54812 33.8378 8.40244 31.0618 5.7703 28.9804C6.54562 28.0568 7.55058 27.3898 8.37034 26.519C12.3531 22.2808 16.4001 18.1055 20.3903 13.8723C22.5014 11.6324 24.5657 9.34466 26.5953 7.02924C27.1213 6.43025 27.2793 6.87824 27.5608 7.17018C29.5732 9.23896 33.5066 8.52672 34.6967 5.87908C35.4251 5.76583 35.6547 6.51834 36.1782 6.76247C37.3955 7.92521 38.6128 9.08795 39.8326 10.2507C39.8918 10.3061 39.9536 10.3589 40.0128 10.4143L40.0104 10.4118C40.0672 10.4722 40.1264 10.5326 40.1832 10.5955C40.2993 10.7213 40.4178 10.8497 40.5363 10.9755C40.5956 11.051 40.6548 11.124 40.7141 11.1995L40.7709 11.1794L40.7141 11.202C40.7462 11.348 40.7931 11.4839 40.9585 11.5267L40.9561 11.5242C40.8795 11.6903 40.803 11.8539 40.724 12.02L40.7264 12.0124ZM21.615 32.2472C25.2718 32.2573 28.2694 29.8009 28.5484 25.8798C28.8028 22.2984 26.2472 18.6617 22.2718 18.4755C18.4347 18.2968 15.4569 21.1432 15.2371 25.3865C15.0569 28.8546 17.9853 31.9703 21.615 32.2472ZM28.3633 15.4201C28.4744 17.3756 29.5929 18.4981 31.3287 18.3949C33.4745 18.2666 35.1041 16.4948 35.0128 14.3883C34.9288 12.4579 33.6251 11.5846 31.0547 11.7306C29.346 11.8287 28.2447 13.3362 28.3657 15.4176L28.3633 15.4201ZM10.9901 34.8017C10.9901 36.7371 12.3926 37.9628 14.5285 38.0055C16.6939 38.0483 17.5754 36.1834 17.6643 34.5576C17.7507 33.0047 16.2199 31.4469 14.7087 31.4393C12.4593 31.4292 10.9901 32.7556 10.9901 34.7992V34.8017Z" fill="#BDD47F"/>
<path d="M17.3137 47.1665C19.2693 46.7135 21.1261 45.9434 23.0151 45.2789C23.7978 45.0046 24.6472 44.9417 25.3756 44.4987C25.7855 44.2471 25.8842 44.6548 26.0719 44.8737C28.1929 47.3276 31.3016 47.3704 33.5905 45.7143C34.9881 44.7026 35.8745 43.0592 35.7684 41.1489C35.7264 40.4115 35.9585 40.0718 36.635 39.8604C39.0375 39.1129 41.2944 37.9778 43.6327 37.0592C44.9883 36.5282 46.3661 36.0298 47.7093 35.4409C48.1291 36.81 49.2278 37.6708 50.6476 37.7261C51.0353 37.7412 51.0822 37.8394 51.0501 38.2169C50.8081 41.0634 50.1612 43.8469 49.8649 46.6833C49.813 47.1866 49.5414 47.3502 49.055 47.3628C47.2278 47.4056 45.9759 48.3318 45.3685 50.1464C45.1809 50.7076 44.8154 50.5667 44.492 50.5314C42.0104 50.2646 39.5363 49.9526 37.0548 49.6933C32.551 49.2227 28.0621 48.5834 23.541 48.2865C21.9434 48.1808 20.3681 47.8183 18.7607 47.8334C18.4915 47.5415 18.1459 47.6875 17.8323 47.6749C17.4915 47.6623 17.2273 47.6095 17.3162 47.164L17.3137 47.1665ZM42.5635 39.284C40.8104 39.2639 39.1067 41.0181 39.1042 42.8528C39.1017 44.6221 40.5462 45.9761 42.4672 46.0063C44.4426 46.0365 45.6944 44.5969 45.7216 42.2613C45.7414 40.6003 44.3685 39.3041 42.566 39.2815L42.5635 39.284Z" fill="#BDD47F"/>
<path d="M46.1684 18.4729C46.356 18.8504 46.5412 19.2304 46.7289 19.608C46.9585 20.3932 47.198 21.1709 47.6029 21.8881C47.7783 22.3386 47.9536 22.7891 48.1289 23.2396C48.2202 23.6297 48.3091 24.0173 48.403 24.4074C48.6375 25.3864 49.0869 26.3151 49.0968 27.3495C46.6301 27.6842 45.1708 30.1909 46.1659 32.4837C46.4153 33.0575 45.9634 32.9141 45.8079 32.9619C42.8498 33.8352 40.0325 35.0936 37.1633 36.2085C32.4002 38.0583 27.6446 39.9333 22.7754 41.841C22.889 41.2169 23.3384 40.9023 23.6322 40.5273C24.4001 39.5483 25.3112 38.7051 26.2693 37.9124C26.6224 37.6204 26.8619 37.7614 27.1853 37.8645C29.9656 38.7454 32.5089 37.1724 32.9089 34.3562C33.0052 33.6741 32.7805 33.055 32.62 32.4233C32.5311 32.076 32.5039 31.8117 32.8126 31.5072C34.0077 30.3294 35.0867 29.0383 36.1262 27.7195C36.5756 27.1507 36.8694 26.8688 37.346 27.7598C37.9954 28.9728 39.1436 29.5089 40.467 29.3201C41.9634 29.1062 43.3634 28.6482 43.8424 26.8764C44.2276 25.4468 44.2325 24.1482 43.0078 23.1063C42.6226 22.7791 42.2103 22.5199 41.7016 22.4544C42.7214 21.3848 43.7189 20.2925 44.7708 19.2581C45.1486 18.8882 45.5363 18.42 46.1708 18.4779L46.1684 18.4729Z" fill="#BDD47F"/>
<path d="M40.7266 12.0124C40.8032 11.8463 40.8797 11.6827 40.9587 11.5166C42.0205 11.9898 42.4798 13.0946 43.2896 13.8396C43.8971 14.4008 44.3761 15.1156 44.8724 15.7901C45.2008 16.2355 45.1119 16.6307 44.6551 16.9981C42.9859 18.3471 41.6501 20.0308 40.2476 21.6466C38.7612 23.358 37.1932 24.9813 35.5019 26.4964C34.0475 27.7975 32.7314 29.2547 31.3561 30.6465C30.3759 31.6406 29.2795 32.529 28.3536 33.5559C25.3042 36.9309 21.8745 39.9107 18.7979 43.253C17.9164 44.2093 17.1287 45.2639 16.383 46.3335C15.9707 46.9249 15.7065 47.0155 15.1954 46.4719C14.5805 45.8175 13.899 45.2261 13.2225 44.6321C12.662 44.1414 12.7706 43.7764 13.3262 43.3738C14.4497 42.5634 16.1509 42.5281 17.2818 43.3637C17.6472 43.633 17.9139 43.5625 18.1411 43.2303C19.9016 40.6632 22.3066 38.7454 24.4671 36.571C27.4869 33.5332 30.6697 30.6742 33.5882 27.5207C35.9438 24.9737 38.2476 22.3613 40.7316 19.9352C41.218 19.462 41.302 18.9788 40.9192 18.4377C39.6822 16.6936 39.7464 14.9495 40.897 13.2053C41.2106 12.7322 41.2378 12.3421 40.7242 12.0124H40.7266Z" fill="#19573B"/>
<path d="M17.3138 47.1666C17.2249 47.6121 17.4891 47.6649 17.8298 47.6775C18.1434 47.6901 18.4891 47.5441 18.7583 47.836C19.141 48.9761 20.2151 48.6968 20.9608 48.7823C24.7756 49.2102 28.5461 49.9325 32.3437 50.4409C34.1881 50.6875 36.082 50.6699 37.9437 50.9015C39.8351 51.1355 41.7512 51.0852 43.6303 51.4375C44.455 51.5936 45.2673 51.2412 46.0994 51.4073C46.3686 51.4627 46.4871 51.1959 46.5365 50.909C46.813 49.258 47.5562 48.576 49.2254 48.3671C49.497 48.3319 49.6699 48.3243 49.6205 48.649C49.4526 49.7589 49.2871 50.8713 49.0847 51.9761C48.9958 52.4593 48.6402 52.628 48.176 52.5499C45.3809 52.0793 42.5339 52.2177 39.7388 51.8125C36.8845 51.3973 33.9807 51.4124 31.1535 50.753C30.7362 50.6548 30.2967 50.612 29.8695 50.6297C27.4893 50.7203 25.1979 49.9174 22.82 49.935C20.7854 49.9501 18.8052 49.4166 16.8002 49.1347C14.4298 48.8025 12.0668 48.4074 9.69391 48.0953C9.02723 48.0072 8.84698 47.7832 9.01241 47.1263C9.26674 46.0995 9.47662 45.0601 9.65934 44.0156C9.75564 43.4669 9.93835 43.5878 10.2495 43.8319C11.7137 44.9795 13.0742 46.253 14.4273 47.5315C15.7138 48.7496 15.9212 48.7572 17.0076 47.3503C17.0743 47.2647 17.2101 47.232 17.3138 47.1767V47.1666Z" fill="#19573B"/>
<path d="M49.0947 27.3471C49.0848 26.3127 48.6354 25.3865 48.4009 24.405C48.307 24.0174 48.2181 23.6273 48.1268 23.2372C48.9367 23.7607 49.0972 24.6944 49.4157 25.4947C49.8873 26.6776 50.1959 27.9259 50.6206 29.1289C50.7861 29.5945 50.7589 30.0551 50.7564 30.5207C50.754 31.1876 50.7713 31.837 51.1392 32.4259C51.47 32.9594 51.2231 33.1985 50.7071 33.3697C47.9564 34.2782 45.2378 35.2623 42.5489 36.352C40.7834 37.0693 38.8871 37.4443 37.1389 38.232C35.4624 38.9871 33.8204 39.8201 32.1265 40.5299C31.087 40.9653 29.9339 41.0508 28.8647 41.456C27.6351 41.9216 26.482 42.5156 25.3165 43.1196C23.5733 44.0256 21.6844 44.6045 19.7708 45.2362C20.0671 44.3478 20.3782 44.1188 21.1658 43.8696C22.5165 43.4443 23.8449 42.8931 25.1042 42.2916C26.8128 41.4762 28.6005 40.9124 30.3265 40.1674C34.092 38.5441 37.8896 37.0064 41.6847 35.4561C43.3415 34.7791 45.023 34.1675 46.6922 33.5232C47.2255 33.3168 47.6008 33.1557 47.2082 32.3806C46.6551 31.2908 47.4971 29.4158 48.828 28.5299C49.3465 28.1851 49.6996 27.9033 49.0922 27.3445L49.0947 27.3471Z" fill="#19573B"/>
<path d="M36.1811 6.7574C35.6576 6.51579 35.428 5.76328 34.6996 5.87401C34.2403 5.60472 33.8749 5.66512 33.465 6.0527C32.0922 7.35135 29.3933 7.33625 27.9069 6.10052C27.6279 5.86898 27.6526 5.66009 27.8304 5.47888C28.4575 4.85221 28.6699 3.89584 29.5143 3.42269C30.0822 3.10557 30.4279 2.49652 30.7835 1.95038C31.0798 1.49485 31.2971 1.55777 31.6378 1.88495C33.0453 3.2289 34.4724 4.55271 35.8897 5.88911C36.1342 6.11814 36.4503 6.3371 36.1811 6.74985V6.7574Z" fill="#19573B"/>
<path d="M6.19749 35.8361C5.55797 36.3017 5.5481 36.7522 6.16539 37.2757C6.5333 37.5877 6.81972 38.0005 7.14566 38.3654C6.67157 38.5592 6.48638 38.1364 6.25181 37.8923C4.76537 36.352 3.56535 34.5425 1.90606 33.1557C1.31346 32.6599 2.20483 32.4284 2.26162 32.0232C3.00238 31.8797 4.32832 30.6465 4.46166 29.9771C4.83697 29.4083 5.0592 29.4687 5.44192 30.0526C5.86168 30.6943 6.37033 31.238 6.55305 32.0408C6.79009 33.0827 6.59009 34.0089 6.0444 34.8621C5.77032 35.2925 5.716 35.5794 6.19749 35.8336V35.8361Z" fill="#19573B"/>
<path d="M42.8354 25.6835C42.7144 26.3202 42.5786 26.9318 42.2181 27.4452C42.0304 27.7145 41.7786 28.019 41.3736 27.8227C41.0872 27.6843 40.8427 27.8126 40.5761 27.8756C39.502 28.1323 37.9242 27.4477 37.3686 26.5064C37.2575 26.3177 37.3686 26.2095 37.4674 26.1063C38.3094 25.243 39.1267 24.3445 40.0205 23.5392C40.4995 23.1088 42.1884 23.7581 42.4847 24.4427C42.6551 24.8353 42.7242 25.2732 42.8354 25.6809V25.6835Z" fill="#19573B"/>
<path d="M29.2842 43.8872C29.462 44.4912 29.7954 44.904 30.4769 44.7177C31.1732 44.5265 31.6917 43.7186 31.5806 43.0944C31.4127 42.1607 31.5756 41.9996 32.5263 42.1607C32.951 42.2337 33.3213 42.4275 33.3436 41.6196C33.3584 41.0735 34.1535 40.9074 34.6078 40.9804C35.0893 41.0559 34.7362 41.5718 34.667 41.8512C33.9757 44.6724 30.3806 46.4166 27.7904 45.201C27.5682 45.0978 27.3533 44.9619 27.1657 44.8033C26.8891 44.5718 26.4472 44.2698 26.6743 43.9199C26.9114 43.5525 27.3805 43.5726 27.8274 43.8344C28.1978 44.0483 28.62 44.6624 29.0991 43.9451C29.1608 43.925 29.2225 43.9073 29.2842 43.8872Z" fill="#19573B"/>
<path d="M27.7656 36.9434C28.736 35.826 29.7039 34.6632 30.7336 33.5559C30.9706 33.2992 31.3015 32.8185 31.7237 33.0676C32.1138 33.2992 31.9212 33.8176 31.8916 34.2002C31.7731 35.7882 30.462 36.9862 28.8891 36.9661C28.4422 36.9611 27.9804 37.0391 27.7656 36.9434Z" fill="#19573B"/>
<path d="M51.86 34.6079C51.7785 34.9401 51.7242 35.2798 51.613 35.5995C51.4575 36.0449 51.6081 36.7572 50.776 36.6691C50.0278 36.5911 49.0328 35.831 48.9686 35.2723C48.9488 35.0986 48.9908 34.9375 49.1784 34.9275C49.9488 34.8872 50.5439 34.409 51.2007 34.0944C51.7884 33.8151 51.9167 34.0693 51.86 34.6053V34.6079Z" fill="#19573B"/>
<path d="M46.1689 18.473C45.5343 18.4151 45.1466 18.8832 44.7688 19.2532C43.717 20.2876 42.7194 21.3799 41.6997 22.4495C41.4873 22.4067 40.9663 22.447 41.4083 22.077C42.8305 20.8866 43.6207 19.0896 45.1911 18.0552C45.4108 17.9092 45.5491 17.5443 45.8602 17.6576C46.2108 17.7859 46.1318 18.171 46.1689 18.473Z" fill="#19573B"/>
<path d="M29.2846 43.8872C29.2229 43.9074 29.1612 43.925 29.0994 43.9451C28.6451 43.4367 28.655 43.0819 29.4105 42.9737C29.4698 42.9661 29.5315 42.9586 29.5908 42.9435C30.4122 42.7119 30.7908 43.0827 30.7266 44.0559C30.2328 44.1314 29.8402 43.2102 29.2871 43.8872H29.2846Z" fill="#BDD47F"/>
<path d="M4.46151 29.9796C4.32817 30.6491 3.00223 31.8823 2.26147 32.0257C2.81457 31.1424 3.38248 30.2766 4.46151 29.9796Z" fill="#1D1917"/>
<path d="M47.6006 21.8882C47.1957 21.1735 46.9562 20.3933 46.7266 19.608C47.9019 19.9528 48.1439 20.582 47.6006 21.8882Z" fill="#19573B"/>
<path d="M52.2431 32.5869C51.7147 31.9426 51.932 31.3034 51.9024 30.7044C51.895 30.576 51.9617 30.4527 52.1073 30.4552C52.2826 30.4578 52.3987 30.5987 52.4036 30.7497C52.4234 31.3185 52.5493 31.9024 52.2407 32.5869H52.2431Z" fill="#1D1917"/>
<path d="M10.6024 42.0323C11.2641 42.2337 11.6123 42.8327 12.1036 43.2479C11.8616 43.711 11.6073 43.3285 11.4962 43.1901C11.19 42.8125 10.595 42.6565 10.6024 42.0323Z" fill="#19573B"/>
<path d="M7.17026 38.3931C7.42952 38.5139 7.59249 38.7152 7.66903 38.9921C7.24433 39.0147 7.03939 38.8486 7.17026 38.3931Z" fill="#19573B"/>
<path d="M9.47903 40.9149C9.76298 41.003 9.95805 41.1817 10.042 41.4762C9.66915 41.4812 9.47656 41.3 9.47903 40.9149Z" fill="#19573B"/>
<path d="M8.92383 40.3512C9.19544 40.4519 9.40285 40.6205 9.48186 40.9175C9.0942 40.9326 8.93124 40.7212 8.92383 40.3512Z" fill="#19573B"/>
<path d="M10.0397 41.4736C10.3236 41.5617 10.5014 41.758 10.6051 42.0349C10.2002 42.0751 10.0347 41.8637 10.0397 41.4736Z" fill="#19573B"/>
<path d="M8.54814 39.9661C8.74567 40.0214 8.89629 40.1271 8.92345 40.3536C8.65678 40.3662 8.54567 40.2228 8.54814 39.9661Z" fill="#19573B"/>
<path d="M8.01003 39.3922C8.20509 39.4526 8.34337 39.5709 8.39028 39.7823C8.13842 39.7798 7.99768 39.6615 8.01003 39.3922Z" fill="#19573B"/>
<path d="M7.66888 38.9921C7.87382 39.0474 7.97999 39.1909 8.01703 39.3973C7.73801 39.4073 7.61949 39.2739 7.66888 38.9921Z" fill="#19573B"/>
<path d="M40.9612 11.5191C40.7958 11.4763 40.7489 11.3404 40.7168 11.1945C40.939 11.1945 40.9761 11.3354 40.9612 11.5191Z" fill="#19573B"/>
<path d="M40.0157 10.4093C39.9564 10.3539 39.8947 10.3011 39.8354 10.2457C39.8799 10.213 39.9243 10.1777 39.9688 10.145C39.9836 10.2331 40.0009 10.3212 40.0157 10.4093Z" fill="#19573B"/>
<path d="M19.3631 45.3596C19.3384 45.3696 19.3162 45.3772 19.2915 45.3872C19.2841 45.352 19.2791 45.3193 19.2717 45.2841C19.2964 45.2891 19.326 45.2841 19.3483 45.2992C19.3606 45.3067 19.3581 45.3394 19.3631 45.3596Z" fill="#19573B"/>
<path d="M40.1858 10.5879C40.129 10.5275 40.0697 10.4671 40.0129 10.4042C40.0994 10.4193 40.1858 10.4319 40.2722 10.447C40.2426 10.4948 40.2154 10.5401 40.1858 10.5879Z" fill="#19573B"/>
<path d="M40.7168 11.192C40.6576 11.1165 40.5983 11.0435 40.5391 10.968C40.6675 10.9856 40.7341 11.0561 40.7168 11.192Z" fill="#19573B"/>
<path d="M21.6177 32.2472C17.988 31.9704 15.0596 28.8546 15.2398 25.3865C15.4596 21.1433 18.4374 18.2968 22.2745 18.4755C26.2499 18.6617 28.8055 22.2984 28.5512 25.8798C28.2746 29.8009 25.2746 32.2573 21.6177 32.2472ZM22.0128 19.8018C18.7609 19.4897 16.3806 22.7489 16.351 25.0367C16.304 28.6357 18.7806 30.9536 22.5362 30.9284C24.9313 30.9133 27.5314 28.0039 27.4425 25.4092C27.3363 22.3563 24.756 19.6231 22.0128 19.7993V19.8018Z" fill="#060B07"/>
<path d="M28.3632 15.4175C28.2447 13.3362 29.3435 11.8286 31.0522 11.7305C33.6226 11.582 34.9263 12.4578 35.0102 14.3882C35.1016 16.4947 33.4744 18.2665 31.3262 18.3949C29.5929 18.4981 28.4743 17.3756 28.3608 15.4201L28.3632 15.4175ZM29.8423 14.967C29.8274 16.3664 30.3163 16.9905 31.425 16.9905C32.4942 16.9905 33.4991 15.9335 33.5584 14.7531C33.5905 14.1013 32.267 13.0543 31.3855 13.0317C30.4595 13.009 29.8546 13.7665 29.8423 14.967Z" fill="#090B0C"/>
<path d="M10.9927 34.7992C10.9927 32.7556 12.4618 31.4267 14.7113 31.4393C16.2249 31.4468 17.7533 33.0047 17.6669 34.5576C17.578 36.1809 16.6965 38.0483 14.531 38.0055C12.3952 37.9627 10.9902 36.7371 10.9927 34.8017V34.7992ZM14.168 36.581C15.41 36.5936 16.3384 35.6725 16.3483 34.4141C16.3557 33.4326 15.3927 32.6197 14.2001 32.602C13.21 32.5869 12.2766 33.566 12.2841 34.6104C12.2915 35.7983 13.0297 36.5685 14.1705 36.581H14.168Z" fill="#060B07"/>
<path d="M42.5636 39.2841C44.3661 39.3067 45.739 40.6028 45.7192 42.2639C45.692 44.5969 44.4402 46.039 42.4648 46.0088C40.5438 45.9786 39.0993 44.6246 39.1018 42.8553C39.1043 41.0206 40.808 39.2639 42.5611 39.2866L42.5636 39.2841ZM40.4006 42.5382C40.4105 43.774 41.2376 44.675 42.3587 44.6674C43.4871 44.6624 44.3266 43.8268 44.2945 42.7421C44.255 41.4334 43.6426 40.5299 42.7858 40.5198C41.6747 40.5047 40.3907 41.5919 40.3981 42.5382H40.4006Z" fill="#060B07"/>
<path d="M22.0101 19.8018C24.7534 19.6231 27.3337 22.3563 27.4399 25.4117C27.5287 28.0039 24.9287 30.9133 22.5336 30.9309C18.7755 30.9561 16.3014 28.6381 16.3483 25.0392C16.3779 22.7489 18.7582 19.4922 22.0101 19.8043V19.8018ZM21.6817 27.8907C21.4817 28.0794 21.2718 28.2606 21.0793 28.4595C20.3755 29.1893 20.4817 29.5366 21.4768 29.8135C21.6249 29.8537 21.7657 29.9217 21.9138 29.9519C23.3805 30.2514 25.1114 29.3579 25.3954 28.1574C25.4793 28.0593 25.5633 27.9611 25.6448 27.863C26.0053 27.8579 26.2053 27.639 26.309 27.3168C26.7189 26.0383 26.3361 24.863 25.5855 23.9066C24.8843 23.0132 23.8521 22.6483 22.6941 23.0837C22.5237 23.1491 22.3114 23.2774 22.1854 23.1013C22.0101 22.8571 22.2768 22.7187 22.4101 22.5677C23.6941 21.1231 23.6916 21.113 21.8077 20.6323C21.6595 20.5946 21.504 20.5619 21.3533 20.5669C20.7113 20.5921 20.1953 20.7884 20.1805 21.5761C19.9434 21.3697 19.7138 21.0023 19.4373 21.5333C19.3163 21.5384 19.173 21.5056 19.0768 21.5585C17.736 22.316 17.0792 24.3873 17.6841 25.9075C18.2224 27.259 19.5656 27.8277 21.2002 27.2942C22.0595 27.0148 21.8249 27.4452 21.6768 27.8957L21.6817 27.8907Z" fill="#19573B"/>
<path d="M29.8421 14.9696C29.8545 13.7691 30.4594 13.0115 31.3854 13.0342C32.2669 13.0543 33.5903 14.1038 33.5582 14.7557C33.5014 15.9385 32.494 16.9931 31.4249 16.9931C30.3162 16.9931 29.8273 16.3689 29.8421 14.9696Z" fill="#19573B"/>
<path d="M14.168 36.5835C13.0272 36.571 12.2889 35.7983 12.2815 34.6129C12.2741 33.5685 13.2075 32.5894 14.1976 32.6045C15.3902 32.6222 16.3532 33.4351 16.3458 34.4166C16.3359 35.675 15.41 36.5986 14.1655 36.5835H14.168Z" fill="#19573B"/>
<path d="M40.4007 42.5407C40.3933 41.5919 41.6772 40.5072 42.7884 40.5223C43.6452 40.5348 44.2575 41.4383 44.297 42.7445C44.3291 43.8293 43.4896 44.6648 42.3612 44.6699C41.2402 44.6749 40.4105 43.7739 40.4031 42.5407H40.4007Z" fill="#19573B"/>
<path d="M19.4397 21.5308C19.7187 20.9997 19.9459 21.3672 20.1829 21.5736C20.4595 21.9813 20.7681 21.7472 21.0768 21.6264C21.4447 21.483 21.9237 21.2162 22.178 21.571C22.3978 21.8781 21.862 22.092 21.6941 22.3689C21.5805 22.5526 21.4619 22.7338 21.3336 22.9049C20.9681 23.3932 20.3434 23.9569 20.8249 24.5257C21.3607 25.1599 22.0299 24.5257 22.541 24.2136C23.1928 23.8135 23.7904 23.4913 24.4719 24.05C25.1632 24.6163 25.5879 25.3537 25.3287 26.2648C25.1484 26.899 25.1731 27.4024 25.6447 27.8604C25.5608 27.9586 25.4768 28.0567 25.3953 28.1549C24.9509 28.1297 24.5608 28.2681 24.1805 28.5047C23.5682 28.8847 22.8768 29.0307 22.1706 29.1012C21.5039 29.1666 21.6299 28.8621 21.899 28.4921C22.2076 28.1071 22.5311 27.7346 22.82 27.3369C23.062 27.0047 23.2743 26.6071 22.9904 26.2195C22.6644 25.774 22.2718 26.1012 21.9064 26.222C21.3632 26.4032 20.9286 26.8688 20.2792 26.7782C18.5138 26.5341 17.652 24.337 18.736 22.8093C18.9804 22.8168 19.136 22.7237 19.1212 22.4469L19.1162 22.4519C19.3335 22.3965 19.3755 22.2506 19.3113 22.0517L19.4348 21.5308H19.4397Z" fill="#BDD47F"/>
<path d="M25.6447 27.863C25.1731 27.405 25.1484 26.9016 25.3286 26.2674C25.5879 25.3563 25.1632 24.6189 24.4718 24.0526C23.7879 23.4939 23.1903 23.8161 22.5409 24.2162C22.0323 24.5308 21.3631 25.16 20.8248 24.5283C20.3434 23.9595 20.9681 23.3958 21.3335 22.9075C21.4619 22.7364 21.5829 22.5552 21.694 22.3714C21.8644 22.0946 22.4002 21.8807 22.178 21.5736C21.9236 21.2213 21.4446 21.4855 21.0767 21.629C20.7681 21.7498 20.4594 21.9839 20.1829 21.5761C20.1977 20.7884 20.7137 20.5946 21.3557 20.5669C21.5063 20.5619 21.6619 20.5946 21.81 20.6324C23.694 21.1131 23.6965 21.1231 22.4125 22.5677C22.2792 22.7188 22.0125 22.8572 22.1878 23.1013C22.3138 23.2775 22.5236 23.1491 22.6965 23.0837C23.8545 22.6483 24.8866 23.0132 25.5879 23.9067C26.341 24.8655 26.7212 26.0384 26.3114 27.3169C26.2076 27.639 26.0076 27.858 25.6471 27.863H25.6447Z" fill="#090B0C"/>
<path d="M18.7408 22.8119C17.6569 24.3395 18.5186 26.5392 20.2841 26.7808C20.9334 26.8689 21.368 26.4058 21.9112 26.2246C22.2742 26.1038 22.6693 25.7741 22.9952 26.2221C23.2767 26.6097 23.0643 27.0073 22.8248 27.3395C22.5359 27.7397 22.2125 28.1122 21.9038 28.4947C21.8915 28.2707 21.9261 28.0316 21.6865 27.8932C21.8347 27.4427 22.0693 27.0123 21.21 27.2917C19.5729 27.8253 18.2322 27.2565 17.6939 25.905C17.0889 24.3848 17.7482 22.3136 19.0865 21.556C19.1828 21.5032 19.326 21.5384 19.447 21.5308C19.405 21.7045 19.3631 21.8782 19.3235 22.0518C19.1631 22.1374 19.1013 22.2733 19.1285 22.452L19.1334 22.4469C18.9161 22.4696 18.8248 22.6332 18.7482 22.8094L18.7408 22.8119Z" fill="#090B0C"/>
<path d="M21.6822 27.8907C21.9217 28.0291 21.8871 28.2707 21.8995 28.4922C21.6303 28.8597 21.5044 29.1667 22.1711 29.1013C22.8772 29.0333 23.5686 28.8873 24.181 28.5048C24.5612 28.2682 24.9514 28.1323 25.3958 28.155C25.1119 29.3555 23.381 30.2489 21.9143 29.9494C21.7661 29.9192 21.6254 29.8513 21.4772 29.811C20.4821 29.5341 20.3784 29.1868 21.0797 28.457C21.2723 28.2581 21.4797 28.0769 21.6822 27.8882V27.8907Z" fill="#060B07"/>
<path d="M18.741 22.8119C18.8175 22.6357 18.9089 22.4721 19.1262 22.4495C19.1385 22.7263 18.9854 22.8194 18.741 22.8119Z" fill="#19573B"/>
<path d="M19.1212 22.4519C19.094 22.2732 19.1557 22.1373 19.3162 22.0518C19.3804 22.2506 19.3409 22.3966 19.1212 22.4519Z" fill="#19573B"/>
</svg>
