<svg width="54" height="54" viewBox="0 0 54 54" fill="none" xmlns="http://www.w3.org/2000/svg">
<path d="M42.0123 45.9183C39.7078 45.9183 37.4033 45.9322 35.1017 45.9071C34.5083 45.9015 34.2346 45.9518 34.2317 46.6666C34.2058 52.9796 27.131 55.6936 22.4327 52.9098C20.2232 51.6003 18.7945 49.6262 18.8636 46.9653C18.8866 46.0495 18.6015 45.7284 17.6624 45.7479C13.7447 45.8345 9.8242 45.8792 5.90655 45.935C5.0078 45.949 4.10905 45.9462 3.21606 45.7954C1.80744 45.5609 0.658064 44.9187 0.188523 43.584C-0.275258 42.2606 0.148183 40.9594 1.11319 40.0017C4.98475 36.1569 6.43084 31.4885 6.15142 26.2616C5.92673 22.051 6.68432 18.0945 8.87359 14.4201C11.4978 10.0113 15.5048 7.39781 20.4796 6.07713C21.1191 5.9068 21.1739 5.53545 21.2113 5.10825C21.3611 3.39946 22.136 1.97546 23.5965 1.08197C26.5318 -0.710584 29.954 -0.417409 31.1898 3.03368C31.3655 3.5251 31.691 4.04165 31.6449 4.51911C31.5211 5.81745 32.4688 6.05479 33.3704 6.39543C33.9379 6.61042 34.0157 6.0855 34.2404 5.837C36.5852 3.25985 39.4687 1.76047 43.058 1.65995C48.3468 1.50917 53.1862 5.51311 53.8718 10.5976C54.5718 15.7882 52.394 19.8731 47.6093 22.3386C47.3126 22.4922 46.941 22.5005 46.9554 23.0087C47.0649 26.658 46.9554 30.3241 48.1855 33.8618C48.92 35.9726 49.983 37.8936 51.5644 39.4963C52.7512 40.7025 53.4599 42.0316 52.8492 43.6343C52.2068 45.318 50.6167 45.8205 48.9258 45.9015C47.3097 45.9797 45.688 45.9155 44.0662 45.9155C43.3835 45.9155 42.6979 45.9155 42.0152 45.9155L42.0123 45.9183ZM45.2127 23.2432C40.7045 23.8826 37.844 22.6318 35.5654 20.7917C32.6848 18.4659 30.2709 12.7978 32.5005 8.66545C32.8749 7.9702 32.8692 7.51508 31.8638 7.44807C31.0803 7.39781 30.2997 7.23028 29.5248 7.08509C29.0207 6.99295 28.3293 7.02366 28.3581 6.2977C28.3869 5.59967 29.0034 5.56895 29.5622 5.59688C29.9223 5.61642 30.1672 5.59967 30.2075 5.14176C30.3054 4.04165 29.1964 2.06481 28.1392 1.84702C25.5063 1.30535 23.801 1.99501 22.8446 4.50794C22.6084 5.125 22.6718 5.61642 23.6051 5.41818C24.1639 5.29812 24.7429 5.23669 25.3162 5.20039C25.8664 5.16409 26.4051 5.14455 26.431 5.94869C26.454 6.71373 26.0853 6.88126 25.3853 6.88126C22.5335 6.88126 19.8257 7.56813 17.3282 8.84693C11.5843 11.7926 8.67483 16.5951 8.0094 22.7435C7.79336 24.7454 8.05549 26.7697 7.88265 28.7884C7.51682 33.0185 6.11396 36.8354 3.40329 40.2027C2.95679 40.7584 2.24241 41.0543 1.93706 41.6798C1.25147 43.087 2.30002 44.2653 4.20411 44.2681C18.4171 44.2681 32.633 44.2681 46.846 44.2709C47.7101 44.2709 48.5801 44.3323 49.4356 44.243C50.1875 44.1676 50.9653 43.9386 51.2101 43.1094C51.4002 42.4672 51.3974 41.8557 50.8356 41.2777C47.762 38.1031 46.0221 34.3336 45.6246 29.9974C45.4172 27.7526 45.2328 25.5049 45.2127 23.2405V23.2432ZM42.7238 21.7327C48.704 21.783 52.4372 17.3825 52.4776 12.4265C52.515 7.8976 48.9863 3.22355 43.2797 3.10349C37.1699 2.97505 33.4338 7.7217 33.3387 11.8038C33.2033 17.6562 37.6856 21.5903 42.7238 21.7327ZM26.5894 45.9992V46.0132C24.7573 46.0132 22.9253 46.0383 21.0932 45.9992C20.4307 45.9853 20.1023 46.2003 20.2405 46.8229C20.6035 48.4563 20.9751 50.1344 22.4989 51.1703C24.5528 52.5664 26.7709 52.8707 29.11 51.8041C31.2992 50.8017 32.4745 49.1237 32.8058 46.8173C32.8951 46.1891 32.8317 45.9574 32.0914 45.9797C30.2593 46.0327 28.4244 45.9964 26.5894 45.9964V45.9992Z" fill="#13110F"/>
<path d="M45.2128 23.2431C45.2301 25.5076 45.4173 27.7553 45.6247 30.0001C46.0222 34.3364 47.7621 38.1085 50.8358 41.2804C51.3946 41.8584 51.3975 42.4699 51.2103 43.1121C50.9654 43.9413 50.1876 44.1675 49.4358 44.2457C48.5802 44.3322 47.7103 44.2736 46.8461 44.2736C32.6331 44.2736 18.4172 44.2736 4.20425 44.2708C2.30016 44.2708 1.25161 43.0897 1.9372 41.6825C2.24255 41.057 2.95693 40.7611 3.40343 40.2054C6.11409 36.8353 7.51695 33.0212 7.88279 28.7911C8.05563 26.7752 7.7935 24.7509 8.00954 22.7461C8.67497 16.5978 11.5844 11.7953 17.3284 8.84963C19.823 7.56804 22.5308 6.88117 25.3855 6.88396C26.0855 6.88396 26.4542 6.71643 26.4311 5.95138C26.4052 5.14725 25.8665 5.16679 25.3163 5.20309C24.7431 5.23939 24.167 5.30081 23.6052 5.42088C22.6719 5.61912 22.6085 5.1277 22.8447 4.51064C23.8011 1.9977 25.5064 1.30804 28.1393 1.84972C29.1994 2.06751 30.3084 4.04435 30.2076 5.14445C30.1673 5.60237 29.9224 5.61633 29.5624 5.59957C29.0064 5.57165 28.39 5.59957 28.3583 6.3004C28.3266 7.02636 29.0208 6.99565 29.5249 7.08779C30.2998 7.23019 31.0804 7.39772 31.864 7.45077C32.8693 7.51499 32.878 7.97011 32.5006 8.66814C30.2681 12.8005 32.685 18.4686 35.5656 20.7944C37.8442 22.6373 40.7046 23.8881 45.2128 23.2459V23.2431ZM13.9667 13.9816C13.5749 14.0123 13.3646 13.9313 13.186 14.2273C12.7741 14.917 12.2959 15.5675 11.8696 16.246C10.435 18.53 9.91941 21.0737 9.67743 23.6871C9.65151 23.9551 9.59966 24.3321 9.9655 24.3712C10.3227 24.4075 10.2334 24.0277 10.2564 23.8155C10.628 20.2807 11.8062 17.025 13.9696 13.9788L13.9667 13.9816ZM9.15604 33.4373C8.42148 35.6989 7.33836 37.6953 5.96431 39.8173C7.66099 38.9769 9.79266 34.6295 9.15604 33.4373Z" fill="#FAC21D"/>
<path d="M42.7238 21.7326C37.6855 21.5902 33.2033 17.6533 33.3387 11.8037C33.4337 7.72161 37.1699 2.97776 43.2797 3.1034C48.9862 3.22347 52.515 7.89752 52.4775 12.4264C52.4372 17.3824 48.7039 21.7829 42.7238 21.7326ZM45.6505 10.7539C45.6505 9.46671 45.6505 8.17674 45.6505 6.88956C45.6505 6.53216 45.6735 6.17756 45.1723 6.10217C44.4809 5.99886 43.7953 5.82016 43.1011 5.78387C42.5077 5.75036 41.7847 5.74757 41.4131 6.24457C40.523 7.43123 39.5436 8.53413 38.4979 9.58956C38.3423 9.74592 38.2329 9.94695 38.3884 10.1424C38.4547 10.2262 38.639 10.2513 38.7687 10.2485C39.558 10.229 40.9493 11.2258 40.9752 11.9545C41.0444 13.8951 41.3065 15.8356 40.9464 17.7761C40.7909 18.611 41.3987 19.5547 42.162 19.524C42.983 19.4905 43.7867 19.6469 44.6221 19.5324C45.4402 19.4179 45.662 19.1527 45.7426 18.3681C46.0019 15.8216 45.492 13.2919 45.6505 10.7539Z" fill="#E62D2A"/>
<path d="M26.5895 45.9992C28.4245 45.9992 30.2595 46.0355 32.0915 45.9824C32.829 45.9601 32.8952 46.1918 32.8059 46.8201C32.4775 49.1236 31.2993 50.8045 29.1101 51.8068C26.7739 52.8762 24.5558 52.5691 22.4991 51.173C20.9752 50.1371 20.6036 48.4619 20.2406 46.8257C20.1024 46.203 20.4308 45.988 21.0933 46.002C22.9254 46.0411 24.7575 46.0159 26.5895 46.0159V46.002V45.9992Z" fill="#FAC21D"/>
<path d="M13.9665 13.9818C11.8031 17.028 10.625 20.2836 10.2534 23.8185C10.2303 24.0307 10.3196 24.4104 9.96244 24.3741C9.5966 24.335 9.64845 23.9581 9.67438 23.6901C9.91635 21.0738 10.432 18.533 11.8665 16.249C12.2929 15.5677 12.771 14.9171 13.183 14.2303C13.3616 13.9315 13.5719 14.0153 13.9636 13.9846L13.9665 13.9818Z" fill="#13110F"/>
<path d="M9.15585 33.4375C9.79246 34.6298 7.6608 38.9771 5.96411 39.8176C7.33817 37.6955 8.42129 35.6992 9.15585 33.4375Z" fill="#13110F"/>
<path d="M45.6504 10.7545C45.492 13.2925 46.0018 15.8222 45.7426 18.3687C45.6619 19.1532 45.4401 19.4185 44.622 19.533C43.7866 19.6475 42.9801 19.4911 42.162 19.5246C41.3986 19.5553 40.7908 18.6116 40.9463 17.7767C41.3064 15.8362 41.0443 13.8928 40.9751 11.9551C40.9492 11.2263 39.5579 10.2295 38.7686 10.2491C38.639 10.2519 38.4546 10.2267 38.3884 10.143C38.2328 9.94754 38.3423 9.7465 38.4978 9.59014C39.5435 8.53471 40.5258 7.4346 41.413 6.24515C41.7846 5.75094 42.5048 5.75373 43.101 5.78445C43.7953 5.82354 44.4809 5.99944 45.1722 6.10275C45.6734 6.17814 45.6504 6.53274 45.6504 6.89014C45.6504 8.17732 45.6504 9.46729 45.6504 10.7545ZM42.0611 9.98663C42.0611 12.3795 42.0611 14.5155 42.0611 16.6515C42.0611 18.3854 42.0611 18.3379 43.8961 18.4133C44.5874 18.4412 44.7574 18.2374 44.7459 17.6371C44.6854 14.2028 44.6364 10.7712 44.6047 7.33688C44.6019 6.92643 44.4319 6.7617 44.0488 6.75332C43.0377 6.72819 42.0352 6.69189 41.4188 7.72219C41.2085 8.0768 40.9089 8.39789 40.5892 8.67152C40.0303 9.14619 39.9583 9.50638 40.5143 10.0983C41.05 10.6679 41.436 10.788 42.0583 9.98663H42.0611Z" fill="#13110F"/>
<path d="M42.0612 9.98612C41.4361 10.7847 41.053 10.6646 40.5172 10.0978C39.9612 9.50587 40.0332 9.14568 40.5921 8.67102C40.9118 8.40018 41.2114 8.07629 41.4217 7.72169C42.0381 6.69138 43.0406 6.72768 44.0517 6.75281C44.4348 6.76119 44.6019 6.92872 44.6077 7.33637C44.6394 10.7707 44.6912 14.2023 44.7488 17.6366C44.7603 18.2341 44.5904 18.4407 43.899 18.4128C42.0641 18.3374 42.0641 18.3849 42.0641 16.651C42.0641 14.515 42.0641 12.379 42.0641 9.98612H42.0612Z" fill="#FEFEFE"/>
</svg>
