<svg width="54" height="55" viewBox="0 0 54 55" fill="none" xmlns="http://www.w3.org/2000/svg">
<path d="M0 19.4379C0.178751 11.8196 3.75124 5.83021 11.0448 2.05379C14.5266 0.25118 18.1293 -0.390812 21.9788 0.231038C23.2174 0.42993 24.4737 0.565881 25.6973 0.837783C30.4178 1.88511 33.6026 4.77533 35.7249 9.05527C37.4747 12.5799 38.6907 16.1877 38.2803 20.1655C37.9681 23.174 36.8956 25.9485 35.2592 28.4887C34.9042 29.0401 34.7808 29.453 35.2113 29.9842C35.4681 30.2989 35.6821 30.6539 35.876 31.0114C36.1252 31.4646 36.4399 31.5929 36.9586 31.462C37.588 31.3009 38.1846 31.4066 38.7184 31.8598C43.3432 35.7898 47.7012 40.0068 52.0214 44.2616C53.0662 45.2913 53.8543 46.4897 53.9827 48.0204C54.0179 48.4358 54.0154 48.8613 53.819 49.2162C52.8422 50.9886 51.7269 52.6553 49.8487 53.607C48.3357 54.3748 46.961 54.0425 45.7979 52.8894C44.237 51.3411 42.7038 49.7626 41.1907 48.1689C38.4012 45.2283 35.3851 42.5093 32.7416 39.4252C32.0568 38.6272 31.2864 37.8819 31.8856 36.6911C31.9233 36.6156 31.9384 36.4822 31.8956 36.4192C31.3544 35.5708 30.4379 35.1629 29.6625 34.599C29.2245 34.2818 28.7612 34.6242 28.3634 34.8759C26.304 36.18 24.1087 37.1544 21.7094 37.6453C18.1822 38.3678 14.8438 37.7082 11.6037 36.3009C7.71397 34.6116 4.56191 32.0184 2.46978 28.3452C1.00704 25.7798 0.0151005 22.9852 0.00251239 19.4455L0 19.4379ZM37.0819 18.9646C37.0391 14.803 35.6721 11.3589 33.6101 8.11872C32.3539 6.14491 30.8659 4.44301 28.7235 3.42337C27.0417 2.62277 25.2542 2.14442 23.4012 1.92036C20.7275 1.59307 18.0538 1.17766 15.3851 1.98078C8.79906 3.96718 4.02818 7.90472 1.96877 14.6318C0.571492 19.1962 0.903822 23.6549 3.49948 27.7486C5.73764 31.2757 8.79906 33.8739 12.7618 35.392C16.2638 36.7314 19.7985 37.109 23.3358 35.7571C27.5024 34.1659 31.0774 31.7541 33.8241 28.1186C35.9641 25.2863 36.9032 22.1469 37.0794 18.9646H37.0819ZM48.2274 52.3759C48.6353 52.4161 49.0104 52.2777 49.3981 52.1266C50.5058 51.6936 51.0018 50.6664 51.7017 49.8381C52.9026 48.4232 52.9026 47.3431 51.674 46.0315C50.39 44.6619 49.0758 43.3225 47.7818 41.9655C45.03 39.0753 41.7848 36.7138 39.0356 33.8185C38.7159 33.4812 38.303 33.2495 37.8498 33.0758C37.4394 32.9197 37.0769 32.9827 36.7899 33.2344C35.6418 34.2515 34.4208 35.1982 33.517 36.467C33.1242 37.0209 33.0336 37.5924 33.5245 38.0934C34.6222 39.2163 35.4832 40.5406 36.6287 41.6256C39.9319 44.7575 43.162 47.96 46.1982 51.3537C46.7445 51.9655 47.3488 52.4186 48.2299 52.3759H48.2274ZM35.4933 31.9127C35.3725 31.4142 34.9243 30.9912 34.6247 30.4827C34.373 30.0522 34.0633 30.0547 33.7385 30.455C33.162 31.1675 32.4445 31.7365 31.7547 32.3306C30.1535 33.7052 30.166 33.6826 31.8025 34.9993C32.3337 35.4273 32.7164 35.455 33.1368 34.9036C33.7637 34.0803 34.3881 33.2495 35.2013 32.5899C35.3725 32.4515 35.4958 32.2626 35.4908 31.9152L35.4933 31.9127Z" fill="#09090A"/>
<path d="M37.082 18.9646C36.9058 22.1469 35.9642 25.2863 33.8267 28.1186C31.08 31.7566 27.5025 34.166 23.3383 35.7571C19.8011 37.1065 16.2689 36.7314 12.7643 35.392C8.7991 33.8764 5.74021 31.2782 3.50205 27.7486C0.906392 23.6549 0.574062 19.1962 1.97134 14.6318C4.03075 7.90221 8.80414 3.96718 15.3877 1.98078C18.0564 1.17515 20.7301 1.59307 23.4038 1.92036C25.2567 2.14694 27.0442 2.62277 28.726 3.42337C30.8685 4.44301 32.3564 6.14743 33.6127 8.11872C35.6746 11.3564 37.0417 14.803 37.0845 18.9646H37.082ZM4.43356 21.2456C4.41846 23.9621 6.18582 27.9172 10.2845 30.6816C14.7558 33.6952 19.4763 34.5814 24.5241 32.1972C27.6158 30.737 30.3146 28.7984 32.0644 25.7672C33.9224 22.5497 34.6072 19.1006 33.8846 15.4475C33.0588 11.2758 30.9214 7.95256 27.1374 5.85287C24.441 4.35741 21.5005 4.09054 18.4642 4.27181C10.6722 4.73757 4.43608 11.3035 4.43104 21.2456H4.43356Z" fill="#879EA8"/>
<path d="M48.225 52.3758C47.3439 52.4186 46.7396 51.9629 46.1933 51.3537C43.1571 47.9599 39.927 44.7575 36.6239 41.6256C35.4784 40.5405 34.6198 39.2137 33.5196 38.0934C33.0287 37.5924 33.1168 37.0209 33.5121 36.467C34.4134 35.1981 35.6344 34.2515 36.785 33.2344C37.072 32.9826 37.4345 32.9197 37.8449 33.0758C38.2981 33.2495 38.711 33.4811 39.0307 33.8185C41.7799 36.7137 45.0251 39.0753 47.7769 41.9655C49.0709 43.325 50.3877 44.6618 51.6691 46.0314C52.8977 47.3431 52.8977 48.4232 51.6968 49.8381C50.9944 50.6638 50.4984 51.6935 49.3932 52.1266C49.0055 52.2776 48.6304 52.4186 48.2225 52.3758H48.225ZM50.4833 48.6774C50.1359 49.2011 49.6802 49.3597 49.6374 49.8506C49.6248 50.0017 49.7784 50.0823 49.8917 50.0168C50.2794 49.7852 50.5236 49.4503 50.4833 48.6774Z" fill="#334549"/>
<path d="M35.4909 31.9152C35.4959 32.2626 35.3726 32.4515 35.2014 32.5899C34.3882 33.2495 33.7638 34.0804 33.1369 34.9036C32.7165 35.455 32.3338 35.4273 31.8026 34.9993C30.1661 33.6851 30.1536 33.7052 31.7548 32.3306C32.4471 31.7365 33.1621 31.1675 33.7386 30.455C34.0634 30.0547 34.3731 30.0547 34.6248 30.4827C34.9219 30.9887 35.3726 31.4142 35.4934 31.9127L35.4909 31.9152Z" fill="#879EA8"/>
<path d="M4.43359 21.2456C4.43863 11.3036 10.6748 4.73762 18.4668 4.27186C21.503 4.09059 24.4436 4.35746 27.1399 5.85292C30.9264 7.95261 33.0614 11.2733 33.8872 15.4475C34.6097 19.1006 33.9249 22.5497 32.0669 25.7672C30.3172 28.7984 27.6183 30.737 24.5267 32.1972C19.4789 34.5814 14.7583 33.6927 10.287 30.6816C6.18837 27.9198 4.42101 23.9621 4.43611 21.2456H4.43359ZM32.8977 19.3549C32.8826 17.3307 32.6762 15.868 32.2633 14.4531C30.7578 9.31715 27.223 6.43449 21.9008 5.936C18.7286 5.63892 15.6647 6.17014 12.8676 7.61777C9.6224 9.29701 7.38172 11.9053 6.38726 15.5281C5.17881 19.9289 5.54638 24.083 8.65563 27.5422C12.9557 32.3281 19.4965 33.8261 25.5815 30.2536C29.9521 27.6882 32.5981 23.9948 32.9028 19.3574L32.8977 19.3549Z" fill="#09090A"/>
<path d="M50.4831 48.6775C50.5234 49.4504 50.2792 49.7852 49.8915 50.0168C49.7782 50.0848 49.6246 50.0017 49.6372 49.8507C49.68 49.3572 50.1357 49.1986 50.4831 48.6775Z" fill="#13110F"/>
<path d="M32.8976 19.3573C32.593 23.9948 29.947 27.6881 25.5764 30.2536C19.4913 33.8261 12.9531 32.3256 8.65047 27.5421C5.54374 24.0854 5.17364 19.9288 6.3821 15.5281C7.37656 11.9052 9.61724 9.29696 12.8624 7.61771C15.6595 6.17009 18.7234 5.63887 21.8956 5.93595C27.2179 6.43444 30.7526 9.3171 32.2581 14.453C32.6735 15.8679 32.8775 17.3332 32.8926 19.3548L32.8976 19.3573ZM8.08149 19.5336C8.18219 20.1554 8.50193 19.9742 8.77383 19.6872C9.00797 19.4404 9.17162 19.1282 9.36799 18.8463C10.9843 16.5326 12.7139 14.3146 14.9798 12.5824C16.2209 11.6333 17.4873 10.7194 18.7234 9.76524C19.2345 9.36997 19.3956 8.96967 18.5522 8.7733C18.9223 7.98277 18.7813 7.71842 17.8725 7.7436C16.3947 7.78388 15.0528 8.30502 13.8242 9.10059C10.0402 11.5477 7.74916 14.8231 8.08149 19.5336ZM30.6494 22.8065C30.6972 22.6227 30.6494 22.5119 30.521 22.459C30.3649 22.3961 30.2919 22.5295 30.2315 22.6252C29.7053 23.4409 29.1841 24.2566 28.6705 25.0799C28.6051 25.1856 28.59 25.3316 28.7133 25.4147C28.8694 25.5179 29.028 25.4449 29.1313 25.3291C29.8035 24.5713 30.2642 23.6851 30.6494 22.809V22.8065ZM27.3966 25.3669C27.3362 25.4047 27.2733 25.4273 27.233 25.4701C26.6363 26.0995 26.0396 26.7289 25.4581 27.3734C25.3951 27.4414 25.3901 27.6101 25.4253 27.7083C25.4706 27.8342 25.6116 27.8845 25.7325 27.8014C26.5004 27.2652 27.2506 26.7037 27.6408 25.8125C27.7315 25.6035 27.7289 25.3744 27.3991 25.3669H27.3966Z" fill="#CDEAF5"/>
<path d="M18.5523 8.77328C19.3957 8.96714 19.2346 9.36996 18.7235 9.76523C17.4874 10.7194 16.221 11.6333 14.9798 12.5824C12.714 14.3146 10.9844 16.5326 9.36805 18.8463C9.17167 19.1282 9.00802 19.4404 8.77389 19.6871C8.50198 19.9741 8.18225 20.1554 8.08154 19.5336C8.78396 19.6217 8.70592 18.9923 8.789 18.6499C9.0181 17.731 9.30763 16.8296 9.74821 16.0089C10.5916 14.4379 10.9541 12.6101 12.5176 11.4243C14.3328 10.0472 16.2789 9.06785 18.5498 8.7758L18.5523 8.77328Z" fill="#FEFEFE"/>
<path d="M18.5524 8.77329C16.2815 9.06533 14.3379 10.0447 12.5201 11.4218C10.9567 12.6076 10.5917 14.4379 9.75077 16.0064C9.31019 16.8271 9.02067 17.7284 8.79156 18.6474C8.70596 18.9898 8.78653 19.6192 8.08411 19.531C7.75179 14.8206 10.0428 11.5452 13.8268 9.09806C15.0554 8.30249 16.3973 7.78135 17.8751 7.74106C18.784 7.71589 18.9275 7.98024 18.5549 8.77077L18.5524 8.77329Z" fill="#09090A"/>
<path d="M30.6495 22.8065C30.2643 23.6827 29.8011 24.5689 29.1314 25.3267C29.0256 25.445 28.8695 25.518 28.7134 25.4123C28.5901 25.3292 28.6052 25.1831 28.6706 25.0774C29.1842 24.2567 29.7054 23.4384 30.2316 22.6227C30.2945 22.5271 30.3675 22.3936 30.5211 22.4566C30.652 22.5094 30.6973 22.6202 30.6495 22.804V22.8065Z" fill="#13110F"/>
<path d="M27.3992 25.3668C27.7315 25.3743 27.734 25.6034 27.6409 25.8124C27.2507 26.7036 26.5004 27.2651 25.7325 27.8013C25.6142 27.8844 25.4707 27.8341 25.4254 27.7082C25.3902 27.61 25.3952 27.4438 25.4581 27.3733C26.0397 26.7313 26.6364 26.1019 27.233 25.47C27.2733 25.4272 27.3363 25.4046 27.3967 25.3668H27.3992Z" fill="#192D30"/>
</svg>
