<svg width="56" height="56" viewBox="0 0 56 56" fill="none" xmlns="http://www.w3.org/2000/svg">
<path d="M39.7431 48.4072C32.5049 48.4492 25.7021 43.5031 24.299 35.7929C24.1548 35.0035 23.8322 35.0769 23.2185 35.3287C18.5977 37.2143 13.961 37.2772 9.41883 35.1399C2.3249 31.804 -0.940139 23.4828 1.89219 16.1764C4.25508 10.0817 9.94071 5.89874 15.8938 5.87513C23.5411 5.84629 29.5283 10.4488 31.4795 17.8522C31.5555 18.1354 31.6709 18.4187 31.6893 18.7071C31.7496 19.6539 32.2033 19.5359 32.8511 19.2264C41.0491 15.3005 50.2882 18.5734 53.9257 26.8343C56.4118 32.478 55.2107 39.2861 50.5006 43.9306C47.5215 46.8704 43.7949 48.4046 39.7431 48.4072ZM53.5874 32.7875C53.7972 25.8247 47.8519 19.1818 40.1259 19.1189C31.608 19.0507 25.5814 25.704 25.6129 33.1494C25.647 40.9094 31.7785 46.8757 39.7037 46.8862C47.9201 46.8966 53.6083 39.9338 53.5874 32.7875ZM16.5521 35.2107C18.7812 35.3418 20.8137 34.6757 22.8042 33.8207C23.5254 33.5113 23.9004 33.0182 24.0053 32.2C24.5639 27.8361 26.2476 24.044 29.746 21.1959C30.1945 20.8314 30.4698 20.3882 30.3518 19.7457C30.1 18.3924 29.7539 17.0602 29.2189 15.7988C26.7694 10.0266 19.6572 5.88825 12.9566 7.86039C7.13199 9.57552 3.77254 13.6221 2.55044 19.3392C1.85285 22.6042 2.69468 25.885 4.45964 28.7514C7.21066 33.2149 11.4382 35.0953 16.5521 35.2133V35.2107Z" fill="#1E1811"/>
<path d="M12.1242 44.8377C11.6993 44.8168 11.3715 44.6542 11.2771 44.1926C11.1879 43.7625 11.4161 43.5475 11.7885 43.3744C13.4407 42.6112 15.0824 41.8271 16.732 41.0534C17.0572 40.9013 17.4059 40.7414 17.7652 40.883C18.253 41.0744 18.51 41.5071 18.0039 41.8245C16.2179 42.9469 14.4136 44.0562 12.4232 44.8036C12.334 44.8377 12.2291 44.8273 12.1242 44.8377Z" fill="#1D1917"/>
<path d="M24.4346 46.2828C24.3218 47.4682 24.1907 48.9945 24.0307 50.5181C23.9678 51.1161 23.6977 51.6852 23.0289 51.6196C22.2763 51.5488 22.3392 50.8932 22.4022 50.3215C22.5674 48.8319 22.73 47.3423 22.8899 45.8553C22.9503 45.2862 22.8349 44.5912 23.7239 44.586C24.2589 44.5808 24.4215 44.9164 24.4346 46.2854V46.2828Z" fill="#1D1917"/>
<path d="M21.1215 43.7082C21.0454 43.8656 20.972 44.0465 20.8724 44.2117C19.9912 45.6568 19.1074 47.0965 18.2184 48.5363C17.943 48.9847 17.589 49.3571 17.0304 49.011C16.4613 48.6569 16.5504 48.1849 16.8756 47.6682C17.7568 46.2626 18.6013 44.8333 19.4798 43.4276C19.6844 43.0998 19.9335 42.7484 20.4239 42.9346C20.7727 43.0683 21.0481 43.2808 21.1241 43.7108L21.1215 43.7082Z" fill="#1D1917"/>
<path d="M34.7068 7.94958C34.7068 7.1025 34.6937 6.25543 34.712 5.40835C34.7225 4.90483 34.7907 4.36722 35.4673 4.37509C36.1308 4.38033 36.359 4.81829 36.3196 5.42934C36.2147 7.08677 36.102 8.7442 35.9997 10.4016C35.963 10.9681 35.6771 11.4034 35.1159 11.3615C34.5389 11.3195 34.5232 10.7609 34.518 10.2941C34.5127 9.5126 34.518 8.73109 34.518 7.94958C34.5809 7.94958 34.6438 7.94958 34.7068 7.94958Z" fill="#1D1917"/>
<path d="M41.946 14.4184C41.5788 14.4184 41.3008 14.3214 41.1566 14.0303C40.9914 13.692 41.0963 13.3642 41.3848 13.1622C42.9268 12.0791 44.5239 11.08 46.1918 10.2014C46.5564 10.01 46.8921 10.1254 47.1228 10.4715C47.351 10.8125 47.2277 11.1377 46.9419 11.3265C45.4261 12.3388 43.8945 13.3248 42.363 14.3109C42.2345 14.3948 42.0509 14.3922 41.9434 14.4184H41.946Z" fill="#1D1917"/>
<path d="M42.5925 6.91613C42.5243 7.05513 42.443 7.26755 42.325 7.45375C41.4596 8.83057 40.5941 10.2074 39.7077 11.5711C39.4245 12.0065 39.0626 12.531 38.4594 12.1507C37.8457 11.7652 38.0634 11.2171 38.3938 10.7057C39.2068 9.44949 40.0067 8.18544 40.8144 6.92663C41.0924 6.49653 41.4202 6.1556 42.0077 6.27361C42.3302 6.33918 42.5505 6.48342 42.5899 6.91351L42.5925 6.91613Z" fill="#1D1917"/>
<path d="M53.5918 32.7863C53.6101 39.9327 47.9245 46.8955 39.7081 46.885C31.7829 46.8745 25.6514 40.9083 25.6173 33.1482C25.5858 25.7029 31.6098 19.0495 40.1304 19.1177C47.8563 19.1806 53.8016 25.8261 53.5918 32.7863ZM39.5718 41.2256C41.8874 41.4537 43.7101 40.4388 45.4252 39.104C47.0171 37.8635 47.8956 36.2113 48.2654 34.2654C48.3624 33.7566 48.2733 33.2216 47.7016 33.0564C47.1823 32.9069 46.844 33.2741 46.6342 33.7199C46.5372 33.9245 46.4716 34.1474 46.4192 34.3677C46.0992 35.6763 45.4121 36.7516 44.447 37.6852C41.2344 40.8034 35.339 39.8015 33.5268 35.8127C33.2672 35.2384 33.1046 34.3991 32.192 34.8371C31.3606 35.2384 31.8301 35.9543 31.9769 36.5601C32.0005 36.6519 32.0635 36.7358 32.1107 36.8224C33.7235 39.7937 36.2805 41.1522 39.5718 41.2256ZM44.2162 25.3803C43.0177 25.2229 42.2546 26.1067 41.5911 27.1636C41.3262 27.5832 41.4469 27.9294 41.7957 28.1838C42.1812 28.467 42.5431 28.4329 42.9024 28.0317C44.1192 26.6784 44.4706 26.6548 45.8632 27.814C46.1753 28.0736 46.4506 28.2179 46.8178 27.9792C47.24 27.7065 47.1692 27.3288 47.0197 26.9459C46.6342 25.9677 45.6219 25.3541 44.2189 25.3803H44.2162ZM34.5103 26.1067C33.3275 25.9546 32.4909 26.5447 31.8196 27.4101C31.5232 27.793 31.2269 28.2415 31.7304 28.7083C32.2759 29.2118 32.5985 28.7738 32.9551 28.4277C33.8914 27.5203 34.5549 27.4731 35.5803 28.2913C35.9448 28.5798 36.2936 28.6375 36.6424 28.3647C37.0541 28.0448 37.0227 27.633 36.7421 27.2344C36.1992 26.4608 35.4832 26.0097 34.505 26.1041L34.5103 26.1067Z" fill="#F9CB1D"/>
<path d="M16.5511 35.2026C11.4372 35.0872 7.2097 33.2042 4.45868 28.7407C2.69372 25.8743 1.85189 22.5935 2.54948 19.3284C3.77157 13.6113 7.13103 9.56478 12.9556 7.84965C19.6562 5.87751 26.7685 10.0159 29.2179 15.788C29.7529 17.0495 30.0991 18.3817 30.3508 19.7349C30.4715 20.3774 30.1935 20.8206 29.745 21.1852C26.2492 24.0332 24.5656 27.8254 24.0043 32.1893C23.8994 33.0075 23.5218 33.5006 22.8032 33.81C20.8127 34.665 18.7829 35.3311 16.5511 35.1999V35.2026ZM15.1166 29.2468C17.7418 29.2285 19.8765 28.0772 21.3582 25.7772C22.1581 24.5368 21.8591 23.7474 20.4325 23.4301C16.8973 22.6433 13.3884 21.7857 10.0499 20.3355C9.26576 19.9946 8.81993 20.2857 8.59439 21.1013C8.36099 21.9405 8.41344 22.7666 8.58915 23.611C9.2002 26.5482 11.786 28.9557 15.1166 29.2468ZM12.2738 13.2337C11.4661 13.2337 10.3882 13.9654 10.1128 14.6971C9.96073 15.1036 9.99482 15.4759 10.3594 15.7539C10.7842 16.0765 11.0071 15.7146 11.2431 15.455C12.2685 14.3273 13.1995 14.5187 13.7031 15.9716C13.7922 16.2312 13.8657 16.4882 14.1856 16.5014C14.5082 16.5145 14.7495 16.323 14.8963 16.0555C15.0825 15.7225 15.0379 15.3658 14.9304 15.0118C14.6 13.9391 13.5457 13.2284 12.2738 13.2311V13.2337ZM24.3217 18.0408C24.34 17.1622 23.8076 16.4279 22.8714 16.0319C21.6152 15.5022 20.4797 15.6517 19.7113 16.4882C19.3703 16.858 18.8747 17.2566 19.4123 17.81C19.8791 18.2899 20.2332 17.9752 20.6501 17.6185C21.6467 16.7715 22.4938 17.0337 22.9265 18.3135C23.0917 18.7987 23.3749 18.9167 23.8077 18.8511C24.2771 18.7803 24.3243 18.421 24.3217 18.0408Z" fill="#F68A27"/>
<path d="M39.5631 41.2187C36.2692 41.1453 33.7122 39.7868 32.102 36.8155C32.0548 36.7289 31.9918 36.6476 31.9682 36.5532C31.8214 35.9474 31.3519 35.2315 32.1833 34.8302C33.0959 34.3923 33.2559 35.2315 33.5182 35.8058C35.3303 39.7947 41.2257 40.7965 44.4383 37.6783C45.4034 36.742 46.0905 35.6668 46.4105 34.3608C46.4655 34.1405 46.5285 33.9176 46.6255 33.713C46.8353 33.2672 47.1736 32.9 47.6929 33.0495C48.2646 33.2147 48.3538 33.7497 48.2567 34.2585C47.887 36.2044 47.0084 37.8566 45.4165 39.0971C43.7014 40.4319 41.8788 41.4469 39.5631 41.2187Z" fill="#1E1811"/>
<path d="M44.2082 25.377C45.6113 25.3534 46.6236 25.9645 47.0091 26.9427C47.1586 27.323 47.232 27.7032 46.8072 27.976C46.44 28.212 46.162 28.0704 45.8526 27.8107C44.46 26.6516 44.1086 26.6726 42.8917 28.0284C42.5324 28.427 42.1732 28.4638 41.785 28.1805C41.4389 27.9261 41.3156 27.5826 41.5805 27.1604C42.2466 26.1061 43.0071 25.2223 44.2056 25.377H44.2082Z" fill="#1E1811"/>
<path d="M34.5012 26.0994C35.4794 26.005 36.1927 26.4561 36.7382 27.2297C37.0188 27.6283 37.0477 28.0401 36.6386 28.36C36.2898 28.6328 35.9384 28.5751 35.5765 28.2866C34.5511 27.4684 33.8876 27.5156 32.9513 28.423C32.5946 28.7691 32.2721 29.2045 31.7266 28.7036C31.2204 28.2368 31.5168 27.7883 31.8158 27.4054C32.4871 26.54 33.3211 25.9499 34.5065 26.102L34.5012 26.0994Z" fill="#1E1811"/>
<path d="M15.1163 29.2546C11.7857 28.9635 9.19985 26.5586 8.5888 23.6188C8.41309 22.7743 8.36064 21.9482 8.59405 21.109C8.81958 20.2934 9.26804 20.0023 10.0495 20.3432C13.388 21.7935 16.8943 22.6537 20.4321 23.4378C21.8588 23.7551 22.1577 24.5419 21.3579 25.785C19.8761 28.0849 17.7414 29.2362 15.1163 29.2546ZM9.98661 21.9561C9.96563 22.0951 9.93153 22.2183 9.92891 22.3442C9.90269 24.5026 11.408 26.598 13.6398 27.5211C15.4624 28.2738 17.9827 27.584 19.5326 25.9082C20.3928 24.9772 20.3272 24.6966 19.0448 24.4658C16.6295 24.0279 14.2482 23.485 11.9404 22.6406C11.3031 22.4072 10.7209 22.0112 9.98661 21.9561Z" fill="#1E1811"/>
<path d="M12.2774 13.2422C13.5467 13.2422 14.6035 13.9503 14.934 15.0229C15.0441 15.3769 15.0861 15.7336 14.8999 16.0666C14.7504 16.3341 14.5117 16.523 14.1892 16.5125C13.8692 16.4994 13.7984 16.2424 13.7066 15.9827C13.2031 14.5298 12.2695 14.3384 11.2467 15.4661C11.0133 15.7231 10.7878 16.0876 10.3629 15.7651C9.99839 15.4871 9.9643 15.1147 10.1164 14.7082C10.3891 13.9765 11.4696 13.2448 12.2774 13.2448V13.2422Z" fill="#1E1811"/>
<path d="M24.3162 18.0448C24.3215 18.4251 24.2743 18.7844 23.8048 18.8552C23.3721 18.9207 23.0889 18.8027 22.9237 18.3176C22.491 17.0378 21.6439 16.7755 20.6473 17.6226C20.2277 17.9793 19.8763 18.2913 19.4095 17.814C18.8719 17.2633 19.3675 16.8621 19.7085 16.4923C20.4769 15.6557 21.615 15.5062 22.8686 16.036C23.8048 16.432 24.3346 17.1663 24.3189 18.0448H24.3162Z" fill="#1E1811"/>
<path d="M9.98779 21.9609C10.7221 22.0134 11.3043 22.412 11.9416 22.6454C14.252 23.4872 16.6333 24.0327 19.046 24.4707C20.3284 24.7015 20.394 24.9821 19.5338 25.9131C17.9865 27.5889 15.4636 28.2812 13.641 27.5259C11.4066 26.6028 9.90125 24.5048 9.93009 22.3491C9.93009 22.2232 9.96681 22.0973 9.98779 21.9609Z" fill="#E32719"/>
</svg>
