<svg width="54" height="54" viewBox="0 0 54 54" fill="none" xmlns="http://www.w3.org/2000/svg">
<path d="M0.00496209 23.766C0.00496209 23.0776 -0.00881387 22.3866 0.00954137 21.6982C0.0210134 21.276 -0.0684633 20.7735 0.40189 20.5474C0.860771 20.3288 1.15675 20.6781 1.44584 20.9846C2.24429 21.8364 3.05881 22.6756 3.82744 23.56C4.23584 24.0324 4.47675 24.1731 4.94711 23.5776C8.67093 18.8615 12.4819 14.2308 16.3434 9.6503C17.0409 8.82115 17.7774 8.02968 18.4841 7.20807C19.1495 6.43419 19.5005 6.41157 20.1819 7.16033C22.123 9.28849 24.0503 11.4317 26.0006 13.5498C28.256 15.9996 30.5366 18.4218 32.7851 20.8766C33.283 21.4193 33.5629 21.5122 34.1044 20.8363C37.9728 16.0097 41.8801 11.2182 45.815 6.45429C46.3657 5.78845 46.3175 5.42161 45.6934 4.96935C45.4571 4.79849 45.246 4.5799 45.0372 4.36633C44.2273 3.53466 44.3122 2.95928 45.3883 2.54972C46.4919 2.13012 47.6345 1.83113 48.7542 1.46178C50.0918 1.01956 51.4203 0.537139 52.7625 0.107486C53.7216 -0.19905 54.1414 0.145179 53.9579 1.20298C53.4807 3.93416 52.9438 6.6553 52.3862 9.36889C52.2279 10.1403 51.7553 10.2357 51.0532 9.86388C50.5828 9.61513 50.2914 8.81109 49.7041 9.07994C49.2635 9.28346 48.9354 9.81362 48.5982 10.2382C44.2824 15.6805 39.6637 20.8213 35.3136 26.2284C34.974 26.6505 34.5908 27.0349 34.2673 27.4721C33.7304 28.1932 33.2188 28.1656 32.6039 27.5676C29.0682 24.1354 25.6931 20.5223 22.4213 16.7911C21.5517 15.7986 20.6202 14.8664 19.7162 13.9117C19.3743 13.5498 19.0875 13.5147 18.7319 13.9669C15.4853 18.1001 12.1401 22.1354 8.73517 26.1153C7.54208 27.5098 6.39717 28.9545 5.26144 30.4043C4.73143 31.0802 4.26108 31.1003 3.68518 30.4847C2.64352 29.3666 1.5835 28.2636 0.50972 27.1806C0.0210117 26.6882 0.0347759 26.0851 0.0485423 25.4545C0.0600144 24.8917 0.050839 24.3263 0.050839 23.7635C0.0370726 23.7635 0.0233056 23.7635 0.00724473 23.7635L0.00496209 23.766ZM51.5557 1.50197C51.4409 1.55222 51.3239 1.60248 51.2092 1.65524C49.5526 2.15525 47.9052 2.69546 46.2969 3.36129C46.0927 3.44672 45.7646 3.46179 45.799 3.75074C45.838 4.07235 46.1776 3.89647 46.3772 3.96431C46.5791 4.27336 46.8315 4.51206 47.1206 4.72814C47.6506 5.12513 47.7791 5.48694 47.2812 6.15781C45.8036 8.15029 44.1264 9.93171 42.557 11.8237C41.8297 12.7006 41.045 13.5322 40.3957 14.4745C39.1957 16.2207 37.7319 17.7057 36.4791 19.3941C35.6027 20.5725 34.6115 21.6454 33.8199 22.9017L33.7947 22.9293C33.7144 22.9268 33.6341 22.9243 33.5537 22.9193C32.7163 22.4746 32.3262 21.4243 31.4337 21.0549V21.06C30.2475 19.7258 29.1714 18.266 27.8269 17.0976C26.9734 16.0247 26.1245 14.9494 25.0713 14.0951C24.8671 13.8363 24.6698 13.5699 24.4564 13.3212C23.5662 12.2785 22.5245 11.4141 21.6687 10.3237C21.0768 9.5699 20.3586 8.93673 19.7185 8.22818C19.3606 7.83119 19.2114 7.94677 19.1426 8.4317C18.3786 8.51461 17.9587 9.13271 17.5273 9.7106C16.7794 10.7106 16.1828 11.9016 15.2903 12.7056C13.5534 14.271 12.3328 16.3288 10.7267 18.0097C9.83189 18.9469 9.03344 20.0072 8.1891 20.9972C7.24151 22.1102 6.41782 23.3364 5.43811 24.4243C4.34139 25.6429 4.42857 25.7359 3.36855 24.658C2.67794 23.7937 2.03321 22.8715 0.989257 22.1781C0.989257 22.7183 0.989257 23.1077 0.989257 23.4947C0.984668 23.7761 0.959432 24.06 0.977788 24.3414C1.06498 25.6505 1.14527 26.9344 2.32918 27.7661C2.92343 28.1832 3.44657 28.7485 3.91922 29.3264C4.35286 29.8565 4.58917 29.8038 4.98381 29.2736C5.98876 27.9244 7.04419 26.6203 8.09732 25.3138C9.40742 23.6881 10.9791 22.3489 12.2066 20.6203C14.0398 18.0373 16.0176 15.5825 18.0711 13.2031C19.0141 12.1126 19.3697 12.1528 20.3426 13.1579C21.2695 14.1152 22.2286 15.0398 23.1716 15.977C23.8484 16.683 24.2476 17.6755 25.0277 18.2584C25.7918 18.8288 26.4847 19.4519 27.0331 20.2786C27.2602 20.6228 27.4369 21.0122 27.8086 21.2534C29.0567 22.065 30.1053 23.1203 30.9152 24.4444C31.3764 25.3062 32.2161 25.6655 32.8884 26.2485C33.4069 26.7007 33.8038 26.5399 34.1342 26.0701C34.7973 25.1253 35.683 24.3891 36.3139 23.4419C38.6611 19.9243 41.926 17.3238 44.2732 13.8212C45.4869 12.0096 47.1458 10.6503 48.3412 8.81361C49.1855 7.5146 49.7729 7.47691 50.9752 8.38898C51.5488 8.82366 51.613 8.24074 51.6451 7.99199C51.9296 5.87639 52.7442 3.87637 52.7832 1.708C53.0195 1.33112 53.0516 1.0472 52.5124 1.16026C52.1866 1.2281 51.8746 1.37885 51.5579 1.49443L51.5557 1.50197Z" fill="#09090A"/>
<path d="M51.7299 32.8114C51.7299 39.3592 51.7345 45.9045 51.7253 52.4523C51.7253 53.5 51.3238 53.9699 50.3808 53.9825C48.348 54.0101 46.3128 54.0026 44.2777 53.9774C43.4884 53.9674 43.181 53.5025 43.1764 52.4372C43.1718 50.7136 43.1695 48.9925 43.1672 47.2688C43.158 38.5602 43.1672 29.8515 43.119 21.1429C43.1121 19.7032 43.4127 18.5198 44.4131 17.5424C46.205 15.7886 47.8983 13.9142 49.7728 12.2634C50.1628 11.9192 50.5506 11.4644 51.1425 11.8287C51.6748 12.1529 51.7322 12.6981 51.7253 13.2835C51.6863 17.3841 51.59 21.4871 51.6381 25.5852C51.668 27.9947 51.567 30.4043 51.7253 32.8114H51.7299ZM50.3533 52.8669C50.7663 52.8618 50.6791 52.5377 50.6791 52.2638C50.686 48.1331 50.6974 44.0024 50.6997 39.8692C50.702 35.3767 50.7043 30.8867 50.6951 26.3942C50.6883 22.1052 50.6699 17.8188 50.6538 13.5298C50.686 12.7458 50.3831 12.9217 50.0252 13.271C48.3847 14.8765 46.7189 16.4519 45.122 18.1077C44.5209 18.7308 43.8326 19.4117 43.9863 20.5047C44.2043 22.0575 44.0804 23.6304 44.0505 25.1781C43.9932 28.3013 44.218 31.4169 44.0368 34.5451C43.8349 38.0049 44.0781 41.4873 44.0436 44.9547C44.0184 47.3668 44.1217 49.7688 44.1607 52.1759C44.1675 52.5905 44.1446 53.0427 44.7022 53.0302C46.5859 52.9875 48.4719 53.1056 50.3487 52.8618L50.3533 52.8669Z" fill="#13110F"/>
<path d="M24.4404 39.5599C24.2982 41.9268 24.5781 46.658 24.5345 51.3917C24.5116 53.8817 24.3991 53.9897 22.1483 53.9872C20.1705 53.9872 18.1928 53.9948 16.2127 53.9822C14.8842 53.9747 14.6158 53.6555 14.6135 52.1957C14.6112 42.8238 14.6296 33.4518 14.5837 24.0799C14.5745 22.4115 14.9118 21.0472 16.098 19.909C17.1282 18.919 18.0413 17.7858 18.9866 16.6954C19.3629 16.2607 19.6887 16.2481 20.0857 16.6451C21.4187 17.9768 22.7128 19.3512 23.9655 20.7733C24.4083 21.2758 24.4336 21.8989 24.4359 22.5246C24.4427 27.4141 24.4404 32.3036 24.4404 39.5574V39.5599ZM23.3552 52.4872C23.5915 52.3038 23.4974 52.0349 23.4974 51.7987C23.502 49.055 23.4745 46.3087 23.5112 43.5675C23.5525 40.57 23.5777 37.5674 23.6007 34.5724C23.6236 31.2458 23.4171 27.904 23.541 24.5824C23.6259 22.3361 23.1487 20.6225 21.2925 19.517C20.9025 19.022 20.5996 18.4466 20.1338 18.0195C19.753 17.6728 19.4524 17.5697 19.0463 18.0471C18.1538 19.0999 17.2268 20.125 16.2701 21.1075C15.6919 21.7004 15.5359 22.3914 15.5427 23.2155C15.5703 26.2532 15.5817 29.291 15.5794 32.3262C15.5726 38.9343 15.5565 45.5424 15.5336 52.1505C15.5336 52.6229 15.5978 52.8942 16.1278 52.9219C18.358 53.04 20.5835 53.0877 22.8137 52.9219C23.0822 52.9018 23.3414 52.8817 23.3529 52.4872H23.3552Z" fill="#09090A"/>
<path d="M28.1321 39.6884C28.1321 35.5527 28.1321 31.4195 28.1344 27.2837C28.1344 26.8918 28.0174 26.4295 28.4648 26.2159C28.8571 26.0274 29.1164 26.3641 29.3757 26.5852C30.259 27.329 31.1125 28.1179 32.0028 28.8491C32.8999 29.5853 33.7626 29.5727 34.662 28.824C35.504 28.1229 36.3163 27.3767 37.1445 26.6581C37.4474 26.3943 37.7204 25.9671 38.1839 26.2008C38.6474 26.4345 38.6543 26.937 38.6772 27.4144C38.8516 31.1707 38.746 34.9295 38.7414 38.6859C38.7368 42.9447 38.785 47.206 38.8011 51.4649C38.8011 51.9925 38.8539 52.5277 38.7001 53.0503C38.5235 53.6483 38.2114 54.0026 37.5897 54.0001C34.8685 53.985 32.145 54.0001 29.4239 53.9825C28.49 53.9775 28.2308 53.6257 28.2285 52.377C28.2193 48.1483 28.2262 43.9196 28.2262 39.6909C28.1941 39.6909 28.1619 39.6909 28.1298 39.6909L28.1321 39.6884ZM32.8035 30.4647C31.358 29.9923 30.438 28.6079 29.0522 27.7913C29.0522 28.143 29.0476 28.3566 29.0522 28.5702C29.1325 32.4119 29.0223 36.2562 29.1118 40.1005C29.2059 44.1256 29.0866 48.1583 29.0545 52.186C29.0522 52.5855 29.0269 52.9172 29.5501 52.9423C31.8926 53.0554 34.2352 53.1358 36.5801 53.0076C37.7388 53.0604 37.787 53.0453 37.7296 51.8292C37.6791 50.7739 37.7342 49.7262 37.7526 48.6734C37.8214 44.8166 37.787 40.9598 37.7778 37.1029C37.7709 34.2009 37.7503 31.3014 37.7204 28.3993C37.7181 28.1682 37.7204 27.8466 37.5002 27.731C37.3074 27.633 37.1377 27.8641 36.9793 27.9898C36.8417 28.0978 36.7292 28.2435 36.5939 28.3591C35.4581 29.339 34.428 30.5426 32.8012 30.4622L32.8035 30.4647Z" fill="#09090A"/>
<path d="M10.433 40.7711C10.316 44.432 10.4399 48.3491 10.4262 52.2662C10.4193 53.8064 10.2541 53.9848 8.83384 53.9874C6.68398 53.9874 4.53411 53.9949 2.38655 53.9522C0.88601 53.922 0.732294 53.7788 0.718528 52.1909C0.663462 45.1707 0.640509 38.1505 0.608387 31.1303C0.608387 30.8238 0.564803 30.4544 0.890608 30.3087C1.17511 30.1806 1.4275 30.3439 1.67988 30.5323C2.45998 31.1203 3.21254 31.7459 3.85038 32.5123C4.32303 33.0801 4.71538 33.0625 5.20179 32.4947C6.49354 30.9871 7.82429 29.5172 9.14128 28.0373C9.41202 27.7333 9.65294 27.2635 10.1279 27.4871C10.5569 27.6906 10.4262 28.1856 10.4285 28.575C10.4353 32.555 10.433 36.5349 10.433 40.7737V40.7711ZM9.2583 29.4846C9.15734 29.3188 9.10228 29.4268 9.04722 29.5273C7.90001 30.8213 6.76887 32.1329 5.60331 33.4042C4.82321 34.2535 4.34599 34.2158 3.46035 33.4645C2.84086 32.9369 2.35673 32.2158 1.48485 31.7761C1.74182 33.8439 1.52156 35.7962 1.56974 37.756C1.68217 42.2938 1.62253 46.839 1.63859 51.3818C1.64318 52.9471 1.65235 52.9446 3.04046 52.9019C3.18272 52.8969 3.32726 52.917 3.46952 52.922C4.69932 52.9748 5.92683 53.1306 7.15892 53.015C7.73253 53.02 8.30383 53.0351 8.87743 53.0275C9.24913 53.0225 9.45792 52.8341 9.43497 52.3843C9.37991 51.2587 9.46251 50.1356 9.48086 49.0149C9.51528 46.5777 9.45104 44.138 9.40974 41.6983C9.35467 38.4621 9.68506 35.2259 9.41891 31.9871C9.41891 31.9193 9.41661 31.854 9.41432 31.7861C9.40055 31.2836 9.38679 30.7836 9.37531 30.2811C9.37531 30.0951 9.37531 29.9067 9.37531 29.7208C9.39826 29.6127 9.37532 29.5298 9.26748 29.4971L9.26289 29.4871L9.2583 29.4846Z" fill="#09090A"/>
<path d="M33.5493 22.919C33.6296 22.9215 33.7099 22.924 33.7925 22.9291L33.8177 22.9014C34.607 21.6451 35.6005 20.5722 36.4769 19.3938C37.732 17.7054 39.1935 16.2179 40.3935 14.4742C41.0428 13.532 41.8275 12.7003 42.5548 11.8234C44.1265 9.93142 45.8037 8.15 47.279 6.15751C47.7769 5.48665 47.6484 5.12484 47.1184 4.72785C46.8316 4.51177 45.7417 3.91637 45.5421 3.60984C45.8863 3.23295 46.3314 3.15254 46.8041 2.98169C47.4373 2.75304 48.2839 2.32088 48.9837 2.22791C49.7455 2.12741 51.2781 1.47414 51.2781 1.47414C51.2781 1.47414 52.5125 0.989203 52.8842 1.09724C52.8452 3.2631 51.9275 5.88615 51.643 8.00175C51.6085 8.2505 51.5466 8.83342 50.973 8.39874C49.7707 7.48667 49.1833 7.52436 48.339 8.82337C47.1436 10.6601 45.4848 12.0194 44.271 13.831C41.9239 17.3335 38.6589 19.934 36.3117 23.4517C35.6808 24.3989 34.7951 25.1351 34.1321 26.0798C33.8017 26.5497 33.4047 26.7105 32.8862 26.2582C32.2139 25.6753 31.3742 25.3135 30.913 24.4542L30.1696 23.4592C29.6717 22.8411 29.9012 23.3059 29.4813 22.7054C28.8641 21.8235 27.6175 21.185 27.6458 21.1979C27.4852 21.1702 26.588 19.8335 26.4986 19.6903C26.0007 18.8762 25.1219 18.434 24.2042 17.5546L23.1694 15.9817C22.2241 15.0445 21.2673 14.1199 20.3404 13.1626C19.3675 12.1576 19.0119 12.1174 18.0689 13.2078C16.0154 15.5847 14.0377 18.0421 12.2044 20.625C10.9792 22.3537 9.40524 23.6929 8.09513 25.3185C7.042 26.6251 5.98887 27.9291 4.98162 29.2784C4.58698 29.8085 4.34838 29.8613 3.91703 29.3311C3.44438 28.7532 2.92126 28.1854 2.32701 27.7708C1.1431 26.9417 1.06279 25.6552 0.9756 24.3461C0.957245 24.0647 0.98248 23.7833 0.987069 23.4994L0.9756 22.1335C1.1821 21.9475 3.36637 24.6627 3.36637 24.6627C4.42638 25.7406 4.3392 25.6477 5.43592 24.4291C6.41564 23.3411 7.23703 22.115 8.18691 21.0019C9.02896 20.0119 9.82971 18.9516 10.7245 18.0144C12.3306 16.3335 13.5535 14.2757 15.2881 12.7103C16.1806 11.9063 16.7772 10.7153 17.5251 9.71533C17.9565 9.13744 18.6196 7.96405 19.3859 7.88114C20.1912 8.42637 20.5308 9.11733 21.3362 9.76558C22.13 10.4063 22.7747 11.7731 23.6306 12.4038C24.1858 12.8108 25.0692 14.0998 25.0692 14.0998C26.1223 14.9516 27.0217 15.9792 27.8752 17.0521L31.0874 20.5697L31.5463 20.9466C31.5463 20.9466 32.0648 21.4139 32.3493 21.4491C32.3493 21.4491 32.5076 21.5923 32.8082 21.9516L33.5516 22.9265L33.5493 22.919Z" fill="#192D30"/>
<path d="M50.3534 52.8645C48.4765 53.1082 46.5882 52.9902 44.7068 53.0329C44.1493 53.0454 44.1722 52.5957 44.1654 52.1786C44.1264 49.7715 44.0231 47.3695 44.0483 44.9574C44.0828 41.49 43.8419 38.0076 44.0415 34.5478C44.2227 31.4171 43.9979 28.3015 44.0552 25.1808C44.0828 23.6331 44.2067 22.0602 43.991 20.5074C43.8373 19.4144 44.5279 18.736 45.1267 18.1104C46.7213 16.4521 48.3894 14.8792 50.0299 13.2737C50.3855 12.9244 50.6883 12.7485 50.6585 13.5325C50.2134 13.5073 50.2019 13.8214 50.1675 14.1958C50.1193 14.7058 50.1331 15.5099 49.8692 15.6606C48.963 16.1807 49.0433 17.0275 48.9767 17.8692C48.7955 17.8993 48.4926 17.8039 48.5293 18.1355C48.6372 19.1179 48.3549 20.1783 49.0203 21.0551C49.2337 21.3366 49.1304 21.5954 48.924 21.8868C48.3435 22.7135 48.3687 23.1984 49.0501 23.8667C49.2566 24.0703 49.3369 24.2688 49.1098 24.3316C48.5018 24.5024 48.7932 24.9195 48.8115 25.2813C48.8528 26.0929 48.5936 26.9522 49.1396 27.6834C49.1809 27.7361 49.1717 27.8994 49.1259 27.9547C48.7106 28.4598 48.8276 29.1783 48.5867 29.6859C48.3274 30.2311 48.9675 30.3944 48.7358 30.8718C48.3618 31.6407 48.6922 32.5879 48.3412 33.3945C48.2609 33.5804 48.3091 33.7764 48.4421 33.9121C49.2291 34.7111 48.6876 35.8015 48.9538 36.7161C48.9905 36.8417 48.8597 37.1005 48.7381 37.191C48.2379 37.5629 48.0957 38.0679 48.4903 38.5302C48.9239 39.0403 48.7588 39.5553 48.7243 40.093C48.7243 40.1081 48.7611 40.1282 48.7886 40.1508C49.002 40.186 49.096 39.7162 49.3782 39.98C49.4081 40.6584 48.4192 41.0755 48.9354 41.9046C48.963 41.9498 48.8597 42.1483 48.7771 42.2086C48.1484 42.6684 48.371 43.1232 48.6624 43.7162C48.9331 44.2639 49.6696 45.0026 48.527 45.4851C48.4788 45.5052 48.4674 45.6534 48.4582 45.7439C48.3917 46.4675 48.2655 47.1836 48.4169 47.9198C48.5408 48.5228 48.6762 49.1208 48.6647 49.7615C48.6509 50.5228 48.745 51.2891 48.8046 52.0504C48.823 52.2841 48.8368 52.6836 49.1557 52.4952C49.7109 52.1685 49.9679 52.7012 50.3534 52.8595V52.8645ZM48.7542 15.8767C48.7335 15.9295 48.7129 15.9797 48.6922 16.0325C48.7404 16.0551 48.7978 16.1054 48.8322 16.0903C48.8666 16.0752 48.8758 15.9948 48.8964 15.942C48.8482 15.9194 48.8024 15.8968 48.7542 15.8742V15.8767Z" fill="#1B8C8F"/>
<path d="M48.9745 17.8665C49.041 17.0273 48.9584 16.178 49.867 15.6579C50.1308 15.5071 50.1171 14.7056 50.1653 14.1931C50.1997 13.8187 50.2111 13.5046 50.6563 13.5297C50.67 17.8187 50.6884 22.1052 50.6953 26.3942C50.7021 30.8867 50.7021 35.3767 50.6998 39.8692C50.6976 43.9999 50.6861 48.1306 50.6792 52.2638C50.6792 52.5377 50.7641 52.8618 50.3534 52.8668C49.9679 52.7085 49.711 52.1759 49.1557 52.5025C48.8345 52.6909 48.823 52.2889 48.8047 52.0578C48.745 51.2939 48.6486 50.5301 48.6647 49.7688C48.6762 49.1281 48.5408 48.5301 48.4169 47.9271C48.2655 47.1909 48.3917 46.4748 48.4582 45.7512C48.4674 45.6607 48.4789 45.5125 48.5271 45.4924C49.6697 45.01 48.9332 44.2713 48.6624 43.7235C48.371 43.1331 48.1462 42.6783 48.7771 42.216C48.8597 42.1557 48.963 41.9572 48.9354 41.9119C48.4192 41.0828 49.4081 40.6657 49.3783 39.9873C49.0961 39.726 49.002 40.1933 48.7886 40.1581C48.7611 40.1355 48.7221 40.1154 48.7244 40.1004C48.7588 39.5627 48.924 39.0476 48.4903 38.5375C48.0934 38.0727 48.238 37.5702 48.7381 37.1983C48.8597 37.1079 48.9905 36.8491 48.9538 36.7234C48.6877 35.8089 49.2291 34.7159 48.4422 33.9194C48.3068 33.7837 48.2586 33.5852 48.3412 33.4018C48.6922 32.5953 48.3618 31.648 48.7358 30.8792C48.9676 30.4018 48.3297 30.2384 48.5867 29.6932C48.8276 29.1857 48.7106 28.4671 49.1259 27.962C49.1695 27.9068 49.1787 27.746 49.1397 27.6907C48.5913 26.957 48.8529 26.1002 48.8116 25.2886C48.7932 24.9293 48.5018 24.5097 49.1098 24.3389C49.337 24.2761 49.2567 24.0776 49.0502 23.8741C48.371 23.2057 48.3435 22.7183 48.924 21.8941C49.1305 21.6027 49.2337 21.3439 49.0203 21.0625C48.355 20.1856 48.6395 19.1253 48.5293 18.1428C48.4926 17.8137 48.7955 17.9067 48.9767 17.8765L49.0158 17.9544L49.0479 17.9192L48.9767 17.8765L48.9745 17.8665ZM49.2521 48.3467C49.0571 48.402 48.8942 48.4572 48.8689 48.6834C48.8574 48.7864 48.924 48.8743 49.0249 48.8417C49.1832 48.7914 49.3737 48.7562 49.3989 48.5301C49.4058 48.4773 49.3071 48.4095 49.2521 48.3467Z" fill="#147A7F"/>
<path d="M23.3552 52.4848C23.3415 52.8792 23.0845 52.8993 22.816 52.9194C20.5882 53.0828 18.3603 53.035 16.1301 52.9194C15.6024 52.8918 15.5359 52.6204 15.5359 52.1481C15.5565 45.54 15.5749 38.9319 15.5818 32.3237C15.5841 29.286 15.5726 26.2483 15.5451 23.2131C15.5382 22.3915 15.6942 21.7005 16.2724 21.105C17.2292 20.1201 18.1561 19.0975 19.0486 18.0447C19.4525 17.5673 19.7553 17.6703 20.1362 18.0171C20.6042 18.4442 20.9071 19.0171 21.2949 19.5146C21.2421 19.9744 21.8501 20.3337 21.6987 20.5849C21.148 21.4844 21.9488 21.4945 22.2791 21.7935C22.4994 21.992 22.8367 22.1302 22.7839 22.4794C22.7059 23.0071 22.2746 22.3814 22.052 22.7382C22.3847 23.1051 22.2952 23.5171 22.0153 23.9091C21.8868 24.09 21.9602 24.2885 21.9419 24.4669C21.8409 25.4543 22.3686 26.5247 21.6551 27.4292C21.5059 27.6177 21.4899 27.7358 21.7216 27.8363C22.4145 28.1353 22.0038 28.5222 21.8226 28.9368C21.7193 29.173 21.2054 29.4066 21.7124 29.7634C21.8914 29.889 22.2264 29.972 22.0727 30.286C21.9235 30.5951 21.6711 30.2559 21.4623 30.2609C21.3109 30.2634 21.1595 30.0398 20.9989 30.2735C21.0425 30.7358 21.5564 30.6579 21.7652 31.1127C21.2123 31.1705 21.2719 31.5172 21.405 31.967C21.5358 32.4067 21.3958 32.7986 21.0562 33.1353C20.3748 33.8112 20.423 34.3087 21.0723 34.9821C21.6069 35.5348 21.7973 36.2961 21.5954 37.0549C21.4555 37.5776 21.4302 38.0148 21.6665 38.4846C21.8363 38.8238 22.0956 39.1555 21.5495 39.4545C21.3866 39.5449 21.2857 39.9595 21.7124 40.1429C22.075 40.2962 22.1874 40.8062 21.8409 40.9545C21.265 41.2007 21.5197 41.5148 21.7423 41.6756C22.2883 42.0751 22.0612 42.3867 21.7124 42.6857C21.0448 43.256 20.9346 43.8565 21.5105 44.5902C21.6413 44.756 21.9556 45.1179 21.5794 45.2787C20.6524 45.6756 21.2513 46.0827 21.5725 46.3792C21.9717 46.7485 22.1094 46.9998 21.5931 47.3641C21.3843 47.5124 21.1159 47.8289 21.3912 48.0475C22.0956 48.6053 21.6643 49.1129 21.3545 49.5475C21.07 49.947 21.1641 50.1933 21.4807 50.3641C22.2929 50.8064 22.1163 51.0853 21.3958 51.3667C21.0172 51.5149 20.9736 51.8667 21.3178 52.035C21.9556 52.3466 22.566 52.9797 23.3598 52.4797L23.3552 52.4848Z" fill="#1B8C8F"/>
<path d="M23.3551 52.4847C22.5612 52.9872 21.9509 52.3515 21.3131 52.04C20.9689 51.8716 21.0148 51.5199 21.3911 51.3716C22.1115 51.0927 22.2882 50.8113 21.4759 50.3691C21.1593 50.1957 21.0653 49.9495 21.3498 49.5525C21.6595 49.1178 22.0908 48.6103 21.3865 48.0525C21.1111 47.8339 21.3796 47.5148 21.5884 47.3691C22.1023 47.0047 21.9647 46.7535 21.5677 46.3841C21.2465 46.0876 20.6477 45.6806 21.5746 45.2836C21.9509 45.1228 21.6366 44.761 21.5058 44.5952C20.9299 43.859 21.04 43.261 21.7077 42.6906C22.0564 42.3916 22.2859 42.0801 21.7375 41.6806C21.515 41.5172 21.2603 41.2057 21.8362 40.9594C22.1826 40.8112 22.0725 40.3012 21.7077 40.1479C21.2786 39.967 21.3819 39.5499 21.5448 39.4594C22.0886 39.1604 21.8316 38.8263 21.6618 38.4896C21.4232 38.0197 21.4507 37.5825 21.5907 37.0599C21.7949 36.3011 21.6021 35.5423 21.0676 34.987C20.4205 34.3162 20.3701 33.8187 21.0515 33.1403C21.3911 32.8036 21.531 32.4116 21.4002 31.9719C21.2672 31.5222 21.2075 31.1754 21.7605 31.1176C21.5494 30.6629 21.0377 30.7408 20.9941 30.2784C21.1547 30.0448 21.3062 30.2684 21.4576 30.2659C21.6687 30.2608 21.9188 30.5975 22.0679 30.291C22.2216 29.9769 21.8866 29.8965 21.7077 29.7684C21.2029 29.4116 21.7146 29.1779 21.8178 28.9417C21.9991 28.5247 22.4098 28.1402 21.7169 27.8412C21.4851 27.7407 21.5012 27.6226 21.6503 27.4342C22.3616 26.5297 21.8339 25.4593 21.9371 24.4718C21.9555 24.2934 21.8821 24.0924 22.0105 23.914C22.2905 23.5196 22.3799 23.11 22.0473 22.7432C22.2698 22.3864 22.7012 23.0095 22.7792 22.4844C22.8296 22.1351 22.4924 21.9969 22.2744 21.7985C21.944 21.4995 21.1433 21.4894 21.6939 20.5899C21.8476 20.3411 21.2373 19.9793 21.2901 19.5195C23.144 20.6251 23.6235 22.3361 23.5386 24.5849C23.4147 27.9091 23.6212 31.2483 23.5983 34.575C23.5776 37.57 23.5501 40.5725 23.5088 43.57C23.4721 46.3138 23.4996 49.0575 23.495 51.8013C23.495 52.0375 23.5914 52.3088 23.3528 52.4897L23.3551 52.4847Z" fill="#147A7F"/>
<path d="M36.58 53.0098C34.2351 53.1379 31.8926 53.0575 29.55 52.9445C29.0268 52.9194 29.0498 52.5877 29.0544 52.1882C29.0865 48.1605 29.2058 44.1278 29.1117 40.1026C29.0223 36.2584 29.1301 32.4141 29.0521 28.5724C29.0475 28.3588 29.0521 28.1452 29.0521 27.7935C30.4379 28.61 31.358 29.9945 32.8034 30.4669C32.769 31.0749 33.6478 31.1503 33.4826 31.9015C33.4436 32.0774 34.9372 32.1779 34.8868 32.0699C34.561 31.3513 35.3755 31.3463 35.4604 30.894C35.5017 30.6754 35.6393 30.3839 35.9491 30.6402C36.2336 30.8789 36.2703 31.1226 35.9904 31.4116C35.3732 32.0498 35.6324 32.8865 35.7357 33.585C35.8183 34.1428 36.089 34.6704 36.0844 35.2885C36.0799 35.9066 36.7154 36.4267 35.9284 37.1679C35.4695 37.6001 35.6393 38.7584 36.4125 39.3087C36.7338 39.5373 36.7911 40.1403 36.7383 40.1428C35.8252 40.1428 36.1349 40.8413 36.0523 41.3815C35.8986 42.3665 36.4309 43.4871 35.5888 44.3414C35.5705 44.3615 35.6026 44.4645 35.6324 44.5147C36.0569 45.1881 36.0363 46.0047 36.112 46.7459C36.1831 47.4469 36.0386 48.2484 35.7632 48.8892C35.6141 49.2384 35.3846 49.5374 35.3846 49.9495C35.3801 51.1605 36.2772 51.947 36.5846 53.0123L36.58 53.0098Z" fill="#1B8C8F"/>
<path d="M36.5801 53.0102C36.275 51.9448 35.3756 51.1584 35.3802 49.9473C35.3802 49.5328 35.6096 49.2338 35.7587 48.887C36.0341 48.2463 36.1786 47.4448 36.1075 46.7438C36.0318 46.0026 36.0547 45.1835 35.628 44.5126C35.5981 44.4649 35.566 44.3593 35.5844 44.3392C36.4264 43.485 35.8941 42.3643 36.0478 41.3794C36.1327 40.8417 35.823 40.1432 36.7339 40.1407C36.7889 40.1407 36.7293 39.5352 36.4081 39.3065C35.6326 38.7588 35.4651 37.6005 35.9239 37.1658C36.7109 36.4221 36.0754 35.9045 36.08 35.2864C36.0846 34.6708 35.8138 34.1406 35.7312 33.5828C35.628 32.8818 35.3687 32.0451 35.9859 31.4095C36.2658 31.1205 36.2291 30.8768 35.9446 30.6381C35.6371 30.3818 35.4995 30.6733 35.4559 30.8919C35.3687 31.3441 34.5542 31.3492 34.8823 32.0678C34.9305 32.1758 33.4391 32.0778 33.4781 31.8994C33.6433 31.1456 32.7623 31.0728 32.799 30.4647C34.4257 30.5451 35.4559 29.3391 36.5916 28.3617C36.7247 28.2461 36.8394 28.1004 36.9771 27.9923C37.1354 27.8667 37.3052 27.6355 37.4979 27.7335C37.7205 27.8466 37.7159 28.1707 37.7182 28.4019C37.748 31.3014 37.7687 34.2035 37.7755 37.1055C37.7847 40.9623 37.8214 44.8217 37.7503 48.676C37.7319 49.7287 37.6769 50.7765 37.7273 51.8318C37.7847 53.0479 37.7365 53.0629 36.5778 53.0102H36.5801Z" fill="#147A7F"/>
<path d="M9.37067 29.7185C9.37067 29.9044 9.37067 30.0928 9.37067 30.2788C8.93474 30.5828 8.14776 30.6531 8.76266 31.5954C9.01275 31.9798 8.62041 32.1883 8.32902 32.329C8.14776 32.417 7.86784 32.2562 7.76459 32.5652C7.9642 32.8743 8.45062 32.5577 8.52633 33.0552C8.59746 33.5175 8.18906 33.5326 8.04222 33.7512C7.68658 34.2889 7.14281 34.9622 7.55351 35.6482C8.01927 36.4246 7.68428 36.5175 7.09003 36.5502C7.1864 36.9974 7.40207 37.3593 7.33324 37.7839C7.25523 38.2487 7.45943 38.5402 7.79212 38.7939C8.48733 39.3241 8.35196 39.8316 7.86784 40.5151C7.56498 40.9422 7.04644 41.6683 7.95503 42.1457C8.12252 42.2337 8.19135 42.3794 8.01009 42.4724C7.50073 42.7362 7.98486 43.8241 7.08775 43.7714C6.9845 43.7663 7.00285 44.0578 7.12216 44.1633C7.65446 44.6382 7.59021 45.3669 7.77836 45.985C7.98944 46.6759 7.77378 47.0679 7.04416 47.0403C6.69082 47.0277 6.31224 46.9222 6.00708 47.3016C5.36924 48.0981 5.54132 48.8594 6.49809 49.284C6.97303 49.4951 7.41585 49.6584 6.79865 50.289C6.49809 50.5956 6.51873 51.1835 6.73211 51.4147C7.18181 51.9021 7.0235 52.485 7.15428 53.0177C5.92219 53.1333 4.69468 52.9775 3.46488 52.9247C3.32262 52.9197 3.17808 52.8996 3.03582 52.9046C1.64541 52.9474 1.63853 52.9499 1.63395 51.3845C1.61788 46.8418 1.67984 42.299 1.56512 37.7588C1.51693 35.7989 1.7372 33.8466 1.48022 31.7788C2.3521 32.221 2.83621 32.9421 3.4557 33.4672C4.34134 34.221 4.82087 34.2587 5.59867 33.4069C6.76423 32.1356 7.89537 30.824 9.04257 29.53C9.1137 29.5149 9.18254 29.4999 9.25367 29.4873L9.25825 29.4974C9.29496 29.5727 9.33168 29.6456 9.36609 29.721L9.37067 29.7185Z" fill="#1B8C8F"/>
<path d="M7.15881 53.0124C7.02803 52.4822 7.18404 51.8968 6.73663 51.4093C6.52325 51.1782 6.5003 50.5902 6.80316 50.2837C7.42036 49.653 6.97754 49.4897 6.5026 49.2787C5.54583 48.8515 5.37376 48.0902 6.0116 47.2962C6.31676 46.9168 6.69533 47.0224 7.04867 47.0349C7.78058 47.0626 7.99396 46.6706 7.78288 45.9796C7.59474 45.3641 7.65898 44.6329 7.12668 44.158C7.00737 44.0525 6.98901 43.761 7.09226 43.766C7.98937 43.8188 7.50526 42.7309 8.01461 42.467C8.19358 42.3741 8.12704 42.2283 7.95955 42.1404C7.05097 41.663 7.5695 40.9369 7.87236 40.5097C8.35419 39.8288 8.48955 39.3213 7.79664 38.7886C7.46395 38.5348 7.26205 38.2409 7.33776 37.7785C7.40889 37.3539 7.19322 36.9921 7.09456 36.5449C7.68881 36.5122 8.02379 36.4192 7.55803 35.6428C7.14733 34.9569 7.69111 34.2835 8.04674 33.7458C8.19129 33.5247 8.60198 33.5122 8.53086 33.0499C8.45285 32.5524 7.96872 32.8664 7.76911 32.5599C7.87236 32.2508 8.15228 32.4117 8.33354 32.3237C8.62493 32.183 9.01726 31.9745 8.76717 31.59C8.15227 30.6478 8.93926 30.58 9.3752 30.2734C9.38896 30.776 9.40272 31.276 9.4142 31.7785C9.28112 31.8488 9.2926 31.9167 9.41879 31.9795C9.68723 35.2157 9.35455 38.4519 9.40962 41.6906C9.45092 44.1279 9.51745 46.5676 9.48074 49.0073C9.46468 50.1304 9.38208 51.2536 9.43485 52.3767C9.4578 52.8264 9.24901 53.0149 8.87731 53.0199C8.30601 53.0274 7.73241 53.0124 7.15881 53.0073V53.0124Z" fill="#147A7F"/>
<path d="M9.4165 31.9847C9.29031 31.9219 9.27885 31.854 9.41192 31.7837C9.41192 31.8515 9.41421 31.9169 9.4165 31.9847Z" fill="#1B8C8F"/>
<path d="M9.37077 29.7183C9.33406 29.6429 9.29736 29.57 9.26294 29.4946C9.36848 29.5273 9.39601 29.6102 9.37077 29.7183Z" fill="#147A7F"/>
<path d="M9.2582 29.4823C9.18707 29.4974 9.11825 29.5125 9.04712 29.5251C9.10218 29.4246 9.15495 29.3165 9.2582 29.4823Z" fill="#147A7F"/>
<path d="M48.7541 15.8765C48.8023 15.8991 48.8482 15.9217 48.8963 15.9443C48.8757 15.9971 48.8665 16.0775 48.8321 16.0925C48.7977 16.1076 48.7403 16.0574 48.6921 16.0348C48.7128 15.982 48.7334 15.9317 48.7541 15.879V15.8765Z" fill="#147A7F"/>
<path d="M49.2521 48.3467C49.3049 48.412 49.4036 48.4773 49.399 48.5301C49.3737 48.7562 49.1833 48.7914 49.025 48.8417C48.924 48.8743 48.8575 48.7864 48.869 48.6834C48.8942 48.4572 49.0594 48.3994 49.2521 48.3467Z" fill="#1B8C8F"/>
<path d="M48.9744 17.8662L49.0455 17.9089L49.0134 17.9441L48.9744 17.8662Z" fill="#1B8C8F"/>
</svg>
