<svg width="492" height="15" viewBox="0 0 492 15" fill="none" xmlns="http://www.w3.org/2000/svg">
<path d="M3.49033 1.38283e-05C2.56206 -0.00187087 1.67284 0.365438 1.01828 1.0237C0.363714 1.68181 -0.00256348 2.57697 1.33514e-05 3.50967C0.00258994 4.44237 0.373808 5.33549 1.032 5.98997C1.69018 6.64461 2.58143 7.007 3.50967 6.99999C11.4083 6.93963 19.7467 6.88499 27.8421 6.83668C174.421 6.50496 320.965 4.87176 467.409 11.7252C475.299 12.2852 483.726 12.8758 491.404 14.1952C491.55 13.4146 491.697 12.634 491.843 11.8534C483.931 10.417 475.528 9.76099 467.598 9.11859C320.949 0.867863 174.487 1.12265 27.8339 0.0675573C19.7352 0.0389161 11.3931 0.0166044 3.49033 1.38283e-05Z" fill="#F7670E"/>
</svg>
