<svg width="54" height="54" viewBox="0 0 54 54" fill="none" xmlns="http://www.w3.org/2000/svg">
<path d="M53.9813 27.2137C54.6177 43.412 38.8706 54.4847 26.1026 53.9837C13.5424 53.4902 -0.220316 41.6709 0.00267428 27.2062C0.22817 12.511 12.6705 -0.0723362 26.3556 0.000313021C41.8973 0.0829828 54.0565 10.9278 53.9813 27.2137ZM49.6919 14.8408C49.6819 14.678 49.6418 14.5276 49.4965 14.4274C49.5015 14.3748 49.4814 14.3322 49.4388 14.2997C49.3261 14.1043 49.2133 13.9114 49.1006 13.716C46.3295 8.91111 42.3082 5.55672 37.1919 3.45992C31.9604 1.31551 26.5636 0.776908 21.0464 1.96936C18.1175 2.60316 15.5443 4.05364 13.0564 5.73709C9.72405 7.98922 6.94293 10.7248 4.99866 14.2195C1.89183 19.806 0.714242 25.7983 1.85425 32.1263C2.29522 34.5688 3.30744 36.8034 4.59527 38.9929C6.25141 41.8112 8.16563 44.3339 10.6636 46.4031C13.3771 48.6502 16.3486 50.479 19.7661 51.486C23.0233 52.7361 26.3957 52.9365 29.8207 52.5282C36.6507 51.7115 42.1954 48.297 46.7179 43.4095C52.0396 37.6551 53.5754 30.6082 52.3928 22.9349C51.9544 20.0816 51.1902 17.3309 49.6844 14.8308L49.6919 14.8383V14.8408Z" fill="#090606"/>
<path d="M49.4389 14.2997C49.4814 14.3323 49.5015 14.3748 49.4965 14.4275C49.4664 14.6103 49.4764 14.7732 49.6919 14.8383L49.6844 14.8308C49.6894 15.0487 49.6343 15.2892 49.712 15.4771C50.416 17.2207 50.7392 19.0444 51.0274 20.8932C51.531 24.1324 51.4733 27.3289 50.6565 30.5055C49.6518 34.421 47.8554 37.9132 45.3273 41.0922C42.9521 44.0809 40.0808 46.3731 36.7309 48.1367C33.7694 49.6974 30.5874 50.5642 27.3052 51.0251C25.3183 51.3057 23.3089 51.5963 21.2719 51.2781C20.7984 51.203 20.2121 51.0251 19.7661 51.4836C16.3486 50.4765 13.3771 48.6477 10.6636 46.4006C8.16314 44.3314 6.25143 41.8112 4.59529 38.9904C3.30746 36.8009 2.29524 34.5638 1.85427 32.1238C0.714263 25.7958 1.89185 19.8035 4.99868 14.217C6.94295 10.7223 9.72407 7.98673 13.0564 5.7346C15.5444 4.05115 18.1175 2.60067 21.0465 1.96687C26.5661 0.774418 31.9604 1.31302 37.1919 3.45743C42.3082 5.55423 46.327 8.90862 49.1006 13.7135C49.0831 13.9815 49.0605 14.2546 49.4389 14.2972V14.2997ZM16.4539 30.1472C16.4338 30.1472 16.4138 30.1472 16.3937 30.1472C16.3937 33.7096 16.3937 37.2744 16.3937 40.8367C16.3937 41.4655 16.4664 42.0792 16.7194 42.6679C17.0301 43.3869 17.5813 43.6425 18.3079 43.4796C18.6963 43.3919 19.0771 43.2191 19.4329 43.0287C22.3919 41.4379 25.1956 39.5916 28.0193 37.7804C33.3059 34.3935 38.5925 31.0065 44.1447 28.0605C45.172 27.5168 45.2697 26.6075 44.4604 25.7482C44.047 25.3098 43.5359 25.0117 43.0223 24.7086C38.7654 22.2059 34.4384 19.8311 30.1364 17.4086C26.3681 15.2842 22.7051 12.972 18.9869 10.7624C17.5763 9.92321 16.8297 10.314 16.7545 11.9073C16.6393 14.3623 16.4964 16.8174 16.4639 19.2749C16.4138 22.8999 16.4514 26.5248 16.4514 30.1497L16.4539 30.1472Z" fill="#F1453D"/>
<path d="M19.7661 51.4861C20.2096 51.0277 20.7984 51.2056 21.2719 51.2807C23.3064 51.6014 25.3158 51.3083 27.3052 51.0277C30.5874 50.5642 33.7694 49.6975 36.7309 48.1393C40.0808 46.3756 42.9521 44.0809 45.3273 41.0948C47.8554 37.9158 49.6518 34.4236 50.6565 30.5081C51.4708 27.3315 51.5309 24.135 51.0273 20.8958C50.7392 19.047 50.4185 17.2233 49.7119 15.4797C49.6368 15.2918 49.6919 15.0513 49.6844 14.8334C51.1902 17.3335 51.9519 20.0842 52.3928 22.9375C53.5754 30.6108 52.0396 37.6552 46.7179 43.4121C42.1979 48.2996 36.6507 51.7141 29.8207 52.5308C26.3982 52.9391 23.0233 52.7387 19.7661 51.4886V51.4861Z" fill="#E32719"/>
<path d="M49.4387 14.2998C49.0604 14.2597 49.0855 13.9866 49.1005 13.7161C49.2132 13.9115 49.3259 14.1044 49.4387 14.2998Z" fill="#E32719"/>
<path d="M49.6916 14.8408C49.4786 14.7731 49.4686 14.6103 49.4962 14.4299C49.6415 14.5301 49.6815 14.6779 49.6916 14.8408Z" fill="#E32719"/>
<path d="M16.4537 30.1472C16.4537 26.5223 16.4161 22.8973 16.4662 19.2724C16.4988 16.8148 16.6416 14.3598 16.7569 11.9047C16.832 10.3115 17.5787 9.92066 18.9893 10.7599C22.7099 12.9719 26.3705 15.2817 30.1388 17.406C34.4382 19.831 38.7677 22.2059 43.0246 24.706C43.5382 25.0091 44.0493 25.3073 44.4628 25.7457C45.2695 26.6049 45.1718 27.5118 44.1471 28.0579C38.5923 31.004 33.3057 34.3909 28.0216 37.7779C25.1979 39.5891 22.3942 41.4379 19.4352 43.0261C19.082 43.2165 18.7011 43.3894 18.3103 43.4771C17.5812 43.6424 17.0325 43.3844 16.7218 42.6654C16.4662 42.0767 16.3936 41.4654 16.3961 40.8341C16.3961 37.2718 16.3961 33.707 16.3961 30.1447C16.4161 30.1447 16.4362 30.1447 16.4562 30.1447L16.4537 30.1472ZM17.734 26.5974C17.734 31.505 17.724 35.9717 17.7465 40.4358C17.749 41.0095 17.4559 41.8437 17.962 42.0992C18.4882 42.3648 19.077 41.716 19.5956 41.3953C27.0996 36.7382 34.5435 31.986 42.2103 27.602C43.7788 26.7051 43.7863 26.7101 42.2479 25.7933C34.4733 21.1637 26.4532 16.9651 18.7487 12.2179C17.9495 11.7269 18.0221 12.2179 18.0271 12.7164C18.0773 17.4937 17.526 22.2585 17.734 26.5974Z" fill="#090606"/>
<path d="M17.7347 26.5974C17.5267 22.2585 18.0779 17.4937 18.0278 12.7164C18.0228 12.2178 17.9502 11.7268 18.7494 12.2178C26.4539 16.9651 34.4765 21.1662 42.2486 25.7932C43.787 26.7101 43.7794 26.7026 42.211 27.6019C34.5416 31.9884 27.0978 36.7407 19.5963 41.3953C19.0776 41.7159 18.4889 42.3647 17.9627 42.0992C17.4566 41.8437 17.7497 41.0095 17.7472 40.4358C17.7272 35.9691 17.7347 31.5049 17.7347 26.5974Z" fill="#FEFEFE"/>
</svg>
